
<svg version="1.1" id="Layer_1" xmlns="http://www.w3.org/2000/svg" x="0" y="0" viewBox="0 0 1920 1080" style="enable-background:new 0 0 1920 1080" xml:space="preserve"><style>.st0{fill-rule:evenodd;clip-rule:evenodd;fill:#09cde2}</style><g id="Page-1"><g id="Landingpage-XL"><g id="Group" transform="translate(-576 -289.972)"><path id="Rectangle" class="st0" d="M576.3 290.1h1920v1080h-1920z"/><path id="Rectangle_00000057149709080502105680000005715242745838921602_" d="M2496.3 1410.1c-418.3 175.5-705.9 255.1-863 239-154.6-15.9-440 115-440-239s552-340 450-656-503 21-778 0-370-191-364-424c6-232 671-272 1995-40v1120z" style="fill-rule:evenodd;clip-rule:evenodd;fill:#752cef"/><path id="Oval" class="st0" d="M2958.5 954.1c22.9-160.5-192.8-542.2-242.1-540.1-29.7 1.2-302.1-139.1-384.4 89.6-82.3 228.7 49.3 263.6.1 473.8-49.2 210.2 134 203 294.5 225.9 160.3 22.8 309-88.8 331.9-249.2z"/></g></g></g></svg>