<svg xmlns="http://www.w3.org/2000/svg" width="782.3" height="732.2" viewBox="0 0 733.4 686.5"><g transform="translate(-7.6 -132)"><path d="M573.8 372c58.3 52.3 168.8 154.8 167.1 281.4L286.7 802C289 808.2 111 524.8 48 420.6c-42-79-68.6-221 9.6-246 65.5-21 78.2 126 126.1 163.1L231 315z" fill="#1f1f1f" fill-rule="evenodd"/><path d="M541.4 366.6L385 512.6s82.1-29.9 120.7-50c26.6-13.9 59-23.6 75.8-48.5a70.4 70.4 0 0 0 8-28l-15.6-14-32.4-5.5z" fill="#0f0f0f" fill-rule="evenodd"/><path d="M231 327.7c-1-29 13.2-54.8 42.8-75.7-2 3 41.4-58 82.9-75.7 48.9-20.8 124.8-8.1 155.7 34.3 33 45.3 35.2 63.7 52.8 100 3.9 27.1 16.2 57 4.3 81.4-24.6 50.7-89 69.8-138.2 97.2-17.7 9.8-36 26.7-56 23.9-21.5-3-36.3-24.6-50.8-40.7C286 429.7 232.6 385 231 327.7zM236.7 663.4c45-76 167.1-101.7 252.8-80 52 13.2 111.4 115.8 111.4 115.8L267.4 818.4s-57.6-109.6-30.7-155z" fill="#f2f2f2" fill-rule="evenodd"/><path d="M371 269.2c12.3 9.7-1.4 33.6-11.5 45.7-10.4 12.4-32.4 31-44.3 20-11.8-11.2 6.4-33.6 17.2-45.7 9.6-10.9 27.2-29 38.5-20zM471.9 369c16.6 3.5 17.5-22 15-37.4-2.5-15.9-12.2-44.8-29-47.2-17-2.4-13 25.9-10 41.9 2.8 14.2 8.7 39.3 24 42.6z" fill="#373737" fill-rule="evenodd"/><path d="M363.4 395c-25.2-30.4 11.4-13.5 19.2-13.2 9.5.4 64.1.8 22.2 18.2-16.7 9-30.1 7.5-41.4-5z" fill="#333" fill-rule="evenodd"/><path d="M507.8 205c10.3-16.5 85.7-50.5 112.2 19.2 25.4 67.1-43.3 90.5-55.6 85.9zM267.4 258.6s-81-29.7-8-110.1c47.2-52.2 85.8 36.3 85.8 36.3z" fill="#1f1f1f" fill-rule="evenodd"/><path d="M572.3 346.7c-7 20-18.5 46.7-32.3 58.5a507.3 507.3 0 0 1-183.4 100.2c5.7 4 11.8 6.8 18.6 7.7 20.2 2.8 38.4-14 56.1-24 49.2-27.3 113.6-46.4 138.2-97 6.8-14 5.7-29.6 2.8-45.4z" fill="#e1e1e1" fill-rule="evenodd"/><path d="M383.1 419.4c17.5 3.5 53.2 5 53.2 5s-12.2 48-30.4 62.2c-8.2 6.3-20.2 8-30.4 6.3-11-1.7-23-7.1-29.1-16.5-13.1-19.8-7.7-71-7.7-71a174.4 174.4 0 0 0 44.4 14z" fill="#1a1a1a" fill-rule="evenodd"/><path d="M350.7 410.6l.3 68.2c19 15.3 38.3 13.8 48.1 9l21-64.3c-11.8-.8-27.2-2.1-37-4a207 207 0 0 1-32.4-8.9z" fill="#fac" fill-rule="evenodd"/><ellipse cx="434.5" cy="144.7" rx="14.7" ry="21.9" transform="rotate(23)" fill="#131313"/><ellipse cx="483" cy="302.9" rx="15.1" ry="22.5" transform="rotate(3.1)" fill="#131313"/><circle cx="349.7" cy="292.1" r="5.7" fill="#fff"/><circle cx="469" cy="316.4" r="5.7" fill="#fff"/><path d="M378.8 403.3l-2 13.1 8.6 2 1.5-16.1z" fill="#333" fill-rule="evenodd"/><path d="M195.4 332.1l-11.5 5.6 33.5 32.5c-8-12.7-18.7-25.4-22-38.1zM335.9 167.6c-.5 4.9-1.2 10-2.5 13.5a173.6 173.6 0 0 1-25.4 39l37.2-35.3s-3.4-7.7-9.3-17.2zM624.1 238.4c-4.2 13.4-11.9 35.1-20 46.3-6.7 9-22.6 20.4-29.9 25.3 20.4-3.7 59.3-25.2 49.9-71.6z" fill="#0f0f0f" fill-rule="evenodd"/><path d="M418.7 423.4c-6 11.4-17.3 32.6-27.3 52.6-5.2 10.4-33.6 2.6-40.4.6v2.2c19 15.3 38.3 13.8 48.1 9l21-64.3h-1.4z" fill="#ff80b2" fill-rule="evenodd"/></g></svg>