<svg id="Layer_1" data-name="Layer 1" xmlns="http://www.w3.org/2000/svg" viewBox="0 0 419.53 595.28"><defs><style>.cls-1{fill:#b794f4;}.cls-2{fill:#de543f;}.cls-3{fill:#32a0d0;}.cls-4{fill:#e7b53d;}.cls-5{fill:#59ac5f;}.cls-6{fill:#d3347a;}.cls-7{fill:#4a5aa8;}</style></defs><title>Artboard 1</title><rect class="cls-1" x="-8.51" y="-8.51" width="436.54" height="612.89"/><path class="cls-2" d="M-222.26,225.4l-43.59,49.38L201.4,868.67,245,819.29c-1-1.22-2-2.41-3-3.65Q11.32,522.41-219.39,229.16C-220.37,227.93-221.3,226.65-222.26,225.4Z"/><path class="cls-3" d="M331.46,721.33,375.05,672-92.21,78.06l-43.59,49.38c.82.93,1.68,1.81,2.45,2.79q231.31,294,462.62,588C330.05,719.22,330.74,720.3,331.46,721.33Z"/><path class="cls-4" d="M-222,226.2c.95,1.26,1.89,2.53,2.87,3.76L242.31,816.45c1,1.24,2,2.43,3,3.65l43.23-49L-178.74,177.23Z"/><path class="cls-5" d="M-179,176.42,288.22,770.31l43.23-49c-.73-1-1.41-2.12-2.18-3.1q-231.3-294-462.62-588c-.77-1-1.63-1.86-2.45-2.79Q-157.4,151.94-179,176.42Z"/><path class="cls-6" d="M106-300.92c1.07,1.39,2.12,2.8,3.2,4.18l514.65,651.1c1.08,1.37,2.2,2.71,3.31,4.06l48.25-54.31Q414.85-25.58,154.27-355.23Z"/><path class="cls-7" d="M103.43-207,570.68,386.9l43.59-49.38c-1-1.22-2-2.42-3-3.65Q380.58,40.63,149.88-252.6c-1-1.24-1.91-2.51-2.87-3.76Z"/></svg>