<svg xmlns="http://www.w3.org/2000/svg" viewBox="0 0 419.5 595.3"><path style="fill:#b794f4" d="M-8.5-8.5H428v612.9H-8.5z"/><path d="m-222.3 225.4-43.5 49.4 467.2 593.9 43.6-49.4-3-3.7-461.4-586.4-2.9-3.8Z" style="fill:#de543f"/><path d="M331.5 721.3 375 672-92.3 78l-43.6 49.4 2.5 2.8 462.6 588 2.2 3.1Z" style="fill:#32a0d0"/><path d="m-222 226.2 2.9 3.8 461.4 586.5 3 3.6 43.2-49-467.2-593.9Z" style="fill:#e7b53d"/><path d="m-179 176.4 467.2 594 43.3-49-2.2-3.2-462.6-588-2.5-2.8-43.2 49Z" style="fill:#59ac5f"/><path d="m106-301 3.2 4.3 514.6 651 3.4 4.1 48.2-54.3-521.1-659.3Z" style="fill:#d3347a"/><path d="m103.4-207 467.3 593.9 43.6-49.4-3-3.6-461.4-586.5-2.9-3.8Z" style="fill:#4a5aa8"/></svg>