<svg version="1.1" id="Laag_1" xmlns="http://www.w3.org/2000/svg" x="0" y="0" viewBox="0 0 191 200" xml:space="preserve"><g id="_x30_75---Contactless"><path id="Shape" class="st0" d="M17.1 199.7h93.2c9.2 0 16.6-7.5 16.6-16.6V16.6c0-9.2-7.5-16.6-16.6-16.6H17.1A16.6 16.6 0 00.4 16.6V183c0 9.2 7.5 16.7 16.7 16.7zM120.3 16.6V183a10 10 0 01-10 10h-6.7V6.6h6.7a10 10 0 0110 10zM97 6.6V193H77V6.6h20zm-89.9 10a10 10 0 0110-10h53.3V193H17.1a10 10 0 01-10-10V16.6z"/><path id="Shape_1_" class="st0" d="M23.7 49.9H37c3.7 0 6.7-3 6.7-6.7v-20c0-3.7-3-6.7-6.7-6.7H23.7c-3.7 0-6.7 3-6.7 6.7v20a6.8 6.8 0 006.7 6.7zm0-26.7H37v20H23.7v-20z"/><path id="Shape_2_" class="st0" d="M30.4 183a13.4 13.4 0 0010.4-21.7 13.3 13.3 0 00-19.5-18.1 13.2 13.2 0 00-1.3 18.1c-3.2 4-3.9 9.5-1.6 14.1s6.9 7.6 12 7.6zm0-6.6c-2.6 0-4.9-1.5-6-3.9s-.7-5.1 1-7.1c3.2 1.3 6.8 1.3 10 0 1.7 2 2.1 4.7 1 7.1a7 7 0 01-6 3.9zm0-30a6.7 6.7 0 110 13.4 6.7 6.7 0 010-13.4z"/><path id="Shape_3_" class="st0" d="M167.5 138.4c-1 1-1.2 2.4-.7 3.6a3.4 3.4 0 003.1 2.1c.9 0 1.7-.4 2.4-1a60.9 60.9 0 000-86 3.3 3.3 0 10-4.7 4.7 54 54 0 01-.1 76.6z"/><path id="Shape_4_" class="st0" d="M155.9 68.7c-.6.6-1 1.5-1 2.4 0 .9.4 1.7 1 2.4a37.7 37.7 0 010 53.3 3.3 3.3 0 104.7 4.7 44.5 44.5 0 000-62.8 3.3 3.3 0 00-4.7 0z"/><path id="Shape_5_" class="st0" d="M144.3 119.8a3.3 3.3 0 004.7 0 28.2 28.2 0 000-39.6 3.3 3.3 0 00-4.7 0c-.6.6-1 1.5-1 2.4 0 .9.4 1.7 1 2.4a21.3 21.3 0 010 30.1 3.3 3.3 0 000 4.7z"/></g></svg>