<svg version="1.1" id="Laag_1" xmlns="http://www.w3.org/2000/svg" x="0" y="0" viewBox="0 0 158 159" xml:space="preserve"><style>.st1{fill:none;stroke:#805ad5;stroke-miterlimit:10;stroke-width:3}</style><path d="M94.4 78.5v20.9c0 3.5 2.5 6.6 5.9 7.3l10 2.2c-6 10.5-17.2 17-29.3 17-12.2 0-23.3-6.5-29.3-17l10-2.2c3.4-.8 5.9-3.8 5.9-7.3V78.5h26.8m1-1H66.6v21.9c0 3.1-2.1 5.7-5.1 6.3l-11.3 2.5a34.77 34.77 0 0030.9 18.7 35 35 0 0030.9-18.7l-11.3-2.5c-3-.7-5.1-3.3-5.1-6.3V77.5h-.2z" fill="#d35096"/><path class="st1" d="M47.6 69a11.92 11.92 0 01-4.2-21.6M111.9 45.4c6.6 0 11.9 5.3 11.9 11.9 0 5.8-4.2 10.7-9.7 11.7"/><path class="st1" d="M82.3 95.4h-2.7c-18 0-32.6-14.6-32.6-32.6V44.3c0-18 14.6-32.6 32.6-32.6h2.7c18 0 32.6 14.6 32.6 32.6v18.5c.1 18-14.5 32.6-32.6 32.6z"/><path class="st2" d="M69.2 35.4s22.2 20.7 50.1 21.9V35.5C119.3 15.9 102.2 0 81 0S42.6 15.9 42.6 35.5v21.8s12.9-7.9 26.6-21.9zM81 159c20 0 38.5-6.8 53.2-18.1l-1.6-18.2c-.5-6-4.9-11-10.8-12.2l-17.1-3.8c-3.7 9.5-12.9 16.2-23.7 16.2s-20-6.7-23.7-16.2l-17.1 3.8c-5.9 1.3-10.2 6.2-10.8 12.2l-1.6 18.2A86.94 86.94 0 0081 159z"/><path class="st2" d="M81 127.3c-5.8 0-11.5-1.8-16.2-5.1-4.7-3.2-8.2-7.7-10.3-13-1-2.6.3-5.6 2.9-6.6s5.6.3 6.6 2.9c2.8 7.1 9.5 11.6 17 11.6 7.6 0 14.3-4.6 17-11.6 1-2.6 4-3.9 6.6-2.9 2.6 1 3.9 4 2.9 6.6-2.1 5.3-5.6 9.8-10.3 13a27.8 27.8 0 01-16.2 5.1z"/><path class="st1" d="M49.3 96.4l-21.2-3a11.85 11.85 0 113.3-23.5l21.2 3-3.3 23.5z"/><path class="st2" d="M117.3 151.1c8.2-3.8 15.7-8.8 22.3-14.8l6.4-29.8c1-4.8.4-9.8-1.9-14.1-3.3-6.3-9.6-10.9-17.1-11.8L40.2 69l-3 28.1 82.1 14.8-2 39.2z"/><path class="st1" d="M152.1 75h-15.6c-2.8 0-5.1-2.3-5.1-5.1s2.3-5.1 5.1-5.1h15.6c2.8 0 5.1 2.3 5.1 5.1s-2.3 5.1-5.1 5.1zM139.2 53.6c-2.5 0-4.6-1.8-5-4.3a5.1 5.1 0 014.3-5.8l10.2-1.6a5.1 5.1 0 111.5 10.1L140 53.6h-.8zM18.2 60.2c-.3 0-.6 0-.9-.1L4.7 57.9a5.08 5.08 0 011.8-10l12.6 2.3c2.8.5 4.6 3.2 4.1 5.9-.4 2.4-2.5 4.1-5 4.1z"/><g><path class="st1" d="M26.2 40.6c-1.2 0-2.3-.4-3.3-1.2l-8.3-7c-2.2-1.8-2.4-5-.6-7.2 1.8-2.2 5-2.4 7.2-.6l8.3 7a5.08 5.08 0 01-3.3 9z"/></g></svg>