<svg version="1.1" id="Laag_1" xmlns="http://www.w3.org/2000/svg" x="0" y="0" viewBox="0 0 200 137" xml:space="preserve"><path class="st0" d="M46.3 31.5a19 19 0 10-31.2 0c-7.4.7-13.3 7.1-13.3 14.7v31.3a15 15 0 008 13.2l4.3 39.5a5.4 5.4 0 005.3 4.8H42c2.7 0 5-2.1 5.3-4.8l4.3-39.5c4.8-2.5 8-7.5 8-13.2V46.2c0-7.6-5.8-14-13.3-14.7zM30.7 12.3a8.3 8.3 0 110 16.6 8.3 8.3 0 110-16.6zM12.5 46.2a4 4 0 014.1-4.1h28.2c2.2 0 4.1 1.9 4.1 4.1v31.3a4 4 0 01-4.1 4.1H16.6a4.2 4.2 0 01-4.1-4.1V46.2zm11.7 78.1l-3.5-31.9h19.9l-3.5 31.9H24.2zM131.4 56.5l-5.5-4.7a5.4 5.4 0 00-7.5.6 5 5 0 00-1.2 2.8H83.7a5.3 5.3 0 00-8.7-3.4l-5.5 4.7c-1.2 1-1.9 2.5-1.9 4.1s.7 3.1 1.9 4.1l5.5 4.7a5 5 0 003.5 1.3 5.3 5.3 0 005.3-4.7h33.4c.1 1 .5 2 1.2 2.8a5.6 5.6 0 004.1 1.9c1.2 0 2.4-.4 3.5-1.3l5.5-4.7c1.2-1 1.9-2.5 1.9-4.1s-.8-3-2-4.1zM185.7 31.5a19 19 0 10-31.2 0c-7.5.7-13.3 7.1-13.3 14.8v31.3a15 15 0 008 13.2l4.3 39.5a5.4 5.4 0 005.3 4.8h22.5c2.7 0 5-2.1 5.3-4.8l4.3-39.5c4.8-2.5 8-7.5 8-13.2V46.2c.1-7.6-5.7-14-13.2-14.7zm-15.6-19.2a8.3 8.3 0 110 16.6 8.3 8.3 0 110-16.6zm-18.2 33.9a4 4 0 014.1-4.1h28.2c2.2 0 4.1 1.9 4.1 4.1v31.3a4 4 0 01-4.1 4.1H156a4.2 4.2 0 01-4.1-4.1V46.2zm11.7 78.1l-3.5-31.9H180l-3.5 31.9h-12.9z"/></svg>