<svg version="1.1" id="Laag_1" xmlns="http://www.w3.org/2000/svg" x="0" y="0" viewBox="0 0 185 200" xml:space="preserve"><path class="st0" d="M92.5 60.9A30.3 30.3 0 1092.4.3a30.3 30.3 0 00.1 60.6zM76.6 14.7a22.5 22.5 0 1131.8 31.8 22.5 22.5 0 01-31.8-31.8z"/><path class="st0" d="M82.6 40.4c.8.8 1.8 1.1 2.8 1.1 1 0 2-.4 2.8-1.1l4.3-4.3 4.3 4.3c.8.8 1.8 1.1 2.8 1.1 1 0 2-.4 2.8-1.1a4 4 0 000-5.5L98 30.6l4.3-4.3a4 4 0 000-5.5 4 4 0 00-5.5 0l-4.3 4.3-4.3-4.3a4 4 0 00-5.5 0 4 4 0 000 5.5l4.3 4.3-4.3 4.3a3.8 3.8 0 00-.1 5.5zM183.9 73.8a4 4 0 000-5.5l-22.5-22.5a4 4 0 00-5.5 0l-25.3 25.3a5 5 0 01-6.7.2l-2.3-1.8c-8-6.1-19.1-5.6-26.4 1.1l-.6.6-1.1 1.1-2.5-2.4-.6-.6A20.6 20.6 0 0064 68.2l-2.1 1.7-.2.1a5 5 0 01-6.7-.2L29.6 44.5a4 4 0 00-5.5 0L1.6 67a4 4 0 000 5.5L27.1 98a5 5 0 01.3 6.7l-.5.7-.1.1c-5.9 8-5.3 18.9 1.3 26.1L42.5 146l-6.3 6.3a12.5 12.5 0 00-3.6 8.8 11.6 11.6 0 0010.7 11.6v.3c0 3.2 1.3 6.2 3.6 8.4 2.5 2.4 5.7 3.5 8.9 3.3.3 2.4 1.4 4.8 3.2 6.6 2.2 2.3 5.2 3.6 8.4 3.6 2.4 0 4.8-.7 6.8-2a11.6 11.6 0 0010.7 7.1h.1c3.2 0 6.2-1.2 8.5-3.4 2 1.3 4.4 2.1 6.8 2.1h.1a11.6 11.6 0 0010.7-7.1c2 1.3 4.4 2 6.8 2a11.7 11.7 0 0011.6-10.2c3.2.2 6.5-.9 8.9-3.3 2.3-2.2 3.6-5.2 3.6-8.4v-.3a11.6 11.6 0 0010.7-11.6c0-3.3-1.3-6.5-3.6-8.8l-5-5 13-13a20.4 20.4 0 001.3-26.1l-.1-.1a3 3 0 00-.5-.7 5 5 0 01.3-6.7l25.8-25.6zm-142.2 90a3.7 3.7 0 01-1.2-2.9c0-1.2.5-2.3 1.3-3.2l6.3-6.3 5.8 5.8-6.5 6.5a4 4 0 01-5.7.1zm10.7 11.9a3.7 3.7 0 01-1.2-2.9c0-1.2.5-2.3 1.3-3.2l.4-.4 6.5-6.5 5.8 5.8-7.1 7.1a4 4 0 01-5.7.1zm18.3 10.1c-.8.8-2 1.3-3.2 1.3a4 4 0 01-2.9-1.2 4.2 4.2 0 01.1-5.8l6-6 5.8 5.8-5.8 5.9zm14.4 6.4a4 4 0 01-2.9-1.2 4.1 4.1 0 01-.1-5.6l5.8 5.8c-.8.7-1.8 1-2.8 1zm58.8-29.8a4.2 4.2 0 01-5.8-.1l-26.6-26.6a4 4 0 00-5.5 0 4 4 0 000 5.5l27.1 27.1c.8.8 1.3 2 1.3 3.2a4 4 0 01-1.2 2.9 4.2 4.2 0 01-5.8-.1l-40.5-40.5a4 4 0 00-5.5 0 4 4 0 000 5.5l39.4 39.4a4.2 4.2 0 01.1 5.8c-.7.8-1.7 1.2-2.9 1.2s-2.3-.5-3.2-1.3l-39.3-39.3a4 4 0 00-5.5 0 4 4 0 000 5.5l33.3 33.3a4.2 4.2 0 01.1 5.8c-.7.8-1.7 1.2-2.9 1.2s-2.3-.5-3.2-1.3l-63.4-63.4a12.6 12.6 0 01-.6-16.3l.4-.6v-.1a12.7 12.7 0 00-1.1-16.8L9.9 69.7l17-17 22.6 22.6c4.7 4.7 12.3 5 17.3.7l2-1.6c5-3.8 11.8-3.5 16.3.7l2.9 2.8-30.8 30.8a8.7 8.7 0 000 12.3 15 15 0 0021.1.4l.1-.1 15.2-15.2 50.3 50.3c.8.8 1.3 2 1.3 3.2a5.2 5.2 0 01-1.3 2.8zm9-68.6c-4.6 4.6-5 11.7-1.1 16.8v.1l.4.6c3.8 5 3.5 11.8-.6 16.3l-12.8 12.8L99 100.5l1.8-1.8.8.8c2.4 2.4 5.5 3.6 8.7 3.6 3.2 0 6.3-1.2 8.7-3.6a4 4 0 000-5.5 4 4 0 00-5.5 0 4.5 4.5 0 01-6.4 0l-3.6-3.6a4 4 0 00-5.5 0l-25.2 25.2a7.3 7.3 0 01-10.2-.2c-.3-.3-.3-.9 0-1.3l37.8-37.8a12.7 12.7 0 0116.3-.7l2 1.6c5 4.3 12.6 4.1 17.3-.7l22.6-22.6 17 17-22.7 22.9z"/><path class="st0" d="M99.8 124.5a4 4 0 00-3.9-2.4 4 4 0 00-3.5 2.9 4 4 0 001.5 4.2 4 4 0 004.5.1 4 4 0 001.4-4.8z"/></svg>