<svg xmlns="http://www.w3.org/2000/svg" viewBox="0 0 200 190"><path d="M196.6 84.3l-16.9-15.4V18a6 6 0 00-5.9-5.9h-40.6a6 6 0 00-5.9 5.9v3.3L107.1 2.7a10.2 10.2 0 00-13.8 0L3.7 84.3a10.2 10.2 0 006.8 17.8h14.3v81.8a6 6 0 005.9 5.9h49.1a6 6 0 005.9-5.9v-49.7h28.9v49.7a6 6 0 005.9 5.9h49.1a6 6 0 005.9-5.9v-81.8h14.3a10.2 10.2 0 006.8-17.8zm-27 6.1a6 6 0 00-5.9 5.9V178h-37.4v-49.7a6 6 0 00-5.9-5.9H79.9a6 6 0 00-5.9 5.9V178H36.6V96.2a6 6 0 00-5.9-5.9H14.5l85.7-78.1 29.2 26.6c1.7 1.6 4.2 2 6.3 1 2.1-.9 3.5-3 3.5-5.4V23.8H168v47.7c0 1.7.7 3.2 1.9 4.3l15.9 14.5-16.2.1z"/></svg>