<svg version="1.1" id="Laag_1" xmlns="http://www.w3.org/2000/svg" x="0" y="0" viewBox="0 0 198 159" xml:space="preserve"><path class="st0" d="M52.4 19.9c5.4 0 9.9-4.4 9.9-9.8S57.9.3 52.4.3s-9.9 4.4-9.9 9.8 4.4 9.8 9.9 9.8zm0-12.6c1.6 0 2.8 1.3 2.8 2.8 0 1.5-1.3 2.8-2.8 2.8a2.8 2.8 0 01-2.8-2.8c-.1-1.5 1.2-2.8 2.8-2.8zM98.9 36.8a14 14 0 100-28.2 14 14 0 000 28.2zm0-21.1c3.9 0 7.1 3.1 7.1 7s-3.2 7-7.1 7c-3.9 0-7.1-3.1-7.1-7s3.2-7 7.1-7zM194.2 80.3h-19.9l-18.5-15.4c-4.4-3.7-10-5.7-15.8-5.7H120.1c-1.9 0-3.8.4-5.5 1.1a16.3 16.3 0 00-25-8.7c-3.8-4-9.8-5.9-15.4-4.7A18.2 18.2 0 0056.6 34C47 34 39 41.4 38.3 50.8a24.8 24.8 0 00-25.5 24.6c0 2.7.5 5.5 1.4 8A20.7 20.7 0 00.1 102.8c0 4.4 1.4 8.6 3.9 12a30.3 30.3 0 00-3.9 17.5c0 16 10.8 26.7 26.8 26.7 9 0 15.7-2.2 20.6-6.6 5 4.7 13.1 5.8 19.2 2.4H105l14.4 2.4c7.3 1.2 14.7 1.8 22.1 1.8h1.7l1.7-.1.9-.1c7.3-.3 14.5-2 21.2-5l.8-.3 1.6-.7 1.5-.7 3.2-1.6h20.3c1.9 0 3.5-1.6 3.5-3.5V83.8c-.2-1.9-1.8-3.5-3.7-3.5zM47.8 143.4c-1.2-.1-2.3.5-3.1 1.5-3.4 4.7-9.2 7.1-17.8 7.1-12 0-19.8-7.7-19.8-19.6 0-6.8.7-11.6 4-15.1a3.6 3.6 0 00-.1-5c-2.5-2.5-4-5.9-4-9.4 0-6.9 5.4-12.7 12.3-13.3 1.2-.1 2.3-.8 2.8-1.9.6-1.1.5-2.4-.1-3.4a17.5 17.5 0 0118.9-25.9c1.1.2 2.3-.1 3.2-.9.8-.8 1.2-2 1-3.2l-.2-2A12 12 0 0156.6 41c6.1 0 11.1 4.9 11.3 10.9 0 1.2.7 2.4 1.8 3 1.1.6 2.4.6 3.5 0 1.4-.8 3-1.2 4.6-1.2a9 9 0 018.1 4.9 3.5 3.5 0 002.8 1.9c1.2.1 2.3-.4 3.1-1.3a9.2 9.2 0 017.2-3.4c5.1 0 9.2 4.1 9.2 9.1l-.1 1.3a13.6 13.6 0 00-.1 14.1H61.5c-5.8 0-10.6 4.7-10.6 10.6v2.7c0 1.2.2 2.4.6 3.5h-6.9c-5.8 0-10.6 4.7-10.6 10.6v2.7c0 5.3 4 9.8 9.1 10.5-.4 1.2-.6 2.4-.6 3.6v2.7a10.6 10.6 0 009.1 10.5c-.4 1.1-.6 2.4-.6 3.6v2.7l.2 1.5-.4-.5a4.7 4.7 0 00-3-1.6zm142.9.1H173c-.5 0-1.1.1-1.6.4l-3.9 1.9c-7.9 3.9-16.8 6-25.6 6.1-7.7-.1-15.4-.7-23-2l-13.1-2.2H61.5a3.5 3.5 0 01-3.5-3.5v-2.7a4 4 0 011-2.5c.7-.7 1.5-1 2.5-1h48c1.9 0 3.5-1.6 3.5-3.5s-1.6-3.5-3.5-3.5H53.1a4 4 0 01-2.5-1c-.7-.7-1-1.6-1-2.5v-2.7a4 4 0 011-2.5c.7-.7 1.6-1 2.5-1h56.4c1.9 0 3.5-1.6 3.5-3.5s-1.6-3.5-3.5-3.5H44.6a3.5 3.5 0 01-3.5-3.5v-2.7c0-1.9 1.6-3.5 3.5-3.5h64.9c1.9 0 3.5-1.6 3.5-3.5s-1.6-3.5-3.5-3.5h-48a4 4 0 01-2.5-1c-.7-.7-1-1.6-1-2.5v-2.7c0-1.9 1.6-3.5 3.5-3.5h69.2c1.9 0 3.5-1.6 3.5-3.5s-1.6-3.5-3.5-3.5h-10.6l-1.6-.2-.2-.1-1.2-.5c-.7-.3-1.4-.8-1.9-1.3a7.1 7.1 0 01-2.1-5c0-1.5.5-2.9 1.4-4.1l.7-.8a7.1 7.1 0 015-2.1h18.3c5.1 0 10.1 1.8 14 5L170.8 87l1 .6h.1l1.2.2h17.6v55.7z"/></svg>