<svg xmlns="http://www.w3.org/2000/svg" viewBox="0 0 1920 1080"><rect x="0.27" y="-0.45" width="1919.73" height="1080.45" style="fill:#3a3a3a"/><rect x="0.27" y="-0.45" width="770.23" height="1080.45" style="fill:none"/><rect x="-1244.81" y="-479.42" width="2569.9" height="139.5" transform="translate(301.44 -91.61) rotate(-45)" style="fill:#caa64b"/><rect x="-1114.7" y="-349.31" width="2569.9" height="139.5" transform="translate(247.55 38.5) rotate(-45)" style="fill:#fff"/><rect x="-984.6" y="-219.2" width="2569.9" height="139.5" transform="translate(193.65 168.61) rotate(-45)" style="fill:#caa64b"/><rect x="-854.49" y="-89.1" width="2569.9" height="139.5" transform="translate(139.76 298.72) rotate(-45)" style="fill:#fff"/><rect x="-724.38" y="41.01" width="2569.9" height="139.5" transform="translate(85.87 428.82) rotate(-45)" style="fill:#caa64b"/><rect x="-594.27" y="171.12" width="2569.9" height="139.5" transform="translate(31.98 558.93) rotate(-45)" style="fill:#fff"/><rect x="-464.16" y="301.23" width="2569.9" height="139.5" transform="translate(-21.92 689.04) rotate(-45)" style="fill:#caa64b"/><rect x="-334.06" y="431.33" width="2569.9" height="139.5" transform="translate(-75.81 819.15) rotate(-45)" style="fill:#fff"/><rect x="-203.95" y="561.44" width="2569.9" height="139.5" transform="translate(-129.7 949.25) rotate(-45)" style="fill:#caa64b"/><rect x="-73.84" y="691.55" width="2569.9" height="139.5" transform="translate(-183.59 1079.36) rotate(-45)" style="fill:#fff"/><rect x="56.13" y="822.1" width="2569.9" height="139.5" transform="translate(-237.84 1209.5) rotate(-45)" style="fill:#caa64b"/><rect x="186.23" y="952.21" width="2569.9" height="139.5" transform="translate(-291.73 1339.61) rotate(-45)" style="fill:#fff"/><rect x="316.34" y="1082.32" width="2569.9" height="139.5" transform="translate(-345.63 1469.72) rotate(-45)" style="fill:#caa64b"/><rect x="446.45" y="1212.42" width="2569.9" height="139.5" transform="translate(-399.52 1599.82) rotate(-45)" style="fill:#fff"/><rect x="576.56" y="1342.53" width="2569.9" height="139.5" transform="translate(-453.41 1729.93) rotate(-45)" style="fill:#caa64b"/></svg>