<svg xmlns="http://www.w3.org/2000/svg" viewBox="0 0 456.46 439.1"><path d="M215.78,216.25h-.44a.82.82,0,0,0,.22.6.74.74,0,0,0,.55.24v-.47h0v.47a.84.84,0,0,0,.85-.78h-.44a.28.28,0,0,0-.17-.25c0,.31-.41.14-.56,0A.62.62,0,0,0,215.78,216.25Z" transform="translate(1.4 60.75)" style="fill:#caa64b"/><path d="M145.15,323.68h-.37C144.16,324.06,145.34,324.67,145.15,323.68Z" transform="translate(1.4 60.75)" style="fill:#caa64b"/><path d="M130.76,125.83c.31-1.25-.12.48,0,0Z" transform="translate(1.4 60.75)" style="fill:#caa64b"/><path d="M218.9,170.86a1.85,1.85,0,0,0,.55-1.22,1.35,1.35,0,0,0-.56-1.07,2.34,2.34,0,0,0-2.12-.28l-.27.54c.31,1.32,1.07,2.12,2.08,2.17Z" transform="translate(1.4 60.75)" style="fill:#caa64b"/><path d="M160.85,168.81a.85.85,0,0,0-.31-.66l-.34.19a.81.81,0,0,0-.61,0,1.26,1.26,0,0,0-.66,1.17h0l.33.44a1.36,1.36,0,0,0,1.17-.32A1.16,1.16,0,0,0,160.85,168.81Z" transform="translate(1.4 60.75)" style="fill:#caa64b"/><path d="M123.71,164.53l-.44-.52c-.12,0-.18,0-.31-.13l-.65.29,0,.13a.65.65,0,0,0-.36.48l.31.54.16.05a1,1,0,0,0,1,0A1,1,0,0,0,123.71,164.53Z" transform="translate(1.4 60.75)" style="fill:#caa64b"/><path d="M259.06,240a.49.49,0,0,1,.43.06,1.28,1.28,0,0,0,.85.14l.25-.16a5.63,5.63,0,0,0,.36-.54,1.83,1.83,0,0,1,.38-.52h0l.42-.75c-.7-.86-1.43-1.21-2-1-.44.17-1,.69-1.12,2.28Z" transform="translate(1.4 60.75)" style="fill:#caa64b"/><path d="M237.48,175.62l.09,0,.51-.45v-.81l-.28-.43a.93.93,0,0,0-.92.1,1.07,1.07,0,0,0-.4.86.9.9,0,0,0,.75.94Z" transform="translate(1.4 60.75)" style="fill:#caa64b"/><path d="M375.28,188a1.73,1.73,0,0,0-1.64-.49l-.35.42c0,.15,0,.29,0,.42a1.64,1.64,0,0,0,.32,1.14l.21.13c1.1.26,1.41-.56,1.58-1l-.37-.25.39.17Z" transform="translate(1.4 60.75)" style="fill:#caa64b"/><path d="M297.89,190.86a1.57,1.57,0,0,1,.1-.27.27.27,0,0,1-.25.09l.68-.45a1.93,1.93,0,0,0-1.4-1.32h-.2a1.26,1.26,0,0,0-1,1.27,1.51,1.51,0,0,0,.43,1.06,1.42,1.42,0,0,0,1.08.41l.28-.14A1.73,1.73,0,0,0,297.89,190.86Z" transform="translate(1.4 60.75)" style="fill:#caa64b"/><path d="M129.34,189.34c0-.85-.74-1-1.12-1.05l-.5.45v.81l.42.46h.75l.41-.36A1.88,1.88,0,0,0,129.34,189.34Z" transform="translate(1.4 60.75)" style="fill:#caa64b"/><path d="M84.07,192.5l-.42-.57a.48.48,0,0,1-.25-.08,1.21,1.21,0,0,0-1-.11l-.32.46a1.17,1.17,0,0,0,1.15,1.26l.5-.46A.93.93,0,0,0,84.07,192.5Z" transform="translate(1.4 60.75)" style="fill:#caa64b"/><path d="M285.79,189.27v-.08a.66.66,0,0,0,.69-.59l-.38-.36a.22.22,0,0,0,0-.08l.08.07a2.09,2.09,0,0,0,0-.25.88.88,0,0,0-.51-.86l-.78.62V188a2.42,2.42,0,0,0-1.54,2.24,2.69,2.69,0,0,0,.28,1.19l.39.26C285.23,191.59,285.79,190.38,285.79,189.27Z" transform="translate(1.4 60.75)" style="fill:#caa64b"/><path d="M202.57,158.46a.94.94,0,0,0-.26-.67.92.92,0,0,0-.75-.25l-.18.06a1.37,1.37,0,0,0-.59,1.27V159l.27.39a1,1,0,0,0,1.07-.08A1.12,1.12,0,0,0,202.57,158.46Z" transform="translate(1.4 60.75)" style="fill:#caa64b"/><path d="M129.76,142.13a1.22,1.22,0,0,0,.31-.81,1.66,1.66,0,0,0-.78-1.31l-.46,0a1.22,1.22,0,0,0-.49,1,1.29,1.29,0,0,0,1,1.26Z" transform="translate(1.4 60.75)" style="fill:#caa64b"/><path d="M219.41,137a1.49,1.49,0,0,0,.73-1.27,1.47,1.47,0,0,0-.27-.84l-.39-.18a1.67,1.67,0,0,0-1.5,1.88h0l.2.38A1.12,1.12,0,0,0,219.41,137Z" transform="translate(1.4 60.75)" style="fill:#caa64b"/><path d="M271.64,169.09l-.35-.67a1.43,1.43,0,0,0-1.14.27.92.92,0,0,0-.24.86l.35.39A1.19,1.19,0,0,0,271.64,169.09Z" transform="translate(1.4 60.75)" style="fill:#caa64b"/><path d="M61.1,140A2,2,0,0,0,63,138.07h0a1.65,1.65,0,0,0-.34-1l-.15-.13a2.54,2.54,0,0,0-.82-.21,1.67,1.67,0,0,1-.61-.16l-.66.47c.07.36.12.43-.5.7l-.26.43C59.71,139.54,60.44,140,61.1,140Z" transform="translate(1.4 60.75)" style="fill:#caa64b"/><path d="M1.87,132.8l.44-.5c-.15-1.76-1.14-1.89-2.09-2l-.15,0-.48.5a3.21,3.21,0,0,1-.33,1.79l.53.63a.43.43,0,0,1,.13-.05h0l.08.2.41.27a1.37,1.37,0,0,0,1-.54C1.56,132.88,1.64,132.79,1.87,132.8Z" transform="translate(1.4 60.75)" style="fill:#caa64b"/><path d="M244.27,138.88a2.64,2.64,0,0,0,0-.38l-.7-.39a.86.86,0,0,0-.73-.19l-.35.58a.93.93,0,0,0-.36,1l.12.23a1.24,1.24,0,0,0,1.41.36A1.22,1.22,0,0,0,244.27,138.88Z" transform="translate(1.4 60.75)" style="fill:#caa64b"/><path d="M120.13,146.48a1.77,1.77,0,0,0,.41-1.12,2,2,0,0,0,0-.24l0-.15a3,3,0,0,0-1.08-1.14,3.39,3.39,0,0,1-.51-.41l-.69.18a2.86,2.86,0,0,1-.35.64,2.69,2.69,0,0,0-.6,2l.4.42a1,1,0,0,1,.44.13,3.3,3.3,0,0,0,1.46.27l.37-.27A1.61,1.61,0,0,1,120.13,146.48Z" transform="translate(1.4 60.75)" style="fill:#caa64b"/><path d="M115.73,234.63l.69-.33v-.09a.85.85,0,0,0-.25-.64.9.9,0,0,0-.81-.16L115,234a.72.72,0,0,0-.09.33.56.56,0,0,0,.42.55l.55-.42C115.84,234.55,115.75,234.6,115.73,234.63Z" transform="translate(1.4 60.75)" style="fill:#caa64b"/><path d="M186.2,212.74l.05-.09-.35-.69a1,1,0,0,0-.63.17l.06,0-.61.31V213l.39.46A1.09,1.09,0,0,0,186.2,212.74Z" transform="translate(1.4 60.75)" style="fill:#caa64b"/><path d="M338.78,214.59c0-.31-.19-1.12-1-1l-.36.34a1,1,0,0,0,.61,1.25l.14.07.63-.49Z" transform="translate(1.4 60.75)" style="fill:#caa64b"/><path d="M88,223.3a.6.6,0,0,0,.36-.44l-.35-.57c.09,0,.16.09.17.06a1.28,1.28,0,0,1,0-.19l-.3-.47a.82.82,0,0,0-.76.16,1.29,1.29,0,0,0-.46.93.59.59,0,0,0,.48.62l.3-.24A.57.57,0,0,0,88,223.3Z" transform="translate(1.4 60.75)" style="fill:#caa64b"/><path d="M61.42,214a.87.87,0,0,0-.23-.63.68.68,0,0,0-.52-.21l-.45.64a1.13,1.13,0,0,0-.14,1l.39.33a.8.8,0,0,0,.62-.26A1.21,1.21,0,0,0,61.42,214Z" transform="translate(1.4 60.75)" style="fill:#caa64b"/><path d="M67.08,218.24a1.58,1.58,0,0,0,.6-1.24,1.6,1.6,0,0,0-.05-.42l-.32-.36a1,1,0,0,1-.21-.12,1.14,1.14,0,0,0-.85-.3l-.36.28a1.15,1.15,0,0,1-.18.29,1.69,1.69,0,0,0-.41,1.11l0,.19a.76.76,0,0,0,.58.54.54.54,0,0,0,.49.52l.42-.21A1.26,1.26,0,0,1,67.08,218.24Z" transform="translate(1.4 60.75)" style="fill:#caa64b"/><path d="M111.15,133.23a1,1,0,0,0,.25-.59.57.57,0,0,0-.53-.57l-.47.47a.29.29,0,0,1,0-.14,1.06,1.06,0,0,1-.1.12.89.89,0,0,0-.33.63.65.65,0,0,0,.51.62l.54-.37A1.06,1.06,0,0,1,111.15,133.23Z" transform="translate(1.4 60.75)" style="fill:#caa64b"/><path d="M131.29,229.46l0,.4a1.34,1.34,0,0,0,1.64.68,2.06,2.06,0,0,0,1.39-1.7l-.21-.44a1.91,1.91,0,0,0-1.77-.27A2,2,0,0,0,131.29,229.46Z" transform="translate(1.4 60.75)" style="fill:#caa64b"/><path d="M255,235.28a1.11,1.11,0,0,1-.11-.2,1,1,0,0,0-1.07-.66l-.27.17a1,1,0,0,1-.18.1,1,1,0,0,0-.66,1h0l.34.43c1.06.21,1.78.31,2.11-.19Z" transform="translate(1.4 60.75)" style="fill:#caa64b"/><path d="M186.53,197.53a1.1,1.1,0,0,0,1.26-.09l.21-.4v-1.61l-.34-.45a1.37,1.37,0,0,0-1.29.24A1.58,1.58,0,0,0,186.53,197.53Z" transform="translate(1.4 60.75)" style="fill:#caa64b"/><path d="M70.29,230.48h.5l.41-.76a1.11,1.11,0,0,0,.19-.6l0-.19-.53-.37a2.24,2.24,0,0,1-.59.08.91.91,0,0,0-.71.24l.23.8s-.08,0,0-.17c0,0,0,.09-.06.13-.15.28-.19.83.19,1l.59-.36A.27.27,0,0,1,70.29,230.48Z" transform="translate(1.4 60.75)" style="fill:#caa64b"/><path d="M181.34,199.32l.35-.11a1.2,1.2,0,0,0,.27-.59l.43-.35v-.09a2.88,2.88,0,0,0-.28-1.18l-.12-.31-.43-.31a2.1,2.1,0,0,0-.79.24,1.09,1.09,0,0,1-.51.16l-.39.39A1.65,1.65,0,0,0,181.34,199.32Z" transform="translate(1.4 60.75)" style="fill:#caa64b"/><path d="M74.18,197.3l-.2-.25s0,0,0,.09l-.45-.56c-.79.08-.84.56-.76,1l.47.35h.13A.7.7,0,0,0,74.18,197.3Z" transform="translate(1.4 60.75)" style="fill:#caa64b"/><path d="M145.22,205.13a1.3,1.3,0,0,0-.81-1.21l-.63.53a.91.91,0,0,0-.35,1l.41.36h.94l.42-.4A2.45,2.45,0,0,0,145.22,205.13Z" transform="translate(1.4 60.75)" style="fill:#caa64b"/><path d="M27.51,197.34a.83.83,0,0,0,1-.48l0-.25a1.25,1.25,0,0,0-.64-1.21,1.33,1.33,0,0,0-1.37.29l.25.8c-.07,0-.19-.15-.19-.37a1,1,0,0,1-.07.15,1.28,1.28,0,0,0-.18.56.67.67,0,0,0,.58.67l.41-.17A.82.82,0,0,1,27.51,197.34Z" transform="translate(1.4 60.75)" style="fill:#caa64b"/><path d="M100.52,209.64a.84.84,0,0,0-.67-.86c-.27,0-.62.15-.72.72l.42.55a.37.37,0,0,1-.18-.08.69.69,0,0,0,.46.47l.35-.09A.9.9,0,0,0,100.52,209.64Z" transform="translate(1.4 60.75)" style="fill:#caa64b"/><path d="M81.36,209.36h0c0-.46-.33-1-1.23-1.05l-.44.5a.64.64,0,0,1-.12.33l0,.47c.43.82,1,.74,1.15.69A1,1,0,0,0,81.36,209.36Z" transform="translate(1.4 60.75)" style="fill:#caa64b"/><path d="M333.69,206.11l.46.29s0,0,.13,0a1,1,0,0,0,.58.16l.4-.54s0,0,0-.12a1.18,1.18,0,0,0,.15-.56l-.42-.58a1,1,0,0,0-.45-.32l-.52.57c0-.05,0-.11,0-.1A.85.85,0,0,0,333.69,206.11Z" transform="translate(1.4 60.75)" style="fill:#caa64b"/><path d="M152.11,207.36v0a.73.73,0,0,0-.22-.51.56.56,0,0,0-.46-.11l-.41.45a1,1,0,0,0-.3.49l.41.58h.56l.42-.46Z" transform="translate(1.4 60.75)" style="fill:#caa64b"/><path d="M158.84,207.45a2.43,2.43,0,0,1,.21.37,1.37,1.37,0,0,0,1.47,1l.34-.26a2.72,2.72,0,0,0,.31-1A1,1,0,0,0,161,207a.84.84,0,0,1-.12-.49l-.37-.43c-1.27-.19-1.66.5-1.77.92Z" transform="translate(1.4 60.75)" style="fill:#caa64b"/><path d="M299.16,160.83l.22-.43c0-.13,0-.25,0-.37,0-.39.06-.48.08-.5l-.13-.74-.32-.16a3.18,3.18,0,0,0-1.53-.49l-.3.13a1.73,1.73,0,0,0-.54,1.21,1.59,1.59,0,0,0,.75,1.34A1.68,1.68,0,0,0,299.16,160.83Z" transform="translate(1.4 60.75)" style="fill:#caa64b"/><path d="M188.52,71.54a.79.79,0,0,0-.21-.54.94.94,0,0,0-.75-.25l-.39.62a2,2,0,0,1,0,.23,1.08,1.08,0,0,0,.17.91.57.57,0,0,0,.47.17l.26-.12A1.65,1.65,0,0,0,188.52,71.54Z" transform="translate(1.4 60.75)" style="fill:#caa64b"/><path d="M166.37,88.47l-.06-.13-.72-.25c-.05.06-.11.1-.16.15a1.33,1.33,0,0,0-.51,1.49l.41.35h.94l.42-.49A2.26,2.26,0,0,0,166.37,88.47Z" transform="translate(1.4 60.75)" style="fill:#caa64b"/><path d="M5.21,97.33v-.17c0-.2,0-.78-.5-.91l-.52.38a.26.26,0,0,1,.14-.19.75.75,0,0,1-.26,0l-.45.46v.61l.43.46H4.8l.42-.51A.62.62,0,0,1,5.21,97.33Z" transform="translate(1.4 60.75)" style="fill:#caa64b"/><path d="M225.34,68l-.11-.46a1.16,1.16,0,0,0-1.12-.29.76.76,0,0,0-.33.94l.38.34a.61.61,0,0,1,.24.07.61.61,0,0,0,.56,0A.89.89,0,0,0,225.34,68Z" transform="translate(1.4 60.75)" style="fill:#caa64b"/><path d="M263.75,121.14l-.37.81a1.24,1.24,0,0,0,1.36.11,1.51,1.51,0,0,0,.82-1.26l-.27-.45a1,1,0,0,0-1.52.65C263.75,121.06,263.71,121.16,263.75,121.14Z" transform="translate(1.4 60.75)" style="fill:#caa64b"/><path d="M21.48,105.6l-.32-.45a.89.89,0,0,0-1.16.67.34.34,0,0,1-.06.15l.37.7h.75l.42-.46Z" transform="translate(1.4 60.75)" style="fill:#caa64b"/><path d="M36.5,34.29l-.43-.45a.47.47,0,0,1-.32-.13L35.1,34a1.06,1.06,0,0,1-.1.17,1,1,0,0,0-.25.59.58.58,0,0,0,.51.57l.26.41h.56l.42-.46Z" transform="translate(1.4 60.75)" style="fill:#caa64b"/><path d="M142,120.56s0-.06.06-.16a1.26,1.26,0,0,0,.17-.63,1.82,1.82,0,0,0,0-.32l-.17-.27a1.09,1.09,0,0,0-1.19,0,1.6,1.6,0,0,0-.79,1.44h0l.43.44a.63.63,0,0,1,.27.07,1.2,1.2,0,0,0,.94.11Z" transform="translate(1.4 60.75)" style="fill:#caa64b"/><path d="M167.81,108.92h-.43s0,0,0-.08c-.39-.12-.54-.51-1.12-.4a.87.87,0,0,0-.31.68h-.45a1.27,1.27,0,0,0,1.22,1.25,1,1,0,0,0,.78-.39A1.71,1.71,0,0,0,167.81,108.92Z" transform="translate(1.4 60.75)" style="fill:#caa64b"/><path d="M190.06,116.45a1.41,1.41,0,0,0,0-.2l-.37-.39c-1-.12-1.18.52-1.22.81l.12.37a.84.84,0,0,0,1,.26A.86.86,0,0,0,190.06,116.45Z" transform="translate(1.4 60.75)" style="fill:#caa64b"/><path d="M.54-8.15a1.22,1.22,0,0,0,.58-1c0-.05,0-.11,0-.17L1-9.64A1.22,1.22,0,0,0-.25-10,1.71,1.71,0,0,0-1.4-8.85l.21.56a1.66,1.66,0,0,1,.3.22,2,2,0,0,0,.71.42l.52-.29C.36-8,.43-8.06.54-8.15Z" transform="translate(1.4 60.75)" style="fill:#caa64b"/><path d="M261.4,15.41a3.14,3.14,0,0,0-.17-1l-.56-.27a3,3,0,0,1-.94,0l-.56.14a2.71,2.71,0,0,0-.4,1.43,1.69,1.69,0,0,0,1,1.7H260A2,2,0,0,0,261.4,15.41Z" transform="translate(1.4 60.75)" style="fill:#caa64b"/><path d="M82.1-10.24c0-.09,0-.16,0-.11A1.11,1.11,0,0,0,82-9.27l.33.22h.12l.28.39c1,0,1.33-.87,1.51-1.47l-.38-.2.4.15-.14-.51c-.59-.5-1.53-.19-1.87-.08l.1.89h0A.39.39,0,0,1,82.1-10.24Z" transform="translate(1.4 60.75)" style="fill:#caa64b"/><path d="M15.13-25.69v0a.71.71,0,0,0-.23-.52.52.52,0,0,0-.45-.1.66.66,0,0,0-.87-.16l-.23.44a1.39,1.39,0,0,0,.39.95,1.29,1.29,0,0,0,1,.29l.39-.46Z" transform="translate(1.4 60.75)" style="fill:#caa64b"/><path d="M19.24-13.71c0-.14,0-.28,0-.4,0-1.32-.74-1.52-1.18-1.52l-.32.15a4.27,4.27,0,0,1-.37.33,2,2,0,0,0-.84,1l.05.4a1.49,1.49,0,0,0,.95.71,2,2,0,0,0,1.51-.37Z" transform="translate(1.4 60.75)" style="fill:#caa64b"/><path d="M132.41.66a.85.85,0,0,0,.68-.25,1.12,1.12,0,0,0,.3-.79,1.08,1.08,0,0,0-.29-.77l-.2-.11a.85.85,0,0,0-.76.17,1.26,1.26,0,0,0,0,1.62Z" transform="translate(1.4 60.75)" style="fill:#caa64b"/><path d="M127.74,13.49l.1.18a.68.68,0,0,0,.65.28c.43-.07.66-.56.77-.79l-.42-.67h-.21a.89.89,0,0,0-.76.17A.81.81,0,0,0,127.74,13.49Z" transform="translate(1.4 60.75)" style="fill:#caa64b"/><path d="M40,14.7l0-.18a1.59,1.59,0,0,1,0-.23,5.15,5.15,0,0,0,.12-1,2.17,2.17,0,0,0-.21-1l-.23-.21a1.43,1.43,0,0,0-1.48.14,1.9,1.9,0,0,1-.61.25l-.35.49a2.43,2.43,0,0,0,.44,1.3,4.24,4.24,0,0,1,.35.66l.66.13a.92.92,0,0,1,.26,0C39.19,15.17,39.79,15.32,40,14.7Z" transform="translate(1.4 60.75)" style="fill:#caa64b"/><path d="M270.65,7.59a.66.66,0,0,0,.55.3,1,1,0,0,0,.91-1,.93.93,0,0,0-.68-.87l-.35.33.11,0-.16.07-.16.15a.26.26,0,0,1,.07-.12l-.44.17A1.44,1.44,0,0,0,270.65,7.59Z" transform="translate(1.4 60.75)" style="fill:#caa64b"/><path d="M148.29,128.57a1.35,1.35,0,0,1,.26-.33l-.38-.84a.37.37,0,0,1,.26.36.85.85,0,0,0,.06-.31.65.65,0,0,0-.69-.66l-.25.06-.2.12a1.67,1.67,0,0,0-.93,2l.33.35A1.31,1.31,0,0,0,148.29,128.57Z" transform="translate(1.4 60.75)" style="fill:#caa64b"/><path d="M157,123.76l-.18-.33a1.66,1.66,0,0,0-1.84-.06,1.53,1.53,0,0,0-.83,1.87l.1.14a1.67,1.67,0,0,0,1.85.25A1.79,1.79,0,0,0,157,124,1.7,1.7,0,0,0,157,123.76Z" transform="translate(1.4 60.75)" style="fill:#caa64b"/><path d="M139.59,127.71l-.11-.36a.9.9,0,0,0-1.11-.26,1.64,1.64,0,0,0-1,1.26.59.59,0,0,0,.23.49h.48a1.3,1.3,0,0,1,.26,0A1.16,1.16,0,0,0,139.59,127.71Z" transform="translate(1.4 60.75)" style="fill:#caa64b"/><path d="M108.92,126a1.76,1.76,0,0,0-.49-1.26h-.57l-.47.41a2.42,2.42,0,0,0-1.16,1.75,1.74,1.74,0,0,0,.24.85l.28.21a1.7,1.7,0,0,0,1.49-.37A2.12,2.12,0,0,0,108.92,126Z" transform="translate(1.4 60.75)" style="fill:#caa64b"/><path d="M117.23,125.19l.54,0a2.14,2.14,0,0,0,.56-1.32.93.93,0,0,0-.45-.84l-.43,0-.11,0a1.24,1.24,0,0,0-1,1.11l.36.5c.09,0,.14.07.27.23A3.71,3.71,0,0,0,117.23,125.19Z" transform="translate(1.4 60.75)" style="fill:#caa64b"/><path d="M254.45,133.78l-.19-.6a2.05,2.05,0,0,0,.08-.44l-.4-.49c-.39,0-1.32-.08-1.38.83l.42.47a1.93,1.93,0,0,1,.16.19c.14.21.34.5.69.48A.78.78,0,0,0,254.45,133.78Z" transform="translate(1.4 60.75)" style="fill:#caa64b"/><path d="M134.85,133.18a1.67,1.67,0,0,0,.27-.89c0-.08,0-.16,0-.26l-.15-.29a1.78,1.78,0,0,0-.63-.29,1.21,1.21,0,0,1-.31-.11l-.65.18a2.59,2.59,0,0,1-.18.29,1.6,1.6,0,0,0-.41,1.11l.6.52a.9.9,0,0,0,1,.33l.3-.33A1,1,0,0,1,134.85,133.18Z" transform="translate(1.4 60.75)" style="fill:#caa64b"/><path d="M142.79,132.93a2.93,2.93,0,0,1,.39-.47l-.37-.81c-.18,0-.18,0-.32-.14a1.09,1.09,0,0,0-.61-.46l-.43.16a1.67,1.67,0,0,1-.44.36,1.72,1.72,0,0,0-1,1.54l.09.27a1.41,1.41,0,0,0,1.07.74C141.89,134.13,142.38,133.46,142.79,132.93Z" transform="translate(1.4 60.75)" style="fill:#caa64b"/><path d="M142.92,131.72a1,1,0,0,0,1.07-.06,1.25,1.25,0,0,0,.48-1,1.1,1.1,0,0,0-.3-.78.92.92,0,0,0-.72-.25c-.36,0-.79.24-.79,1.17v.51Z" transform="translate(1.4 60.75)" style="fill:#caa64b"/><path d="M172.64,129.76l.19-.44a.69.69,0,0,0-.63-.68c-.29,0-.66.16-.74.77l.36.52A.94.94,0,0,0,172.64,129.76Z" transform="translate(1.4 60.75)" style="fill:#caa64b"/><path d="M254.78,128.11a3.81,3.81,0,0,0-.69-1.72l-.48.09,0-.16a.47.47,0,0,1,.29.05,1.15,1.15,0,0,0-.28-.32l-.6.16-.06.1a1.13,1.13,0,0,1-.31-.46l-.34,0v0l-.18,0,0-.13a.45.45,0,0,1,.29,0,1.05,1.05,0,0,0-.28-.33l-.65.36c0,.08,0,.1-.31.23a1.22,1.22,0,0,0-.8,1.53l.45.35h.09V128l.42.5a1,1,0,0,0,.9-.39.15.15,0,0,0,0,.07l.31.5c1.1.32,1.67.34,2,.05A.79.79,0,0,0,254.78,128.11Z" transform="translate(1.4 60.75)" style="fill:#caa64b"/><path d="M221.43,125.21a1.46,1.46,0,0,0-.18,1.91l.24.16a1.09,1.09,0,0,0,1-.21,1.63,1.63,0,0,0,.51-1.22,1.28,1.28,0,0,0-.17-.67l-.25-.2A1.28,1.28,0,0,0,221.43,125.21Z" transform="translate(1.4 60.75)" style="fill:#caa64b"/><path d="M250.41,132.35l-.2-.44c-.38-.24-.24-.78-.08-1.38a4,4,0,0,0,.19-1c0-.84-.54-1.27-1.63-1.29l-.3.68a1.21,1.21,0,0,1-.63.18l-.62.45a1.26,1.26,0,0,0,.16.64,1.1,1.1,0,0,1-.06-.16l.32.75h.58a1.29,1.29,0,0,0,.19.39.43.43,0,0,0,0,.07.84.84,0,0,0-.25.82,2.89,2.89,0,0,1,0,.58l.13.46a1.4,1.4,0,0,0,1.48.21A1.12,1.12,0,0,0,250.41,132.35Z" transform="translate(1.4 60.75)" style="fill:#caa64b"/><path d="M247.07,132.92a.86.86,0,0,0-.61.27,1,1,0,0,0-.26.69l.45,0s0,0,0,.06h.75c0-.06,0-.09,0-.15h.46A.77.77,0,0,0,247.07,132.92Z" transform="translate(1.4 60.75)" style="fill:#caa64b"/><path d="M260.34,125.17c-.56,0-1.48-.1-1.61.8l.41.52c.31,0,.4.17.61.65a2.41,2.41,0,0,0,.15.33l.36.24a1.46,1.46,0,0,0,1.55-1.38l-.52-.53h0l-.29-.62A3.27,3.27,0,0,1,260.34,125.17Z" transform="translate(1.4 60.75)" style="fill:#caa64b"/><path d="M271.81,128.14l.44.38a1.85,1.85,0,0,0,1.42-.56l-.22-.75a.92.92,0,0,1-.21-.13,1.2,1.2,0,0,0-.85-.29l-.38.35a.69.69,0,0,1-.06.13A1.23,1.23,0,0,0,271.81,128.14Z" transform="translate(1.4 60.75)" style="fill:#caa64b"/><path d="M150.58,126.09a.48.48,0,0,1,.25.08,1.31,1.31,0,0,0,1,.11l.32-.45v-1.41l-.37-.46a1.41,1.41,0,0,0-1.22.31,1.6,1.6,0,0,0-.37,1.41Z" transform="translate(1.4 60.75)" style="fill:#caa64b"/><path d="M260.78,123.86a.93.93,0,0,0,1,.8l.37-.43c0-.27.09-.35.34-.37l.41-.45v0a1.05,1.05,0,0,0-.38-1v-.13l-.41-.36h-.94l-.37.59-.42.1a.64.64,0,0,1-.12.34l.4.69A.69.69,0,0,1,260.78,123.86Z" transform="translate(1.4 60.75)" style="fill:#caa64b"/><path d="M135.79,126.94a1.34,1.34,0,0,0,1.59-.34l.15-.29a7,7,0,0,0,.08-.82,2.44,2.44,0,0,0-.19-.92l-.09-.3L137,124a1.68,1.68,0,0,0-1.52.35A1.78,1.78,0,0,0,135.79,126.94Z" transform="translate(1.4 60.75)" style="fill:#caa64b"/><path d="M214.22,128.09a1.64,1.64,0,0,0,0,.48l.22.31a2,2,0,0,0,1.67.11,1.67,1.67,0,0,0,1-1l-.27-.61s-.07,0-.07-.15a3.27,3.27,0,0,1,.22-.9,4.11,4.11,0,0,0,.14-.42l-.24-.53a2.37,2.37,0,0,0-2.09-.08,2.44,2.44,0,0,0-1.29,1.55l.38.61c-.08,0-.14,0-.14,0A.79.79,0,0,0,214.22,128.09Z" transform="translate(1.4 60.75)" style="fill:#caa64b"/><path d="M131.66,145.83a1,1,0,0,0,.45-.71l-.3-.51a.82.82,0,0,1-.24-.13,1.28,1.28,0,0,0-1.07-.28l-.36.41a.89.89,0,0,0-.19.54l0,.18.58.35s-.09-.05-.07,0a.83.83,0,0,0,.57.6l.5-.39A.59.59,0,0,1,131.66,145.83Z" transform="translate(1.4 60.75)" style="fill:#caa64b"/><path d="M286.31,330.86a1.67,1.67,0,0,0-1.16.62l.19.41a.18.18,0,0,0,0,.07,1.21,1.21,0,0,0-.26.65l.2.39.11.07c.24.14.25.18.25.3v0l.5.48a2.12,2.12,0,0,0,1.84-2.26l-.51-.48h-.19a.29.29,0,0,1,.14.17l-.51-.55Z" transform="translate(1.4 60.75)" style="fill:#caa64b"/><path d="M85.39,314.2l.56-.5-.38,0,.42-.09a1,1,0,0,0,.19-.59,1.23,1.23,0,0,0-.06-.36l-.68-.33a.81.81,0,0,0-.72-.2l-.32.26a1,1,0,0,1-.2.28A1.11,1.11,0,0,0,84,314l.38.24a2.63,2.63,0,0,0,.62-.08C85.14,314.12,85.15,314.11,85.39,314.2Z" transform="translate(1.4 60.75)" style="fill:#caa64b"/><path d="M168.84,341.19l.28.4a.81.81,0,0,0,.22.84l.34.12h.13a1,1,0,0,0,.58-.16,1.15,1.15,0,0,0,.47,0l.31-.49a1.53,1.53,0,0,0-1.2-1.32l-.19-.08-.57.42a.51.51,0,0,1,.06-.19A.76.76,0,0,0,168.84,341.19Z" transform="translate(1.4 60.75)" style="fill:#caa64b"/><path d="M218.67,296.19a.78.78,0,0,0,.19-.47.6.6,0,0,0-.55-.6l-.43.63h0c0-.14.12-.21.11-.25a.71.71,0,0,0-.58.2.63.63,0,0,0-.16.43v.12l.4.4a.75.75,0,0,0,.66.18l.31-.52Z" transform="translate(1.4 60.75)" style="fill:#caa64b"/><path d="M184.27,242.27l.21.13a1.29,1.29,0,0,0,1-.12.52.52,0,0,1,.36-.08l.45-.24a2.23,2.23,0,0,0,.21-1,2.39,2.39,0,0,0-.44-1.36l-.25-.17a1.56,1.56,0,0,0-1.45.3A1.88,1.88,0,0,0,184.27,242.27Z" transform="translate(1.4 60.75)" style="fill:#caa64b"/><path d="M66,341.7a1.42,1.42,0,0,0-1.1-1.47l-.53.53a1.59,1.59,0,0,1-.07.76,2.54,2.54,0,0,0-.12.51l.42.52h.94l.41-.37A3,3,0,0,0,66,341.7Z" transform="translate(1.4 60.75)" style="fill:#caa64b"/><path d="M103.4,326.7a1.7,1.7,0,0,0-.09-.54l-.29-.29-.17-.05a3.28,3.28,0,0,0-1.48-.17L101,326a.94.94,0,0,1-.2.38,1.86,1.86,0,0,0-.37.86l.1.36a1.57,1.57,0,0,0,1.86.51A1.53,1.53,0,0,0,103.4,326.7Z" transform="translate(1.4 60.75)" style="fill:#caa64b"/><path d="M121,291.55l.08-.29-.24-.57a1.36,1.36,0,0,0-1.41,0,2.19,2.19,0,0,0-.68,1.82l.34.46C120.52,293.33,120.81,292.21,121,291.55Z" transform="translate(1.4 60.75)" style="fill:#caa64b"/><path d="M289.39,295.85l.41.58h.56l.43-.46v-.45a.69.69,0,0,0-.24-.52.52.52,0,0,0-.47-.08l-.38.44A1,1,0,0,0,289.39,295.85Z" transform="translate(1.4 60.75)" style="fill:#caa64b"/><path d="M102.07,252.11l.5-.31a1.23,1.23,0,0,0,.06-.36,1,1,0,0,0-.2-.6l-.33-.63a.88.88,0,0,0-.89.15l-.58.6.05.25a.41.41,0,0,1,0,.31l-.05.25.32.54a1,1,0,0,0,.87-.15C101.93,252.09,101.94,252.08,102.07,252.11Z" transform="translate(1.4 60.75)" style="fill:#caa64b"/><path d="M180.73,242.3a1.49,1.49,0,0,0,1.54-.63l.12-.29v-.09a1.4,1.4,0,0,0-.28-.84.55.55,0,0,1-.1-.21l-.32-.35a1,1,0,0,0-1.12.68.32.32,0,0,1-.07.13.33.33,0,0,1,.26-.09l-.71.36C180.1,241.86,180.45,242.18,180.73,242.3Z" transform="translate(1.4 60.75)" style="fill:#caa64b"/><path d="M158.14,250.71l.24.81a.89.89,0,0,0,.76-.24,1,1,0,0,0,.27-.74v-.13l-.32-.41C158.75,249.91,158.32,250,158.14,250.71Z" transform="translate(1.4 60.75)" style="fill:#caa64b"/><path d="M152,252.69a1.24,1.24,0,0,0-.47-1,.73.73,0,0,0-.74,0l-.24.36a1.87,1.87,0,0,0,.26,1.34l.27.18a.72.72,0,0,0,.64-.15A.91.91,0,0,0,152,252.69Z" transform="translate(1.4 60.75)" style="fill:#caa64b"/><path d="M152.55,278.11a.91.91,0,0,0,1.16-.27l-.06-.63a.24.24,0,0,1,.08.16s0-.18.06-.27a2.21,2.21,0,0,0,.13-.66,1,1,0,0,0-.56-.91l-.14,0a1.26,1.26,0,0,0-1,.42c-.14.14-.2.19-.33.19l-.43.42c-.06.83.14,1.39.6,1.65l.6-.24a.26.26,0,0,1-.23.15A.33.33,0,0,1,152.55,278.11Z" transform="translate(1.4 60.75)" style="fill:#caa64b"/><path d="M190.61,246.62c0-.1,0-.21,0-.31a.84.84,0,0,0-.26-.67.7.7,0,0,0-.68-.08l-.3.44v1l.43.46h.37l.41-.62A1.85,1.85,0,0,1,190.61,246.62Z" transform="translate(1.4 60.75)" style="fill:#caa64b"/><path d="M64.42,378.11a.88.88,0,0,1,.12-.19,1.49,1.49,0,0,0,.33-.93,1.94,1.94,0,0,0,0-.4l-.41-.36a1.43,1.43,0,0,0-1.54,1.37l0,.34a.7.7,0,0,0,.55.4.54.54,0,0,0,.29-.06.46.46,0,0,0,.16.07Z" transform="translate(1.4 60.75)" style="fill:#caa64b"/><path d="M81.75,348.31l.16.42a1.51,1.51,0,0,0,.9.38.69.69,0,0,1,.29.07l.59-.25a2.29,2.29,0,0,0,0-1.73l-.32-.3a1.31,1.31,0,0,0-1.09.2A1.79,1.79,0,0,0,81.75,348.31Z" transform="translate(1.4 60.75)" style="fill:#caa64b"/><path d="M65.58,348.79l-.37-.48a1.32,1.32,0,0,0-1.58,1.15l.12.46a.94.94,0,0,0,1.1.23A1.52,1.52,0,0,0,65.58,348.79Z" transform="translate(1.4 60.75)" style="fill:#caa64b"/><path d="M70.77,349.59l.61-.37c0,.08-.09.17-.15.17a.9.9,0,0,1,.37.12l.71-.31a2.35,2.35,0,0,0,0-.26,5.46,5.46,0,0,0-.41-1.95l-.3-.29a1.26,1.26,0,0,0-1,.12.5.5,0,0,1-.37.08l-.49.41A2.12,2.12,0,0,0,70.77,349.59Z" transform="translate(1.4 60.75)" style="fill:#caa64b"/><path d="M235.28,342.9l-.2-.38a.76.76,0,0,1-.15-.23,1.08,1.08,0,0,0-1.28-.65l-.26.42.08-.06a.56.56,0,0,1,.15,0l-.24.11-.07.11a.2.2,0,0,1,.06-.11l-.43.2c-.09,1.22.49,1.88,1.53,1.9l.42-.56A.83.83,0,0,0,235.28,342.9Z" transform="translate(1.4 60.75)" style="fill:#caa64b"/><path d="M308.94,294.16a1.88,1.88,0,0,0-.87,1.36l.62.47a.18.18,0,0,1-.14-.1,1.3,1.3,0,0,1,0,.15,1,1,0,0,0,.34.68.68.68,0,0,0,.58.1c.74-.14,1.17-.75,1.28-1.81l-.31-.5a1.13,1.13,0,0,1-.44-.28,3,3,0,0,0-.41-.29l-.46.05Z" transform="translate(1.4 60.75)" style="fill:#caa64b"/><path d="M5.65,170.7c-.34-.09-.77,0-1,.71l.19.79a.91.91,0,0,0,.84-.12.86.86,0,0,0,.27-.67A1.3,1.3,0,0,0,6,171Z" transform="translate(1.4 60.75)" style="fill:#caa64b"/><path d="M290.42,169.61a.77.77,0,0,1-.26.07l-.41.46v.8l.43.46c.38,0,1.37,0,1.37-1.06,0-.09,0-.18,0-.28l-.12-.25A.76.76,0,0,0,290.42,169.61Z" transform="translate(1.4 60.75)" style="fill:#caa64b"/><path d="M349.93,179.07l.38.43a1.43,1.43,0,0,0,1.2-.31,1.28,1.28,0,0,0,.38-.95l-.23-.42a1.16,1.16,0,0,0-1.24,0A1.35,1.35,0,0,0,349.93,179.07Z" transform="translate(1.4 60.75)" style="fill:#caa64b"/><path d="M341,194.31v.14l.39.42a.89.89,0,0,0,.76-.24,1,1,0,0,0,.26-.73v-.13l-.39-.43a1,1,0,0,0-.76.24A1,1,0,0,0,341,194.31Z" transform="translate(1.4 60.75)" style="fill:#caa64b"/><path d="M193.72,175.75a2.11,2.11,0,0,0-.81.23,1.51,1.51,0,0,1-.3.13.5.5,0,0,0-.24-.09.51.51,0,0,0-.53.42,1.71,1.71,0,0,0,.67,2.06,1.44,1.44,0,0,0,1.68-.31l.15-.28a1.56,1.56,0,0,0,0-.35,2,2,0,0,0-.15-.71,1,1,0,0,1-.07-.56Z" transform="translate(1.4 60.75)" style="fill:#caa64b"/><path d="M429.88,168.93l.41.65a1.39,1.39,0,0,0,1.14-.25,1,1,0,0,0,.29-.77,2,2,0,0,0,0-.33l-.26-.34a1.49,1.49,0,0,0-.66-.16,5,5,0,0,1-.55-.07l-.48.33A1.14,1.14,0,0,0,429.88,168.93Z" transform="translate(1.4 60.75)" style="fill:#caa64b"/><path d="M408.8,161.53v.15l.38.42a.92.92,0,0,0,.76-.23,1,1,0,0,0,.27-.73V161l-.38-.41a.89.89,0,0,0-.76.22A1,1,0,0,0,408.8,161.53Z" transform="translate(1.4 60.75)" style="fill:#caa64b"/><path d="M188.24,166.25l-.15,0a.79.79,0,0,0-.72.43l0,.29a1.72,1.72,0,0,1-.08.77,1.67,1.67,0,0,0,.18,1.47l.31.15a1.36,1.36,0,0,0,1-.5,2.51,2.51,0,0,0,.66-1.67,1.37,1.37,0,0,0-.79-1.35l-.56.59A.25.25,0,0,1,188.24,166.25Z" transform="translate(1.4 60.75)" style="fill:#caa64b"/><path d="M116,162a.72.72,0,0,0,.43-.67.89.89,0,0,0,0-.22l-.41-.35h-.56l-.42.52a.61.61,0,0,1,0,.14c0,.19,0,.79.55.86l.48-.44A.75.75,0,0,1,116,162Z" transform="translate(1.4 60.75)" style="fill:#caa64b"/><path d="M409.29,164.55v.66a1,1,0,0,0,1.31.12c.31-.14.45-.18.63-.06l.43-.25.4-.34v-.41l-.46-.46c-.16,0-.2,0-.34-.21a2.84,2.84,0,0,0-.3-.31h-.49a4.88,4.88,0,0,0-.87.89C409.51,164.3,409.4,164.43,409.29,164.55Z" transform="translate(1.4 60.75)" style="fill:#caa64b"/><path d="M121.84,178l-.45-.48c-1.1.07-1.42.37-1.61.92-.06.16-.09.24-.49.31l0,.91a.4.4,0,0,1-.29-.34,1.4,1.4,0,0,0-.07,1.1l.45.24c.2,0,.26,0,.42.12a1.15,1.15,0,0,0,.84.3l.4-.43a.21.21,0,0,1-.1.18.42.42,0,0,1,.12,0,1.54,1.54,0,0,0,1.07-1l-.1-.51A1.8,1.8,0,0,1,121.84,178Z" transform="translate(1.4 60.75)" style="fill:#caa64b"/><path d="M211.68,179.29h.38l.41-.39a.79.79,0,0,0,.19-.36l-.55-.56c-.66,0-1,.35-.84,1Z" transform="translate(1.4 60.75)" style="fill:#caa64b"/><path d="M379.15,188.89a2,2,0,0,1,0,1.52l.28.6a1.47,1.47,0,0,0,1.83,0l.2-.34a2.45,2.45,0,0,0,0-.27,2.23,2.23,0,0,0-.7-1.58c-.1-.11-.25-.28-.25-.34s0-.07.1-.21l-.19-.71a1.3,1.3,0,0,0-.7-.12c-.06,0-.07,0-.18-.06l-.62.49A7.49,7.49,0,0,0,379.15,188.89Z" transform="translate(1.4 60.75)" style="fill:#caa64b"/><path d="M312.72,190.65a1.58,1.58,0,0,0-1.32-.34h-.29l-.37.22a1.66,1.66,0,0,0-.14,1.08,1.13,1.13,0,0,1,0,.18s0,.05-.05.11l.37.74a4.56,4.56,0,0,0,1.63-.44l.26-.42V191Z" transform="translate(1.4 60.75)" style="fill:#caa64b"/><path d="M183.93,192.55l-.33.45v1l.44.46a1.18,1.18,0,0,0,1.15-1.25l-.32-.46a.52.52,0,0,1-.12-.07A1,1,0,0,0,183.93,192.55Z" transform="translate(1.4 60.75)" style="fill:#caa64b"/><path d="M335.79,185.66l-.33.15a2.42,2.42,0,0,0-.63,1.46,1.26,1.26,0,0,0,.51,1l.43,0a2.89,2.89,0,0,1,.76-.28,1,1,0,0,0,.87-1.11,8.18,8.18,0,0,0-.08-.91l-.57-.37c-.23.09-.25.09-.35.06A2.61,2.61,0,0,0,335.79,185.66Z" transform="translate(1.4 60.75)" style="fill:#caa64b"/><path d="M273.8,198.33a.85.85,0,0,0-.42.26l-.12.25a1.84,1.84,0,0,0,.3,1.39.75.75,0,0,0,.54.3.69.69,0,0,0,.53-.28c.11-.12.12-.13.24-.09l.53-.55a2.36,2.36,0,0,0-.92-1.49l-.65.29S273.87,198.31,273.8,198.33Z" transform="translate(1.4 60.75)" style="fill:#caa64b"/><path d="M167.69,178.82s0-.11.06-.15l-.45-.69-.16,0a1,1,0,0,0-.93.93v.14l.31.39A.87.87,0,0,0,167.69,178.82Z" transform="translate(1.4 60.75)" style="fill:#caa64b"/><path d="M381.87,158.72l-.27-.43c-.26-.11-.42.06-.63.29a1.46,1.46,0,0,1-.51.38.21.21,0,0,1,.19.11l-.81,0a1.81,1.81,0,0,1-.16.42,2.62,2.62,0,0,0-.22,1.61l.49.36a.43.43,0,0,1,.36.08,1.33,1.33,0,0,0,1,.11l.33-.36a1.64,1.64,0,0,1,.32-.34c.25-.22.52-.45.52-.8a.64.64,0,0,0-.27-.53l-.2.08a1,1,0,0,0-.4-.5C381.76,159.05,381.87,158.93,381.87,158.72Z" transform="translate(1.4 60.75)" style="fill:#caa64b"/><path d="M5.77,180.16l-.1-.22a1.7,1.7,0,0,0-1.14-.67,2.49,2.49,0,0,1-.67-.24l-.59.29a1.62,1.62,0,0,1-.21.38,1.94,1.94,0,0,0-.36,1.66l.14.25a2.45,2.45,0,0,0,1.61.62,5.3,5.3,0,0,1,.63.09l.51-.55a1.44,1.44,0,0,1,.09-.45,2.28,2.28,0,0,0,.13-.73A2.15,2.15,0,0,0,5.77,180.16Z" transform="translate(1.4 60.75)" style="fill:#caa64b"/><path d="M246.18,174.2l-.43.15-.28.37a1.52,1.52,0,0,0,.25,1.15.9.9,0,0,1,.13.26l.65.24a2,2,0,0,1,1-.3,1.7,1.7,0,0,0,1.75-1.36l-.25-.55c-.06,0-.11-.1-.2-.22a1.11,1.11,0,0,0-.86-.62l-.35.15A3.21,3.21,0,0,1,246.18,174.2Z" transform="translate(1.4 60.75)" style="fill:#caa64b"/><path d="M271.89,169.46a4,4,0,0,0-.78.38c-.44.26-.71.42-1.19.24l-.56.33a1.52,1.52,0,0,0,.42,1.55l-.18.07a2.08,2.08,0,0,0-1.35-1.55l-.47.11a2.17,2.17,0,0,0-.52,2l0,.38.52.43a1.59,1.59,0,0,0,1.46-.54l.2-.16,0-.13a1.72,1.72,0,0,0,.28.84l.35.19h.56l.41-.36.05-.23a1.37,1.37,0,0,0,0-.75l0-.21a1.66,1.66,0,0,1,.51-.12,4.74,4.74,0,0,0,.86-.16l.31-.38a2.14,2.14,0,0,0,0-.34,2,2,0,0,0-.29-1,2.44,2.44,0,0,1-.14-.28Z" transform="translate(1.4 60.75)" style="fill:#caa64b"/><path d="M274.4,168.61a3.65,3.65,0,0,0-.35.7l.4.64h.22c.42,0,1.29.05,1.32-.85l-.35-.47a.27.27,0,0,1,.16.13.59.59,0,0,1,0-.2,1.11,1.11,0,0,0-.28-.8.62.62,0,0,0-.55-.14l-.37.41A.88.88,0,0,1,274.4,168.61Z" transform="translate(1.4 60.75)" style="fill:#caa64b"/><path d="M410.68,139.09l.46.55c-.05,0-.13,0-.13,0h0c.18.68.61.7.94.61l.31-.38v-.16a.79.79,0,0,0-.22-.57,1,1,0,0,0,0-.25v-.17l-.42-.39h-.38l-.41.4A.83.83,0,0,0,410.68,139.09Z" transform="translate(1.4 60.75)" style="fill:#caa64b"/><path d="M311.11,136.27a1.06,1.06,0,0,0-.61.83l.11.37a1.69,1.69,0,0,0,1.45.35.73.73,0,0,0,.57-.53l-.18-.52c.07,0,.12.1.09,0a1,1,0,0,0-.79-.92l-.46.24A1.06,1.06,0,0,1,311.11,136.27Z" transform="translate(1.4 60.75)" style="fill:#caa64b"/><path d="M266.27,167.44l-.28.43v.61l.13.33a1.07,1.07,0,0,0,1.24.36,1.57,1.57,0,0,0,.78-1.48l-.12-.34c-.42-.47-1.09-.19-1.59,0Z" transform="translate(1.4 60.75)" style="fill:#caa64b"/><path d="M288.58,118.33l.36.54c-.1,0-.17-.1-.18-.06v.44l.32.42a1.25,1.25,0,0,0,1-.11.43.43,0,0,1,.36-.08l.49-.4V119a1.44,1.44,0,0,0-1.35-1.31A.83.83,0,0,0,288.58,118.33Z" transform="translate(1.4 60.75)" style="fill:#caa64b"/><path d="M323.34,126.89l-.62.09a1.87,1.87,0,0,0-.26,1.34l.39.4a1.27,1.27,0,0,0,1-.3,1.36,1.36,0,0,0,.39-.94l-.15-.38a.68.68,0,0,0-.75-.2Z" transform="translate(1.4 60.75)" style="fill:#caa64b"/><path d="M257.69,127.53l-.29-.31a2.31,2.31,0,0,1-.21-.18,1.15,1.15,0,0,0-.92-.42.69.69,0,0,0-.48.4l.17.33-.06,0-.29.51A2.15,2.15,0,0,0,256,129a1.08,1.08,0,0,0-.2,1.05,1.13,1.13,0,0,1-.49-.45l-.17-.21-.72.21a1.32,1.32,0,0,0,.14.94.34.34,0,0,1,0,.27l.45.57a1.26,1.26,0,0,0,1.1-.66l-.18-.39a.88.88,0,0,0,.49.24l.36-.14a1.11,1.11,0,0,0,.28-.73,1,1,0,0,0-.06-.36l.27-.28c0-.08,0-.11.11-.23a1.21,1.21,0,0,0,.31-.82A1.86,1.86,0,0,0,257.69,127.53Z" transform="translate(1.4 60.75)" style="fill:#caa64b"/><path d="M252.25,130.66s.09,0,.07,0a.83.83,0,0,0-.55-.59l-.44.37-.07,0a.22.22,0,0,1,.06-.14.67.67,0,0,0-.43.5l.58.53s-.08,0-.07,0a.85.85,0,0,0,.56.6l.43-.38.08,0a.33.33,0,0,1-.07.14.66.66,0,0,0,.43-.49Z" transform="translate(1.4 60.75)" style="fill:#caa64b"/><path d="M217.56,268a1.36,1.36,0,0,0-.23,1.34.56.56,0,0,0-.09.32l.43.48a1.89,1.89,0,0,0,1.05-.41,1.24,1.24,0,0,1,.38-.22l.28-.7a2.7,2.7,0,0,0,.2-1.14v0l-.48-.45a.77.77,0,0,1-.63-.12l-.67.35A1.84,1.84,0,0,1,217.56,268Z" transform="translate(1.4 60.75)" style="fill:#caa64b"/><path d="M21.83,152.06a1.58,1.58,0,0,0-.26,1.15l.24.34c.71.38,1.43.08,1.86-.8l-.3-.67h0l-.36-.41a.87.87,0,0,0-.73-.19l-.33.33A1.51,1.51,0,0,1,21.83,152.06Z" transform="translate(1.4 60.75)" style="fill:#caa64b"/><path d="M269.08,174.15l-.33-.45-.22-.06a1,1,0,0,0-.69,0l-.22.06-.31.64a2.64,2.64,0,0,1,0,.28c0,.14,0,.27,0,.39,0,.73.5.8.6.81l.4-.23a.28.28,0,0,1-.17.1,1,1,0,0,0,.74-.13l.24-.41Z" transform="translate(1.4 60.75)" style="fill:#caa64b"/><path d="M21.75,150.49h0a.53.53,0,0,1,.17.16,1.23,1.23,0,0,0,.06-.36.64.64,0,0,0-.42-.62L21,150a.57.57,0,0,1-.11.1,1,1,0,0,0-.45,1l.47.4h.19c.26,0,.8,0,.92-.55Z" transform="translate(1.4 60.75)" style="fill:#caa64b"/><path d="M5.22,152.46l-.14-.26A1.85,1.85,0,0,0,3,151.56a1.32,1.32,0,0,0-.7,1.43l.3.14-.14.06a2.07,2.07,0,0,1,.06.26,1.86,1.86,0,0,0,.65,1.28.92.92,0,0,0,.8.07l.29-.2a2,2,0,0,0,1-1.71A3.46,3.46,0,0,0,5.22,152.46Z" transform="translate(1.4 60.75)" style="fill:#caa64b"/><path d="M152.39,150.11h0l.48.45a.4.4,0,0,1-.09-.07.69.69,0,0,1,0,.13l.31.52a2.1,2.1,0,0,0,2.54-1l-.29-.69a.29.29,0,0,1,.18.27h0a.49.49,0,0,1,.06-.13l0-.56a1.8,1.8,0,0,0-2.07-.58A1.66,1.66,0,0,0,152.39,150.11Z" transform="translate(1.4 60.75)" style="fill:#caa64b"/><path d="M8.64,148.54l-.13.07c-.29.17-.79.44-.79,1l0,.18.15.26c.07.07.15.13.21.2a2.14,2.14,0,0,0,2.2.7l.33-.35a.73.73,0,0,1,.11-.22,1.36,1.36,0,0,0,.27-.82l-.2-.46a2.12,2.12,0,0,1-.29-.3c-.34-.41-1.06-1.27-1.9-.46Z" transform="translate(1.4 60.75)" style="fill:#caa64b"/><path d="M395,154.37a.67.67,0,0,1-.15.21l.1.87.2,0a1.81,1.81,0,0,0,1.08,0l.2,0,.34-.43v-.14a1.5,1.5,0,0,0-.3-1l-.23-.15A1.06,1.06,0,0,0,395,154.37Z" transform="translate(1.4 60.75)" style="fill:#caa64b"/><path d="M256.76,139.89l-.32-.34a1,1,0,0,0-.83.12,1.23,1.23,0,0,0-.26-.59l-.37-.15a.74.74,0,0,1-.63-.12l-.62.17a2.49,2.49,0,0,1-.2.32,2.22,2.22,0,0,0-.39.77l.32.58a1.81,1.81,0,0,0,1.43.22,1.5,1.5,0,0,0,1.19,1l.44-.43a.76.76,0,0,0,.16,0l.47-.43V141a1.48,1.48,0,0,0-.27-.84A.54.54,0,0,1,256.76,139.89Z" transform="translate(1.4 60.75)" style="fill:#caa64b"/><path d="M253.1,144.13l-.73.28c0,.17,0,.33,0,.48a1.91,1.91,0,0,0,.38,1.31,1,1,0,0,0,.82.32l.17,0a1.69,1.69,0,0,0,.9-1.55,1.72,1.72,0,0,0-.13-.68l-.34-.27a1.48,1.48,0,0,0-.78.13A.36.36,0,0,1,253.1,144.13Z" transform="translate(1.4 60.75)" style="fill:#caa64b"/><path d="M232.68,220.87a2.36,2.36,0,0,0-2.43.94l0,.58c.06.09.11.2.16.29a1.7,1.7,0,0,0,1.94,1.11l.19-.1a1.69,1.69,0,0,0,.59-1.37c0-.18,0-.37,0-.53a2.33,2.33,0,0,1,0-.4Z" transform="translate(1.4 60.75)" style="fill:#caa64b"/><path d="M349.6,240.34a2.16,2.16,0,0,0-.39,1.2,2.06,2.06,0,0,0,2,2l.23-.05a1.07,1.07,0,0,0,.43-.48l.05-.12a.31.31,0,0,1,.15,0l.53-.52a2.27,2.27,0,0,0-.32-.86,1.42,1.42,0,0,1-.23-.69l-.42-.45a2.45,2.45,0,0,1-.54-.1,2.28,2.28,0,0,0-1.21-.1Z" transform="translate(1.4 60.75)" style="fill:#caa64b"/><path d="M162.94,242.88a1,1,0,0,0,0-.28.62.62,0,0,0-.4-.65l-.38-.45a.92.92,0,0,0-.63.15c-.09,0-.1,0-.13,0l-.45.4a1.88,1.88,0,0,0,.26,1.35l.19.16a.75.75,0,0,0,1.09-.45Z" transform="translate(1.4 60.75)" style="fill:#caa64b"/><path d="M39.05,242.66a1.17,1.17,0,0,0-1.15.53.55.55,0,0,0-.44.51l.4.55a.51.51,0,0,1-.13-.15l.21.72a.72.72,0,0,0,.46,0l.17.22a1,1,0,0,0,.65-.15c.08,0,.09,0,.12,0l.45-.38a3.13,3.13,0,0,0,0-.5C39.83,242.92,39.23,242.71,39.05,242.66Z" transform="translate(1.4 60.75)" style="fill:#caa64b"/><path d="M219.13,245l-.36.83c-.07,0-.13-.13-.12-.37a1.34,1.34,0,0,1-.27.27,1.73,1.73,0,0,0-.85-.45,1.84,1.84,0,0,1-.28-.09l-.47.13a2.72,2.72,0,0,0-.82,1.62,1.47,1.47,0,0,0,.23.77l.39.2a8.11,8.11,0,0,1,1.48,0,4,4,0,0,0,2.61-.47l.22-.37V247a2.44,2.44,0,0,0-.23-.87l0-.07.23-.2c-.3-.88-.67-1.14-1.32-.91C219.36,245,219.27,245,219.13,245Z" transform="translate(1.4 60.75)" style="fill:#caa64b"/><path d="M280.61,243.85c0,.11-.08.22-.13.33a3,3,0,0,0-.27,1.24h0l.27.41c.61.27,1.54.67,2.16-.14l-.31-.73h0a.38.38,0,0,1,.23.37c0,.09,0,.17,0,.12a1.12,1.12,0,0,0,.23-.64.88.88,0,0,0-.12-.44l-.29-.22c-.1,0-.17-.07-.29-.19a1.25,1.25,0,0,0-1.15-.42Z" transform="translate(1.4 60.75)" style="fill:#caa64b"/><path d="M284.74,235.79a1.05,1.05,0,0,0,.37.84,1.94,1.94,0,0,0,1.81.1l.31-.49c-.16-1.77-.87-2-1.27-2A1.53,1.53,0,0,0,284.74,235.79Z" transform="translate(1.4 60.75)" style="fill:#caa64b"/><path d="M167.9,233.78l0,.05a.77.77,0,0,0-.16.19l.3.7c-.09,0-.16-.1-.16-.07s0,.13,0,.2l.4.48a3.22,3.22,0,0,1,.51.08c.61.11,1.15.12,1.42-1l-.46-.57a.59.59,0,0,1-.08-.16.92.92,0,0,0-1.07-.64l-.28.26A.58.58,0,0,0,167.9,233.78Z" transform="translate(1.4 60.75)" style="fill:#caa64b"/><path d="M444.57,237.06s0,.08,0,.2a.8.8,0,0,1-.07.29l.12.5a1.23,1.23,0,0,0,1.37.2,1.15,1.15,0,0,0,.65-1.06v-.14l-.29-.39a.37.37,0,0,1,.11.1l-.42-.53h-.94l-.37.24A1.31,1.31,0,0,0,444.57,237.06Z" transform="translate(1.4 60.75)" style="fill:#caa64b"/><path d="M258.16,249.53v.13l.21.38a3,3,0,0,0,.93.33,3.1,3.1,0,0,1,.46.11l.46-.16a2,2,0,0,0,.27-.66,1,1,0,0,1,.11-.35l-.21-.72-.24-.08c-.53-.2-1.13-.41-1.59-.06A1.3,1.3,0,0,0,258.16,249.53Z" transform="translate(1.4 60.75)" style="fill:#caa64b"/><path d="M442.27,265.35l.3.31a.8.8,0,0,0,.75-.14,1.07,1.07,0,0,0,.34-.81.89.89,0,0,0-.78-1l-.47.66A1.16,1.16,0,0,0,442.27,265.35Z" transform="translate(1.4 60.75)" style="fill:#caa64b"/><path d="M52.77,267.23l.29.44a1.78,1.78,0,0,0,1.59,0l.28-.4c0-.14,0-.28,0-.41a1.7,1.7,0,0,0-.32-1.16l-.39-.12A1.65,1.65,0,0,0,52.77,267.23Z" transform="translate(1.4 60.75)" style="fill:#caa64b"/><path d="M140.43,232.17c-.16,1,.2,1.63.92,1.74l.37-.13a1.51,1.51,0,0,0,.31-.93,1.13,1.13,0,0,0-.39-.92.9.9,0,0,0-.91-.12Z" transform="translate(1.4 60.75)" style="fill:#caa64b"/><path d="M388.69,249.25a1.81,1.81,0,0,0,.23,1.41.69.69,0,0,1,.14.48l.52.49a2.17,2.17,0,0,1,.69-.07,1.08,1.08,0,0,0,.76-.19v-.25a.53.53,0,0,0,.36-.52l-.23-.42a.26.26,0,0,1,.15.19,1,1,0,0,1,0-.16,2.09,2.09,0,0,0,0-.75.54.54,0,0,0-.43-.75,4.14,4.14,0,0,0-1.88.21Z" transform="translate(1.4 60.75)" style="fill:#caa64b"/><path d="M195.15,250.49a1.56,1.56,0,0,0-.49,1.1.93.93,0,0,0,.65.93l.38-.1a2.16,2.16,0,0,0,.72-1.72l-.36-.5A1,1,0,0,0,195.15,250.49Z" transform="translate(1.4 60.75)" style="fill:#caa64b"/><path d="M178,268.15l.5.36.34-.07a1.61,1.61,0,0,0,1.2-.69l-.27-.76c.1,0,.18.1.18.06v-.44l-.39-.43a1.61,1.61,0,0,0-1.37.31C177.88,266.81,177.81,267.23,178,268.15Z" transform="translate(1.4 60.75)" style="fill:#caa64b"/><path d="M190.7,251.61c-.8.11-1,.89-1.11,1.35l.48.57a1.29,1.29,0,0,0,.93-1c0-.09.07-.18.12-.27Z" transform="translate(1.4 60.75)" style="fill:#caa64b"/><path d="M89.64,256.31c-.47.26-1,.94-.59,2.56l.33.33a2,2,0,0,0,1.12-.11,1.59,1.59,0,0,1,.33-.1l.34-.57c0-.18-.12-.18.12-.41l.16-.16-.2-.76c-.07,0-.13-.09-.24-.24a1.14,1.14,0,0,0-1.25-.58Z" transform="translate(1.4 60.75)" style="fill:#caa64b"/><path d="M186.92,259.4l.17.8c.33.09.77.06,1-.75l0,.05-.18-.8C187.53,258.61,187.1,258.65,186.92,259.4Z" transform="translate(1.4 60.75)" style="fill:#caa64b"/><path d="M427,257.1a1.9,1.9,0,0,0,.95,1.47l.57-.44a2.24,2.24,0,0,0-.9-1.77l-.68.49Z" transform="translate(1.4 60.75)" style="fill:#caa64b"/><path d="M309.18,201.6a.88.88,0,0,0,.79,1l.43-.53a1,1,0,0,1,.11-.66l-.23-.72a.82.82,0,0,0-.76.14A1.07,1.07,0,0,0,309.18,201.6Z" transform="translate(1.4 60.75)" style="fill:#caa64b"/><path d="M447.3,230.22l.47.46h.13a.71.71,0,0,0,.8-.57l-.41-.6a.9.9,0,0,0-.46-.33l-.53.44Z" transform="translate(1.4 60.75)" style="fill:#caa64b"/><path d="M132.43,210.91h0L132,211a1.16,1.16,0,0,0-.14.95l.33.32a1.14,1.14,0,0,0,1-.18,1.43,1.43,0,0,0,.42-1.06l-.48-.48s-.06,0-.14,0a1,1,0,0,0-.59-.16l-.39.54Z" transform="translate(1.4 60.75)" style="fill:#caa64b"/><path d="M428.6,212.53l-.12.26.3.69.15,0a1.46,1.46,0,0,0,1.45-.31l.19-.33v-.14a1.1,1.1,0,0,0-.15-.55.26.26,0,0,1,0-.13l-.37-.49A1.27,1.27,0,0,0,428.6,212.53Z" transform="translate(1.4 60.75)" style="fill:#caa64b"/><path d="M342.53,202.18l-.23.08h-.72c-.11.2-.88.33-1.26.39a3.63,3.63,0,0,0-1,.25l-.17.66a7.07,7.07,0,0,1,.71,2.12,10.8,10.8,0,0,0,.45,1.64,1.08,1.08,0,0,0-.07.41,1.67,1.67,0,0,0,.26,1l.33.15a3.09,3.09,0,0,1,.67.15l.54.15a3,3,0,0,0,0,.34l.5.37a1.92,1.92,0,0,0,.77-.4.83.83,0,0,1,.92-.22l.48-.24a2.68,2.68,0,0,1,2.16-1.34,1.22,1.22,0,0,1,1.2.75l.7.08a3.93,3.93,0,0,0,.86-2.41,5.31,5.31,0,0,0-.42-1.92l-.43-.28-.16,0-.18-.42a5.24,5.24,0,0,1-1.66-.49,6.59,6.59,0,0,0-3.71-.69l0-.05A.55.55,0,0,0,342.53,202.18Z" transform="translate(1.4 60.75)" style="fill:#caa64b"/><path d="M439.45,213.38c-.1,1.06.33,1.68,1.15,1.72l.33-.15a3.54,3.54,0,0,0,.54-1.06l.1-.28-.08-.5a1.47,1.47,0,0,0-1.93,0Z" transform="translate(1.4 60.75)" style="fill:#caa64b"/><path d="M410.64,193.93a.3.3,0,0,1,.24,0l-.1-.08-.67.28a.64.64,0,0,1-.11.22,1.55,1.55,0,0,0-.27.91h0l.12.29a1.24,1.24,0,0,0,1.73,0l.12-.29v-.17a1.39,1.39,0,0,0-.58-1.27l-.63.32A.29.29,0,0,1,410.64,193.93Z" transform="translate(1.4 60.75)" style="fill:#caa64b"/><path d="M366.78,196.94a.75.75,0,0,0-.6.68l.2.42a1,1,0,0,1,.33.41,1.5,1.5,0,0,0,1.35.88l.34-.13a1.64,1.64,0,0,0,.33-1.18v-.57l-.34-.46a2,2,0,0,1-.54-.17l-.53-.21-.56.49C366.75,197,366.8,196.94,366.78,196.94Z" transform="translate(1.4 60.75)" style="fill:#caa64b"/><path d="M47.07,198.75l-.25-.31a1.83,1.83,0,0,0-1.45-.08,1.24,1.24,0,0,0-.61.76l.17.3a.62.62,0,0,0-.19.37l.17.46a1.46,1.46,0,0,0,1.56.13,1.29,1.29,0,0,0,.66-1.17A1.88,1.88,0,0,0,47.07,198.75Z" transform="translate(1.4 60.75)" style="fill:#caa64b"/><path d="M263.44,201c-.05.08-.09.16-.15.24l0,.51a1,1,0,0,0,1.16.54,1.24,1.24,0,0,0,.84-1.11c0-.42-.27-.89-1-.94l-.27.09A2.13,2.13,0,0,0,263.44,201Z" transform="translate(1.4 60.75)" style="fill:#caa64b"/><path d="M281.53,212.29l.48.38h.2a.78.78,0,0,0,.9-.56l-.1-.17a1.12,1.12,0,0,0,.12-.48v-.11l-.36-.39a1,1,0,0,0-.94.21A1.16,1.16,0,0,0,281.53,212.29Z" transform="translate(1.4 60.75)" style="fill:#caa64b"/><path d="M452.72,224.69l.37.52a.92.92,0,0,0,.82-.16l.19-.44a.71.71,0,0,0-.64-.69C453.17,223.9,452.8,224.09,452.72,224.69Z" transform="translate(1.4 60.75)" style="fill:#caa64b"/><path d="M234.71,224.86a.73.73,0,0,0-.65,0,.88.88,0,0,0-.36.61l.1.42a1.05,1.05,0,0,0,1,.32,1.16,1.16,0,0,0,.84-.65l-.49-.63A.61.61,0,0,1,234.71,224.86Z" transform="translate(1.4 60.75)" style="fill:#caa64b"/><path d="M361.08,233.56l.46.55.53-.06a2,2,0,0,0,1-.21l0-.8c-.09,0-.13-.26-.14-.44l-.36-.41C361.38,232,361.19,233,361.08,233.56Z" transform="translate(1.4 60.75)" style="fill:#caa64b"/><path d="M393.12,214.22v.47h0v-.47a1.21,1.21,0,0,0-.86.36.7.7,0,0,0-.2.49h.43a.2.2,0,0,0,.1.18c.11-.49.29.6.93.2a.7.7,0,0,0,0-.31H394A.84.84,0,0,0,393.12,214.22Z" transform="translate(1.4 60.75)" style="fill:#caa64b"/><path d="M298,230l.23.45a1.32,1.32,0,0,1,.35.29,1.92,1.92,0,0,0,.87.55h.24a1.7,1.7,0,0,0,1.06-1.24,1.16,1.16,0,0,1,.23-.5l0-.59a1.54,1.54,0,0,0-1.76-.64A1.89,1.89,0,0,0,298,230Z" transform="translate(1.4 60.75)" style="fill:#caa64b"/><path d="M320.2,125.34v.16l.2.32a.62.62,0,0,0,.69,0,.85.85,0,0,0,.37-.75.81.81,0,0,0-.24-.61.52.52,0,0,0-.49-.13l-.35.43A.84.84,0,0,0,320.2,125.34Z" transform="translate(1.4 60.75)" style="fill:#caa64b"/><path d="M316.85,210.74l.36.45a1.2,1.2,0,0,0,1.37-.85l-.13-.58a1.55,1.55,0,0,0-1.24-.29l-.36.46Z" transform="translate(1.4 60.75)" style="fill:#caa64b"/><path d="M273.35,216.06l.29.66s-.09-.05-.06,0a.76.76,0,0,0,1,.57l.31-.57a.86.86,0,0,0,.39-.73,1.22,1.22,0,0,0,0-.26l-.39-.36C274.58,215.38,273.7,215.32,273.35,216.06Z" transform="translate(1.4 60.75)" style="fill:#caa64b"/><path d="M239.36,218.63a1.9,1.9,0,0,0-2.12,1.57l.17.48a1.45,1.45,0,0,1,.27.39,3.45,3.45,0,0,0,.2.32l.28.18a1.18,1.18,0,0,0,1.05-.43l.13-.12a.24.24,0,0,1-.1,0l.7-.24a2.15,2.15,0,0,0,.05-.49,1.47,1.47,0,0,0-.29-.93.68.68,0,0,0,.07-.27Z" transform="translate(1.4 60.75)" style="fill:#caa64b"/><path d="M171.17,141.34l-.14-.28a1.08,1.08,0,0,0-1.21-.24A1.4,1.4,0,0,0,169,142l.23.44a1.79,1.79,0,0,1,.3.22,1.93,1.93,0,0,0,.72.42l.52-.32a.93.93,0,0,1,.12-.25,1.56,1.56,0,0,0,.28-.89A2.46,2.46,0,0,0,171.17,141.34Z" transform="translate(1.4 60.75)" style="fill:#caa64b"/><path d="M412.35-1.76a.9.9,0,0,1-.11.68l.37.73.18,0,.11.22A1.33,1.33,0,0,0,414-.43a.82.82,0,0,1,.24-.13l.28-.65a.43.43,0,0,1-.06-.2.68.68,0,0,1,0-.14,1.27,1.27,0,0,0-.19-.94L414-2.67a.88.88,0,0,0-1.06.32Z" transform="translate(1.4 60.75)" style="fill:#caa64b"/><path d="M319.7-1.07h-.4a.59.59,0,0,0-.59.6l0,.16,0,0a.59.59,0,0,0-.22.46l.44.48a1.19,1.19,0,0,0,1.16-1.25Z" transform="translate(1.4 60.75)" style="fill:#caa64b"/><path d="M248.94,0a1.3,1.3,0,0,0,0-.26l-.39-.37A1.28,1.28,0,0,0,247.2,0l.3.71a.74.74,0,0,0,.92.38l.3-.34a.49.49,0,0,1,.06-.13A1.37,1.37,0,0,0,248.94,0Z" transform="translate(1.4 60.75)" style="fill:#caa64b"/><path d="M16.6.58l-.19.74a1.2,1.2,0,0,1-.14.38,1.71,1.71,0,0,0-.06,1.57l.09.11c.65.59,1.15.47,1.39.35a1.75,1.75,0,0,0,.75-1.59A1.81,1.81,0,0,0,17.83.66,1.17,1.17,0,0,0,16.6.58Z" transform="translate(1.4 60.75)" style="fill:#caa64b"/><path d="M279.08,5.27a2.12,2.12,0,0,0-.09.57.85.85,0,0,0,.86.89l.47-.43c0-.12,0-.24,0-.35,0-1-.49-1.13-.78-1.15l-.44.35Z" transform="translate(1.4 60.75)" style="fill:#caa64b"/><path d="M198.92-8.35s0,0-.14-.05a1,1,0,0,0-.58-.16l-.4.4a1.8,1.8,0,0,0,.27,1.34l.23.18a.71.71,0,0,0,.64-.08,1,1,0,0,0,.3-.72s0-.13,0-.15a.27.27,0,0,1-.11.11Z" transform="translate(1.4 60.75)" style="fill:#caa64b"/><path d="M306.57-8.76l.15.41a1,1,0,0,0,1.09.36l.35,0,.38-.46V-9.71l-.35-.45a1.23,1.23,0,0,0-1.07.19A1.71,1.71,0,0,0,306.57-8.76Z" transform="translate(1.4 60.75)" style="fill:#caa64b"/><path d="M254.61-2.63l.38.45a.94.94,0,0,0,.64-.15c.09,0,.09,0,.12,0l.46-.44v-.07a1,1,0,0,0-.67-1,.63.63,0,0,1-.17-.1l-.76.29Z" transform="translate(1.4 60.75)" style="fill:#caa64b"/><path d="M69.4-5.61h.46c0,.06,0,.08,0,.15.51,0,.38.34.75,0,0-.06,0-.09,0-.14H71a.84.84,0,0,0-.81-.9.75.75,0,0,0-.55.23A.92.92,0,0,0,69.4-5.61Z" transform="translate(1.4 60.75)" style="fill:#caa64b"/><path d="M303.43,6.36a.53.53,0,0,0,.5-.28.64.64,0,0,0,.49-.52L304,5s-.05,0-.13,0a1,1,0,0,0-.6-.16l-.34.24A1,1,0,0,0,303.43,6.36Z" transform="translate(1.4 60.75)" style="fill:#caa64b"/><path d="M380.67,17c0,.06,0,.1,0,.2a.69.69,0,0,1-.05.15l.43.69a.94.94,0,0,0,.27.31h.45a2.2,2.2,0,0,0,1-1.76l-.42-.51h-1.12l-.4.3A1.87,1.87,0,0,0,380.67,17Z" transform="translate(1.4 60.75)" style="fill:#caa64b"/><path d="M269.16,122.55l-.08.18a1.2,1.2,0,0,0-.94-.39.8.8,0,0,0-.55.4l.08.26a.76.76,0,0,0-.15.71l.31.34.19.06a1.45,1.45,0,0,0,1.27,0,.83.83,0,0,0,.34-.49,1.31,1.31,0,0,0,.68-.09,1.38,1.38,0,0,1,.29-.08l.37-.37a1.83,1.83,0,0,0,0-.21.76.76,0,0,0-.42-.71l-.11-.43A1,1,0,0,0,269.16,122.55Z" transform="translate(1.4 60.75)" style="fill:#caa64b"/><path d="M426.41,14.56l.41.66a1.61,1.61,0,0,1,.4.18,1.57,1.57,0,0,0,1.31.28,1.24,1.24,0,0,0,.69-.71l-.3-.66c.07,0,.22.14.2.43l.07-.12-.05-.59a1.57,1.57,0,0,0-1.44-.46A1.77,1.77,0,0,0,426.41,14.56Z" transform="translate(1.4 60.75)" style="fill:#caa64b"/><path d="M448.65,19.57l-.37.68a1.61,1.61,0,0,0,1.21.74,1.74,1.74,0,0,1,.59.22l.58-.07a1.31,1.31,0,0,0,.37-.84h0a2.47,2.47,0,0,0,0-.34,2.9,2.9,0,0,1-.05-.39l-.44-.41a3.92,3.92,0,0,0-1.29.27A1.64,1.64,0,0,1,448.65,19.57Z" transform="translate(1.4 60.75)" style="fill:#caa64b"/><path d="M301.62,8.09a.75.75,0,0,0,.75-.79l-.44-.48a.63.63,0,0,1-.46-.09l-.7.41A.92.92,0,0,0,301.62,8.09Z" transform="translate(1.4 60.75)" style="fill:#caa64b"/><path d="M90-10.15c0,.73.82,1.11,1.17,1.26l.54-.21a1.75,1.75,0,0,0,.18-.75,1.09,1.09,0,0,0-.31-.81,1.24,1.24,0,0,0-1-.32l-.29.15A1,1,0,0,0,90-10.15Z" transform="translate(1.4 60.75)" style="fill:#caa64b"/><path d="M140.33,7.55l-.11-.38a.73.73,0,0,0-.77-.31c-.31.09-.55.39-.69.9l.35.58C140.14,8.48,140.31,7.77,140.33,7.55Z" transform="translate(1.4 60.75)" style="fill:#caa64b"/><path d="M337.21,10.23v.12l.38.42a.86.86,0,0,0,.76-.23,1,1,0,0,0,.27-.74V9.67l-.39-.42a.88.88,0,0,0-.76.24A1,1,0,0,0,337.21,10.23Z" transform="translate(1.4 60.75)" style="fill:#caa64b"/><path d="M436.56,12a.56.56,0,0,0,.4.56l.53-.39a.23.23,0,0,1-.12.18l.13,0a.75.75,0,0,0,.75-.75l-.06-.3a.64.64,0,0,0-.77-.35A1.3,1.3,0,0,0,436.56,12Z" transform="translate(1.4 60.75)" style="fill:#caa64b"/><path d="M286.5-12.89a1.08,1.08,0,0,0,.19,1.08l.37.12a1.43,1.43,0,0,0,1.27-.91l-.31-.6a.59.59,0,0,1-.21-.12,1.13,1.13,0,0,0-.84-.29l-.4.44A.68.68,0,0,1,286.5-12.89Z" transform="translate(1.4 60.75)" style="fill:#caa64b"/><path d="M193.55-47.94c0,.41.11,1.27.94,1.26l.21-.06a1.39,1.39,0,0,0,.51-1,2.14,2.14,0,0,1,.06-.27l-.17-.51a1.56,1.56,0,0,0-1.23-.28l-.36.55A3.11,3.11,0,0,1,193.55-47.94Z" transform="translate(1.4 60.75)" style="fill:#caa64b"/><path d="M50.69-49.4a1.09,1.09,0,0,0-1.44.88,1.22,1.22,0,0,1-.13.3l.49.71c.58-.07,1.3-.16,1.56-.88L50.88-49a.26.26,0,0,1,.12.11Z" transform="translate(1.4 60.75)" style="fill:#caa64b"/><path d="M303.77-47.1a.2.2,0,0,1,.15,0l-.71.34v.6l.23.41.68.37.82.45.45-.05a1.26,1.26,0,0,0,.48-1,2.21,2.21,0,0,0-.25-.91c0-.09-.07-.17-.1-.26l-.26-.27a1.38,1.38,0,0,0-1.37.2A.4.4,0,0,1,303.77-47.1Z" transform="translate(1.4 60.75)" style="fill:#caa64b"/><path d="M384-49.24a.54.54,0,0,0,.49.12l.18-.23a.23.23,0,0,1-.17,0l.51-.45v-.4l-.19-.39a.62.62,0,0,0-.7,0A1,1,0,0,0,384-49.24Z" transform="translate(1.4 60.75)" style="fill:#caa64b"/><path d="M338.16-60.29v.2l.17.37a.86.86,0,0,1,.15.17,1.16,1.16,0,0,0,1.07.53l.36-.62c0,.07,0,.15,0,.14a.73.73,0,0,0,.6-.74v-.1l-.42-.41h-1.49Z" transform="translate(1.4 60.75)" style="fill:#caa64b"/><path d="M97.24-49.32l.49-.39a2.72,2.72,0,0,0,0-.28A.94.94,0,0,0,97-51l-.49.39C96.42-49.87,96.7-49.4,97.24-49.32Z" transform="translate(1.4 60.75)" style="fill:#caa64b"/><path d="M128.46-40.58a1.1,1.1,0,0,0,.15.55c0,.09,0,.12,0,.14l.64.44c.17-.12.17-.12.39.06a1.57,1.57,0,0,0,.84.39l.47-.35,0-.13a1.21,1.21,0,0,0,.16-.61,1.3,1.3,0,0,0,0-.26l-.28-.35a6.43,6.43,0,0,0-1.51-.36l-.43-.06-.48.4Z" transform="translate(1.4 60.75)" style="fill:#caa64b"/><path d="M435.52-55.59,436-56s0,.08,0,.07a.85.85,0,0,0,.39-.71,1.67,1.67,0,0,0,0-.29l-.41-.34h-.75l-.42.41C434.67-55.81,435.33-55.61,435.52-55.59Z" transform="translate(1.4 60.75)" style="fill:#caa64b"/><path d="M148.84-53.85l.22.43.08.13a.88.88,0,0,0,1.17.52l.31-.44v-1l-.4-.46C149.82-54.7,148.89-54.76,148.84-53.85Z" transform="translate(1.4 60.75)" style="fill:#caa64b"/><path d="M7.17-32.18H7.6c.24.46,1,.93,1.12,0h.42c0-.34-.25-.7-1-.7a1.5,1.5,0,0,0-.52.09A.64.64,0,0,0,7.17-32.18Z" transform="translate(1.4 60.75)" style="fill:#caa64b"/><path d="M270.29-15.62a.76.76,0,0,0-.87-.17l-.1.08a2.81,2.81,0,0,0-.89,1.86,1.67,1.67,0,0,0,1,1.51l.3,0a2.71,2.71,0,0,0,1.46-2.19,1.68,1.68,0,0,0-.54-1.23l-.7.29a.28.28,0,0,1,.17-.15C270.22-15.63,270.31-15.58,270.29-15.62Z" transform="translate(1.4 60.75)" style="fill:#caa64b"/><path d="M230-17.59c-1,.12-1.31,1.1-1.51,1.81a4.13,4.13,0,0,1-.15.5l.17.55.19.15c.7.51,1.3.8,2.24-.44l.09-.34a2.77,2.77,0,0,0,0-.3c.59,0,.89-.27.89-.72a1.41,1.41,0,0,0-.07-.41,1.55,1.55,0,0,1-.05-.23l-.43-.37a.91.91,0,0,0-.78.33l-.13-.28Z" transform="translate(1.4 60.75)" style="fill:#caa64b"/><path d="M151.86-37.4l.21.59c.56.27.75.55.75.69a.25.25,0,0,1,0,.12l.4.65a1,1,0,0,0,1-1A1.93,1.93,0,0,0,153-38.17C152.8-38.21,152.2-38.27,151.86-37.4Z" transform="translate(1.4 60.75)" style="fill:#caa64b"/><path d="M381.24,21l-.47-.4s-.06,0-.15,0a1,1,0,0,0-.59-.16l-.25.12a1.42,1.42,0,0,0-.33,1c0,.61.32,1,.8,1l.42-.39a.59.59,0,0,1,.11-.09,1,1,0,0,0,.47-.86A1.09,1.09,0,0,0,381.24,21Z" transform="translate(1.4 60.75)" style="fill:#caa64b"/><path d="M44.65-16.2l-.46.34a1.48,1.48,0,0,0,.27,1.11,1.74,1.74,0,0,0,.1.16.29.29,0,0,1-.08.11l.19.76a1.59,1.59,0,0,0,1.34-.2l.18-.1.71-.34v-1.42l-.23-.41-.11-.06c-.38-.23-1.4-.84-1.93,0Z" transform="translate(1.4 60.75)" style="fill:#caa64b"/><path d="M245.7-13.61l-.32.15a2.06,2.06,0,0,0-.33,1.19c0,.86.43,1.18.82,1.19l.42-.32.08-.27a3.59,3.59,0,0,0,.22-1A.86.86,0,0,0,245.7-13.61Z" transform="translate(1.4 60.75)" style="fill:#caa64b"/><path d="M274.64-34.95l.1.48a.81.81,0,0,0,.91.26.77.77,0,0,0,.41-.73,1.72,1.72,0,0,0-.05-.37l-.4-.35A.92.92,0,0,0,274.64-34.95Z" transform="translate(1.4 60.75)" style="fill:#caa64b"/><path d="M226-42.86a3,3,0,0,1-.21,1l.29.67a1.45,1.45,0,0,0,1.19-.24.71.71,0,0,1,.4-.16l.4-.55a3.42,3.42,0,0,1,0-1,4.43,4.43,0,0,0,.06-.57,1,1,0,0,0-.19-.63l-.3-.17C226.15-44.57,226.07-43.58,226-42.86Z" transform="translate(1.4 60.75)" style="fill:#caa64b"/><path d="M336.49-23.71l.09.06.63-.5,0-.16c-.05-.3-.18-1.11-1-1l-.38.52A1.2,1.2,0,0,0,336.49-23.71Z" transform="translate(1.4 60.75)" style="fill:#caa64b"/><path d="M310.66,33.15a1.62,1.62,0,0,0,0-.22.82.82,0,0,0-.26-.67.67.67,0,0,0-.68-.06l-.29.47a1.58,1.58,0,0,0,.35,1,.76.76,0,0,0-.08.11l.24.55.28.39h.38l.4-.48a.76.76,0,0,1,.18-.18.87.87,0,0,0,.37-.63.64.64,0,0,0-.4-.59l-.5.33Z" transform="translate(1.4 60.75)" style="fill:#caa64b"/><path d="M36.27,101.91a1.2,1.2,0,0,0-1,.27c-.15.11-.2.14-.32.13l-.45.56a.67.67,0,0,1-.08.4l.12.71a4.31,4.31,0,0,1,.42.28,1.85,1.85,0,0,0,1.47.38l.41-.42c0-.19,0-.34,0-.47s0-.36,0-.51a2.15,2.15,0,0,0-.32-1.11Z" transform="translate(1.4 60.75)" style="fill:#caa64b"/><path d="M205.55,99.25a1.5,1.5,0,0,0-.27.91l.56.41c-.05,0-.11-.08-.11,0a.9.9,0,0,0,.26.5l.32.11a3,3,0,0,0,1.51-.7l.18-.34v-.08a1.34,1.34,0,0,0-.28-.82.67.67,0,0,1-.11-.23l-.41-.36h-1.13l-.41.36A.73.73,0,0,1,205.55,99.25Z" transform="translate(1.4 60.75)" style="fill:#caa64b"/><path d="M37.31,87.39l-.24.39c0,.13,0,.27,0,.4a1.73,1.73,0,0,0,.32,1.15l.31.14h.74l.43-.4s.07-.18.11-.27a1.66,1.66,0,0,0,.24-.76.69.69,0,0,0-.44-.67l-.3.16-.09,0A1.07,1.07,0,0,0,37.31,87.39Z" transform="translate(1.4 60.75)" style="fill:#caa64b"/><path d="M75.87,104.91c-.53.36-1.09.73-1.09,1.32a1,1,0,0,0,.1.4l.24,0h0a1.84,1.84,0,0,0,2,1.87l.42-.51.17-.1a1.15,1.15,0,0,0,.49-.36l.09-.29V105.8l-.3-.44a1.2,1.2,0,0,1-.56-.48,3,3,0,0,0-.42-.45l-.58,0A3,3,0,0,1,75.87,104.91Z" transform="translate(1.4 60.75)" style="fill:#caa64b"/><path d="M67.09,97.35a1.64,1.64,0,0,0-1.76,0l-.22.46a.9.9,0,0,1-.11.69l.31.73h.12l.28.39A1.76,1.76,0,0,0,67.64,98l-.27-.51Z" transform="translate(1.4 60.75)" style="fill:#caa64b"/><path d="M199.6,94l-.43.21c-.64,1.09-.66,2.41,0,3a2,2,0,0,0,1.75.32l.21-.12a2.16,2.16,0,0,0,.6-1.57A3.74,3.74,0,0,0,201.2,94l-.27-.2a1.24,1.24,0,0,0-1,.12A.56.56,0,0,1,199.6,94Z" transform="translate(1.4 60.75)" style="fill:#caa64b"/><path d="M187.64,88.75a1.53,1.53,0,0,0-.48,1.56l.1.23a1.56,1.56,0,0,0,1.82.57,1.9,1.9,0,0,0,1.09-1.7,1.45,1.45,0,0,0-.38-1A1.87,1.87,0,0,0,188.3,88l-.4.38C187.88,88.49,187.79,88.58,187.64,88.75Z" transform="translate(1.4 60.75)" style="fill:#caa64b"/><path d="M290.38,97.15a.89.89,0,0,0,0,.22l.41.36h.38l.42-.41a.78.78,0,0,0,.18-.36l-.54-.55C291,96.41,290.38,96.45,290.38,97.15Z" transform="translate(1.4 60.75)" style="fill:#caa64b"/><path d="M214.45,104.8l-.2.35a1,1,0,0,0,.26.87,1.09,1.09,0,0,0,1,.24l.4-.63a.72.72,0,0,0,.09-.33.54.54,0,0,0-.42-.54l-.14.11A.79.79,0,0,0,214.45,104.8Z" transform="translate(1.4 60.75)" style="fill:#caa64b"/><path d="M119.28,99.21l-.44-.11c-.92.36-1.4,1.25-1.4,2.66l.37.45a2.54,2.54,0,0,0,2-.47l.2-.34c0-.12,0-.24,0-.35A2.53,2.53,0,0,0,119.28,99.21Z" transform="translate(1.4 60.75)" style="fill:#caa64b"/><path d="M214.69,107.57l.35.78a1.07,1.07,0,0,0,.44.33l.55-.4c0-.06,0-.09.16-.22a1.23,1.23,0,0,0,.44-1,2.08,2.08,0,0,0,0-.41l-.56-.32A2.74,2.74,0,0,0,214.69,107.57Z" transform="translate(1.4 60.75)" style="fill:#caa64b"/><path d="M269,120.39l.43.44h1.12l.42-.54-.41,0h0l.44-.07a1.05,1.05,0,0,0,.19-.6,1.5,1.5,0,0,0,0-.35L271,119a1.7,1.7,0,0,0-1.44-.33l-.28.14A2.1,2.1,0,0,0,269,120.39Z" transform="translate(1.4 60.75)" style="fill:#caa64b"/><path d="M380.88,119.24a3.22,3.22,0,0,0-.54,1.08l-.1.28.5.62c.23-.07.25,0,.39.12a1.15,1.15,0,0,0,.14.17l.68-.14c0-.1.22-.18.41-.26a1.34,1.34,0,0,0,.9-.77l-.13-.53-.12-.12a1.94,1.94,0,0,0-1.9-.59Z" transform="translate(1.4 60.75)" style="fill:#caa64b"/><path d="M303.67,120.89a1,1,0,0,0,.22-.6.75.75,0,0,0-.07-.33l-.23-.22c-.3-.12-1.1-.43-1.59,0a.53.53,0,0,0-.47.51l.36.53a.21.21,0,0,1-.17-.14c.06.17-.09.93.46,1.13l.11,0c.78.06,1.29-.16,1.53-.65Z" transform="translate(1.4 60.75)" style="fill:#caa64b"/><path d="M264.08,115.07l-.13.11a.2.2,0,0,1,.17,0l-.69.49a1.86,1.86,0,0,1,.11.52c0,.17-.05.27-.49.53l.15.86c.53.08,1.1.31,1.1.62a.87.87,0,0,1-.1.32l.2.65a1.35,1.35,0,0,1,.27.19,1.46,1.46,0,0,0,1,.45l.28-.12a5.07,5.07,0,0,0,1.36-2.41c.12-.35.24-.74.43-1.19l-.2-.59a3.45,3.45,0,0,1-.82-.72l-.64,0a1,1,0,0,1-.18.1,2.39,2.39,0,0,0-.22.12.66.66,0,0,0-.81-.41A1.31,1.31,0,0,0,264.08,115.07Z" transform="translate(1.4 60.75)" style="fill:#caa64b"/><path d="M213.3,108.93l-.25-.14a1.5,1.5,0,0,0-1.29.34,1.3,1.3,0,0,0-.06,1.79,1.43,1.43,0,0,0,1.12.4l.24-.09a1.86,1.86,0,0,0,.55-1.37A1.39,1.39,0,0,0,213.3,108.93Z" transform="translate(1.4 60.75)" style="fill:#caa64b"/><path d="M179.74,115.27c0,.21.09.69.91.7l.38-.66a.43.43,0,0,1,0-.25v-.17a.64.64,0,0,0-.33-.58l-.57.14A1.5,1.5,0,0,0,179.74,115.27Z" transform="translate(1.4 60.75)" style="fill:#caa64b"/><path d="M276.59,109.91c.14,0,.47,0,.7-.46l-.05-.09.07-.06.14-.37c0-.14-.05-.39-.48-.55a.69.69,0,0,0-.58.16C276,108.91,276.13,109.8,276.59,109.91Z" transform="translate(1.4 60.75)" style="fill:#caa64b"/><path d="M84.17,112.86v0l-.23-.06-.51.38a1,1,0,0,0,.46,1.06.17.17,0,0,1,.1.15l.3.51a.86.86,0,0,0,.88-.15l.1,0,.48-.65c0-.09,0-.18,0-.28s0-.27,0-.38c0-.73-.5-.8-.61-.81l-.05.05a.59.59,0,0,0-.68-.23Z" transform="translate(1.4 60.75)" style="fill:#caa64b"/><path d="M167.9,28.35c.07,1.52.87,1.95,1.2,2.06a1.81,1.81,0,0,0,2-.8l.08-.19a2.6,2.6,0,0,0,0-.46,2.32,2.32,0,0,0-.25-1,1.54,1.54,0,0,1-.16-.5l-.45-.41A3,3,0,0,0,168,28Z" transform="translate(1.4 60.75)" style="fill:#caa64b"/><path d="M69.22,32.62a2,2,0,0,0,1.24,1.81h.19a1.3,1.3,0,0,0,1-1.39,2.67,2.67,0,0,0-.39-1.34l-.35-.2H69.83l-.34.2A1.6,1.6,0,0,0,69.22,32.62Z" transform="translate(1.4 60.75)" style="fill:#caa64b"/><path d="M102,34.74l-.42.65a1.33,1.33,0,0,1,0,.28c0,.14,0,.27,0,.39,0,.73.51.8.61.81l.43-.65c0-.09,0-.19,0-.29s0-.26,0-.38C102.61,34.82,102.11,34.75,102,34.74Z" transform="translate(1.4 60.75)" style="fill:#caa64b"/><path d="M148.55,83.62h-.82s0,0,0,0l-.4.44a1.85,1.85,0,0,0,.82,1.27,1.64,1.64,0,0,1,.38.36l.76-.26v-.08h0a1.89,1.89,0,0,0-.5-1.26A1.15,1.15,0,0,1,148.55,83.62Z" transform="translate(1.4 60.75)" style="fill:#caa64b"/><path d="M451.52,42.71l-.07.17.06.51a2.44,2.44,0,0,0,1.58,1l.47-.42a1.83,1.83,0,0,1,.32-.84,1.71,1.71,0,0,0,.32-.91,1.81,1.81,0,0,0-.34-1l-.35-.2C452.27,41,451.85,42,451.52,42.71Z" transform="translate(1.4 60.75)" style="fill:#caa64b"/><path d="M39.24,31.82a1.7,1.7,0,0,0,1.35,1.6l.24-.29a.69.69,0,0,0,1-.35l.05-.15c0-.14,0-.28,0-.4a1.59,1.59,0,0,0-.42-1.18,1.81,1.81,0,0,0-1.57-.35l-.25.13A1.46,1.46,0,0,0,39.24,31.82Z" transform="translate(1.4 60.75)" style="fill:#caa64b"/><path d="M174.34,24.37l-.24-.52c-.55-.26-1.39-.66-1.82-.06l-.08.3a1.53,1.53,0,0,1-.09.24,3.27,3.27,0,0,0-.29,1.14l.19.4a1.18,1.18,0,0,0,1.2.2A2.4,2.4,0,0,0,174.34,24.37Z" transform="translate(1.4 60.75)" style="fill:#caa64b"/><path d="M340.68,24.62l-.38-.41a1.12,1.12,0,0,0-.95.25,1,1,0,0,0-.26.87l.37.41a1.15,1.15,0,0,0,1-.23,1,1,0,0,0,.27-.72Z" transform="translate(1.4 60.75)" style="fill:#caa64b"/><path d="M234.24,48.76h0c0,.9.91.87,1.33.85h.22l.42-.54s0,0,0-.12a1.19,1.19,0,0,0,.15-.57l-.13-.38a1.37,1.37,0,0,0-1.47-.2A1,1,0,0,0,234.24,48.76Z" transform="translate(1.4 60.75)" style="fill:#caa64b"/><path d="M417.49,24.81a.67.67,0,0,0,.61.12l.33-.44v0a1,1,0,0,0-.65-1l-.57.56A1,1,0,0,0,417.49,24.81Z" transform="translate(1.4 60.75)" style="fill:#caa64b"/><path d="M358.72,34.57a1.2,1.2,0,0,0,.9,1.28l.4-.16a2.94,2.94,0,0,0,.61-1.54,1,1,0,0,0-.88-1l-.17,0A1.45,1.45,0,0,0,358.72,34.57Z" transform="translate(1.4 60.75)" style="fill:#caa64b"/><path d="M281.83,71.38c-.52.16-1.46.41-1.23,1.73l.32.37a1,1,0,0,0,.87-.16.26.26,0,0,1,.25,0l.51-.38a2.14,2.14,0,0,0,0-.34,1.7,1.7,0,0,0-.29-1Z" transform="translate(1.4 60.75)" style="fill:#caa64b"/><path d="M381.56,77.93a.63.63,0,0,0,.39.58l.22-.16a.64.64,0,0,0,.81.38l.23-.17a.94.94,0,0,0,.17-.55,1.4,1.4,0,0,0-.22-.68s-.05-.08-.05,0l-.79-.23a1,1,0,0,1-.21.16C381.85,77.38,381.56,77.57,381.56,77.93Z" transform="translate(1.4 60.75)" style="fill:#caa64b"/><path d="M377.08,70.42a.76.76,0,0,0-.42.9l.25.31a.67.67,0,0,0,.68-.07,1.13,1.13,0,0,0,.42-.83.62.62,0,0,0-.18-.46l-.46-.12-.34.42A.25.25,0,0,1,377.08,70.42Z" transform="translate(1.4 60.75)" style="fill:#caa64b"/><path d="M218.1,82.72l.11.46a.76.76,0,0,0,.68.26,1.06,1.06,0,0,0,.73-.55l-.34-.7a.94.94,0,0,1-.24-.06.63.63,0,0,0-.56,0A.92.92,0,0,0,218.1,82.72Z" transform="translate(1.4 60.75)" style="fill:#caa64b"/><path d="M65.76,53.67l-.06.18.09.48a5.45,5.45,0,0,0,1.41,1.09l.3,0a1.77,1.77,0,0,0,1.09-1.87h0a2.25,2.25,0,0,0-.52-1.54l-.26-.12C66.42,51.81,66,52.89,65.76,53.67Z" transform="translate(1.4 60.75)" style="fill:#caa64b"/><path d="M242.09,55.88h0l.33.41a.37.37,0,0,1,.09.09.92.92,0,0,0,1.05.32l.24-.19a2.85,2.85,0,0,0,.46-1.35.93.93,0,0,0-.71-1h-.13A1.67,1.67,0,0,0,242.09,55.88Z" transform="translate(1.4 60.75)" style="fill:#caa64b"/><path d="M179.68,64.59a1,1,0,0,0-.57,1h0l.39.43a1.4,1.4,0,0,0,1.13-.24.84.84,0,0,0,.26-.59l-.11-.34A1,1,0,0,0,179.68,64.59Z" transform="translate(1.4 60.75)" style="fill:#caa64b"/><path d="M298.91,63.29l.4.49a1.15,1.15,0,0,0,.86-.35,1,1,0,0,0,.3-.74,1.06,1.06,0,0,0-.28-.71l-.28-.13a.89.89,0,0,0-.66.23A1.72,1.72,0,0,0,298.91,63.29Z" transform="translate(1.4 60.75)" style="fill:#caa64b"/><path d="M342,64c0,.06-.07.16-.09.19l.26.82h.74l.43-.46v-.81l-.41-.46A.93.93,0,0,0,342,64Z" transform="translate(1.4 60.75)" style="fill:#caa64b"/><path d="M447.49,321.18a.85.85,0,0,0,.78.94l.43-.4a1.28,1.28,0,0,1,.07-.28,1.71,1.71,0,0,0,.09-.46.77.77,0,0,0-.67-.78l-.38.11A1.29,1.29,0,0,0,447.49,321.18Z" transform="translate(1.4 60.75)" style="fill:#caa64b"/><path d="M342,309.49l-.3.54.06.25a.54.54,0,0,1,0,.31l-.06.25.08.37a1.55,1.55,0,0,0,1.11.6H343l0,0a3.2,3.2,0,0,0-.53,1l-.11.3.33.64a.74.74,0,0,1,.09.12.91.91,0,0,0,1,.49l.23-.3a.61.61,0,0,0,.83-.36l0-1.22-.31-.44a.93.93,0,0,1-.23-.13,1.52,1.52,0,0,0-.64-.29,1,1,0,0,0,.31-.22L344,311a.5.5,0,0,1,0-.4,3.22,3.22,0,0,0,.08-.86l-.48-.43-.71.07A3.24,3.24,0,0,0,342,309.49Z" transform="translate(1.4 60.75)" style="fill:#caa64b"/><path d="M135.34,324.31c-.21,0-.46.15-.52.52l.12.39a.83.83,0,0,0,1.48-.6,1.41,1.41,0,0,0,0-.2l-.36-.38A.72.72,0,0,0,135.34,324.31Z" transform="translate(1.4 60.75)" style="fill:#caa64b"/><path d="M195.52,325.65H195l-.39.32c0,.11-.07.22-.1.32a1.89,1.89,0,0,0,.19,1.95l.42.14c.23-.07.25,0,.39.12l.16.18.65-.11a3,3,0,0,0,.52-1.52,1.84,1.84,0,0,0-.85-1.53l-.65.33A.3.3,0,0,1,195.52,325.65Z" transform="translate(1.4 60.75)" style="fill:#caa64b"/><path d="M184.34,325.89V326a1.54,1.54,0,0,0,.3,1l.35.16a1.19,1.19,0,0,0,1.14-1.33v-.18l-.37-.42a1.56,1.56,0,0,0-1.24.29Z" transform="translate(1.4 60.75)" style="fill:#caa64b"/><path d="M105.06,323l-.51.37a.68.68,0,0,1-.18.31,1.46,1.46,0,0,0-.38,1v0a.9.9,0,0,0,.81.74h0a.54.54,0,0,0,.49.45l.37-.15a1.55,1.55,0,0,1,1-.66l.37-.48c0-1.25-.58-1.42-1.34-1.52A5.43,5.43,0,0,1,105.06,323Z" transform="translate(1.4 60.75)" style="fill:#caa64b"/><path d="M166.41,295.26l-.69-.29a2,2,0,0,1-.3.21,1.86,1.86,0,0,0-.73.72l.12.6a7.08,7.08,0,0,1,.7.64,5.37,5.37,0,0,0,1.63,1.24l.39,0a.74.74,0,0,0,.34-.61.79.79,0,0,0,0-.23l.22-.39A2.55,2.55,0,0,0,166.9,296,.74.74,0,0,1,166.41,295.26Z" transform="translate(1.4 60.75)" style="fill:#caa64b"/><path d="M235,324.39l-.35.42a2.58,2.58,0,0,0,.07.86.53.53,0,0,1,0,.41l.56.61s-.09,0-.07,0a.83.83,0,0,0,.56.59l.32-.07a2.86,2.86,0,0,0,1.45-2.06h0a1.74,1.74,0,0,0-.67-1.3l-.17-.08a1.25,1.25,0,0,0-1.36.39C235.12,324.31,235.05,324.37,235,324.39Z" transform="translate(1.4 60.75)" style="fill:#caa64b"/><path d="M52.58,318.05a.92.92,0,0,0-.44.27l-.11.36a.49.49,0,0,1,0,.12h.42L52,319c0,.51.17.81.51.89h0a.8.8,0,0,0,.42.43.69.69,0,0,0,.61-.06l.13-.11a1.34,1.34,0,0,0,.22-.79,1.74,1.74,0,0,0-.77-1.56l-.57.34C52.61,318.08,52.65,318,52.58,318.05Z" transform="translate(1.4 60.75)" style="fill:#caa64b"/><path d="M160.66,322.9a1.48,1.48,0,0,0-.61,1.23,5.58,5.58,0,0,0,.09.85l.48.37a.54.54,0,0,1,.47.15,1.71,1.71,0,0,0,.47.25l.51-.27.05-.13a5.91,5.91,0,0,0,.28-.84,1,1,0,0,0,.83.59c.31,0,.55-.23.55-.66v0l0,0a.63.63,0,0,0,.14-.4.57.57,0,0,0-.43-.56l-.52.38a.26.26,0,0,1,.13-.19.69.69,0,0,1-.25,0l-.4.27v0a3.15,3.15,0,0,0-1.08-1.18l-.5.06Z" transform="translate(1.4 60.75)" style="fill:#caa64b"/><path d="M109.12,334.13l-.48-.37-.16,0c0-.07,0-.17,0-.25a1.25,1.25,0,0,0-.32-1,1.12,1.12,0,0,0-1-.2l-.35.35a.61.61,0,0,1-.12.22,1.51,1.51,0,0,0-.27.9v0l.34.4a2.88,2.88,0,0,1,.25.59c.17.49.44,1.24,1.07,1l0-.19h.47l.43-.76a1,1,0,0,0,.19-.59Z" transform="translate(1.4 60.75)" style="fill:#caa64b"/><path d="M137.8,333.78a1.76,1.76,0,0,0,0,1.79l.22.14a1.41,1.41,0,0,0,1.33-.39.92.92,0,0,1,.34-.22l.32-.37,0-.19a1.08,1.08,0,0,0-.19-.6l0-.17-.41-.59h-1.12l-.4.31A2.24,2.24,0,0,1,137.8,333.78Z" transform="translate(1.4 60.75)" style="fill:#caa64b"/><path d="M335.76,339.48l.27.34-.11.12a3.12,3.12,0,0,1-.09,1.05,2.32,2.32,0,0,0,.16,1.78l.32.19h.13a1.43,1.43,0,0,0,.06.3,1,1,0,0,0,.79.66,1.49,1.49,0,0,0,1.39-.27l.13-.29v-.13a1.31,1.31,0,0,0-.27-.8.52.52,0,0,1-.1-.2l.06-.1c.19-.31.26-.43.58-.39l.46-.33a1.17,1.17,0,0,0-.09-.88,1.37,1.37,0,0,0,.85-1.23l-.6-.45a2.29,2.29,0,0,1-1.5-.13C337.41,338.49,336.3,338.16,335.76,339.48Z" transform="translate(1.4 60.75)" style="fill:#caa64b"/><path d="M56.53,337.55l.36.35a.65.65,0,0,1,.34.16l.18.11a1.73,1.73,0,0,0-.93.32,1.61,1.61,0,0,1-.26.15l-.27.44c.07,1.34.46,1.64.93,1.87l.2.11.58-.11a1.06,1.06,0,0,1,.35-.29l.31-.23.16-.29a2.07,2.07,0,0,0-.27-1.38,1.69,1.69,0,0,1-.13-.27l-.16-.14a1.56,1.56,0,0,0,.62-.06l.32-.43c0-.06,0-.08.17-.2a1.06,1.06,0,0,0,.58-1l0-.21A1.4,1.4,0,0,0,58,335.32,2,2,0,0,0,56.53,337.55Zm2.64-.86Z" transform="translate(1.4 60.75)" style="fill:#caa64b"/><path d="M67,332.47l.32.36a1.27,1.27,0,0,0,1.15-.3,1.63,1.63,0,0,0,.55-1.19,1.4,1.4,0,0,0-.64-1.17h-.45A2,2,0,0,0,67,332.47Z" transform="translate(1.4 60.75)" style="fill:#caa64b"/><path d="M208.75,328.3a1.18,1.18,0,0,0-.29,1.11l.42.4h.93l.42-.41v-.13a1.11,1.11,0,0,0-.15-.56.29.29,0,0,1,0-.13l-.36-.49A1,1,0,0,0,208.75,328.3Z" transform="translate(1.4 60.75)" style="fill:#caa64b"/><path d="M184.16,332.91v.14a1.51,1.51,0,0,0,1.56,1.41l.41-.46v-1.21l-.48-.46s-.05,0-.13-.05a1.06,1.06,0,0,0-.6-.15l-.3.27A.56.56,0,0,0,184.16,332.91Z" transform="translate(1.4 60.75)" style="fill:#caa64b"/><path d="M176,331.58a.69.69,0,0,0-.43.51l.1.17a.57.57,0,0,0-.3.51l.48.47a1.46,1.46,0,0,0,1.28-.9l-.35-.56h0l0,0a.29.29,0,0,1,.16.07.7.7,0,0,0-.44-.47l-.54.44A.4.4,0,0,1,176,331.58Z" transform="translate(1.4 60.75)" style="fill:#caa64b"/><path d="M289.57,274.27l-.34.24a1.52,1.52,0,0,0,.19,1.71,1.39,1.39,0,0,0,1.15.38l.36-.25a2,2,0,0,0,.16-.75,1.37,1.37,0,0,0-.39-1A1.32,1.32,0,0,0,289.57,274.27Z" transform="translate(1.4 60.75)" style="fill:#caa64b"/><path d="M82,289.4a1.46,1.46,0,0,0-.61,1.61l.11.21a.92.92,0,0,0,1.16.23.77.77,0,0,1,.41-.08l.46-.41a3.19,3.19,0,0,0,0-.42c0-1.06-.56-1.39-.89-1.49l-.44.15A1.65,1.65,0,0,1,82,289.4Z" transform="translate(1.4 60.75)" style="fill:#caa64b"/><path d="M131.82,285h.44s0,.05,0,.09c.35-.36.76.93,1.5.81a1.06,1.06,0,0,0,.5-.91h.45a1.8,1.8,0,0,0-1.65-1.73,1,1,0,0,0-.79.35A2,2,0,0,0,131.82,285Z" transform="translate(1.4 60.75)" style="fill:#caa64b"/><path d="M441.05,279.89l.22.75a.84.84,0,0,0,.76-.17.91.91,0,0,0,.3-.69.82.82,0,0,0-.75-.86l-.45.58A.73.73,0,0,1,441.05,279.89Z" transform="translate(1.4 60.75)" style="fill:#caa64b"/><path d="M232.58,290a1.26,1.26,0,0,1-.13.26,1.5,1.5,0,0,0-.26,1.14l.43.3a.46.46,0,0,1,0,.15c.05.2.16.68.64.75l.4-.27a2.39,2.39,0,0,0,.39.08l.41-.29a1.89,1.89,0,0,1,.23-.43,1.54,1.54,0,0,0,.27-.83,2.58,2.58,0,0,0-.11-.67l-.43-.32a1,1,0,0,1-.47-.1,1.8,1.8,0,0,0-1.09-.1Z" transform="translate(1.4 60.75)" style="fill:#caa64b"/><path d="M316.07,343.26l-.14,0c-.29,0-1,.17-1,.94v.14l.35.4.16,0c.43.09.74.14,1-.08a.68.68,0,0,0,.2-.52,2.18,2.18,0,0,0-.13-.63Z" transform="translate(1.4 60.75)" style="fill:#caa64b"/><path d="M452.79,273.06l-.44.35a1.65,1.65,0,0,0,.11,1,.64.64,0,0,1,.07.28l.28.43a1.13,1.13,0,0,0,1.49-.59l.06-.09h0l.69-.35v-1l-.37-.46a2,2,0,0,0-1.23.23A1.21,1.21,0,0,1,452.79,273.06Z" transform="translate(1.4 60.75)" style="fill:#caa64b"/><path d="M166.54,291.64a2,2,0,0,0,1,1.88l.54-.63a1.81,1.81,0,0,1,.29-.37,2.66,2.66,0,0,0,.89-1.92v-.16l-.36-.42-.09-.13a.93.93,0,0,0-1.05-.46A2.34,2.34,0,0,0,166.54,291.64Z" transform="translate(1.4 60.75)" style="fill:#caa64b"/><path d="M183.4,292.08h-.13a.72.72,0,0,0-.79.59l.49.51a.25.25,0,0,1-.19-.06.31.31,0,0,1-.11-.17v.16a.76.76,0,0,0,.26.65.66.66,0,0,0,.69,0l.26-.42v-.81Z" transform="translate(1.4 60.75)" style="fill:#caa64b"/><path d="M315.54,279.08v.12l.34.43a1.63,1.63,0,0,1,.66.3,1.54,1.54,0,0,0,1.14.31l.38-.38a4.34,4.34,0,0,1,.22-.67,3.81,3.81,0,0,0,.35-1.5v-.16l-.23-.38a1.84,1.84,0,0,0-2,0A2.27,2.27,0,0,0,315.54,279.08Z" transform="translate(1.4 60.75)" style="fill:#caa64b"/><path d="M374.46,274.78l.4-.65a.37.37,0,0,1,.05-.17.78.78,0,0,0-.15-1l-.23-.12a1,1,0,0,0-.86.18,1.78,1.78,0,0,0-.38,1.27l.42.47Z" transform="translate(1.4 60.75)" style="fill:#caa64b"/><path d="M103.63,283.24l-.23-.16a1.3,1.3,0,0,0-1.2.26,1.75,1.75,0,0,0-.17,2.41,1.22,1.22,0,0,0,1.16.24l.14-.05a2,2,0,0,0,.6-1.58A1.93,1.93,0,0,0,103.63,283.24Z" transform="translate(1.4 60.75)" style="fill:#caa64b"/><path d="M198.74,302.37l.41.6a1,1,0,0,0,.46.32l.5-.26a.87.87,0,0,0,.06-.32.94.94,0,0,0-.77-.94A.64.64,0,0,0,198.74,302.37Z" transform="translate(1.4 60.75)" style="fill:#caa64b"/><path d="M445.27,303.43l-.2,0a.86.86,0,0,0-.77.12.64.64,0,0,0-.18.6l.33.38.09.08a.89.89,0,0,0,1,.32l.25-.63.07-.11a.74.74,0,0,0,.16-.43.55.55,0,0,0-.55-.54l-.46.51A.3.3,0,0,1,445.27,303.43Z" transform="translate(1.4 60.75)" style="fill:#caa64b"/><path d="M63.9,305.58l-.11.15a8.24,8.24,0,0,0-.67.91v.47c.33.63,1.55.72,1.6.72a.83.83,0,0,0,.79-.26l0-.52a1.49,1.49,0,0,1-.06-.28c-.07-.42-.21-1.3-1.22-1.35Z" transform="translate(1.4 60.75)" style="fill:#caa64b"/><path d="M420.2,300.57a1.53,1.53,0,0,1-.05.32l.35.79a.55.55,0,0,1,.37.08,1.28,1.28,0,0,0,1,.11l.3-.29a2.55,2.55,0,0,0,.17-.86,2.6,2.6,0,0,0-.17-.86l-.4-.3h-.93l-.28.12A1.38,1.38,0,0,0,420.2,300.57Z" transform="translate(1.4 60.75)" style="fill:#caa64b"/><path d="M145.41,291.92a1.25,1.25,0,0,0,.32.85,1.32,1.32,0,0,0,1,.42c.75,0,1.51-.62,1.51-2h-.43v0a3.39,3.39,0,0,0-1.49-.2,1.29,1.29,0,0,0-.43.93Z" transform="translate(1.4 60.75)" style="fill:#caa64b"/><path d="M410.88,296.62l.15.53a1,1,0,0,1,.16.18,1.21,1.21,0,0,0,.77.51l.47-.59c0,.05,0,.12,0,.11a.78.78,0,0,0,.46-.72,1.46,1.46,0,0,0-.08-.43l-.63-.23c-.07,0-.12,0-.27,0A.79.79,0,0,0,410.88,296.62Z" transform="translate(1.4 60.75)" style="fill:#caa64b"/><path d="M168.93,283.82l.43.42h.93l.42-.54c0-.19,0-.25.11-.44a1.41,1.41,0,0,0,.27-.84l-.41-.51h0l.06-.26-.51-.54C169.25,281.33,168.83,282.27,168.93,283.82Z" transform="translate(1.4 60.75)" style="fill:#caa64b"/><path d="M356.13,294.78l-.08.18a4.25,4.25,0,0,0-.32,1.15l.42.52c.05,0,.06,0,.16.13a.94.94,0,0,0,1,.47l.35-.51a.57.57,0,0,1,.11-.1,1,1,0,0,0,.45-.85l-.15-.35a1.35,1.35,0,0,1-.18-.25,1.25,1.25,0,0,0-1.49-.66Z" transform="translate(1.4 60.75)" style="fill:#caa64b"/><path d="M395,328.32l.65-.36a.71.71,0,0,1,.06-.26,1.61,1.61,0,0,0,.06-.33.76.76,0,0,0-.61-.69l-.43.13A1,1,0,0,0,395,328.32Z" transform="translate(1.4 60.75)" style="fill:#caa64b"/><path d="M345.88,368.6l-.32-.25a1.24,1.24,0,0,0-.85.14.49.49,0,0,1-.43.06l-.46.2a1.25,1.25,0,0,0,.11,1.5.74.74,0,0,1,.2.42l.66.34c.07-.05.07-.05.18,0a.68.68,0,0,0,.87-.31l0-.12a.76.76,0,0,0,.41-.27l.08-.18a1.9,1.9,0,0,0,.05-.4,1.49,1.49,0,0,0-.34-.93A1.74,1.74,0,0,1,345.88,368.6Z" transform="translate(1.4 60.75)" style="fill:#caa64b"/><path d="M212,367.58l.51.46a.21.21,0,0,1-.19-.13.52.52,0,0,1,0,.14c0,.2.09.73.6.8l.32-.11a1.14,1.14,0,0,0,.19-.19l.16-.15.61.11a.87.87,0,0,0,.23-.64,3.42,3.42,0,0,0-.25-1.07l-.07-.18-.35-.3a1.71,1.71,0,0,0-1.42.33A1.29,1.29,0,0,0,212,367.58Z" transform="translate(1.4 60.75)" style="fill:#caa64b"/><path d="M216.17,356.63a3.15,3.15,0,0,0-.22.49l.35.61c1,.13,1.19-.58,1.22-.8l-.42-.53a.3.3,0,0,1,.18.08.72.72,0,0,0-.46-.47l-.49.3A2.39,2.39,0,0,1,216.17,356.63Z" transform="translate(1.4 60.75)" style="fill:#caa64b"/><path d="M209.32,368.77a1.61,1.61,0,0,0,1.26.49l.37-.6a.28.28,0,0,1,.14,0l.43-.6a2.34,2.34,0,0,0-1.84-1.93l-.36.14A1.93,1.93,0,0,0,209.32,368.77Z" transform="translate(1.4 60.75)" style="fill:#caa64b"/><path d="M344,349.63a1.2,1.2,0,0,0-.56,1.23l.47.39h.2c.23,0,.78,0,.9-.53l.08-.05a1.63,1.63,0,0,0,.9-1.32,1.27,1.27,0,0,0,0-.28l-.42-.36h-.94l-.41.55C344.17,349.42,344.23,349.44,344,349.63Z" transform="translate(1.4 60.75)" style="fill:#caa64b"/><path d="M207.25,346.44l-.27-.11-.45.23a.54.54,0,0,0-.5.51l.39.54a.35.35,0,0,1-.27-.34h0a3.19,3.19,0,0,1-.13.34,1.59,1.59,0,0,0-.18.48l.13.41a2.89,2.89,0,0,0,1,.58l.27.11.47-.1a1.63,1.63,0,0,0,.41-.94,1,1,0,0,1,.19-.52l-.06-.61A2.89,2.89,0,0,0,207.25,346.44Z" transform="translate(1.4 60.75)" style="fill:#caa64b"/><path d="M368.08,270.89a2,2,0,0,0-.44-.24,1.11,1.11,0,0,0-1.11.08.64.64,0,0,0-.56.09l-.18.4a.67.67,0,0,0,.08.3l.08,0a.56.56,0,0,0-.32.47v.2a1.42,1.42,0,0,0,.69,1,1.57,1.57,0,0,0,1.37-.27,2.18,2.18,0,0,1,.35-.19,1.46,1.46,0,0,1,.51.36c.41.37,1,.93,1.83.38l.2-.38v-2l-.23-.41-.14-.09a2.16,2.16,0,0,0-1.62-.36l-.24.13A1.51,1.51,0,0,0,368.08,270.89Z" transform="translate(1.4 60.75)" style="fill:#caa64b"/><path d="M171.78,353.49l.19.79.2.06a1.44,1.44,0,0,0,1.25,0,.91.91,0,0,0,.37-.64l-.12-.4C173.26,352.86,172.18,353.1,171.78,353.49Z" transform="translate(1.4 60.75)" style="fill:#caa64b"/><path d="M389.69,374a.8.8,0,0,0-.77.14.85.85,0,0,0-.27.65.92.92,0,0,0,.55.9c.11,0,.49.1.76-.4l-.16-.29a.89.89,0,0,0,.22-.55Z" transform="translate(1.4 60.75)" style="fill:#caa64b"/><path d="M269.64,374.84l-.14-.55a1.75,1.75,0,0,0-1.34-.46l-.57,0-.44.36-.14.08-.24.33a1.73,1.73,0,0,0,1.35,2.24,1.27,1.27,0,0,0,1-.26.71.71,0,0,0,.2,0l.34-.42c0-.08,0-.14,0-.21h0a2.74,2.74,0,0,0-.08-.65A.46.46,0,0,1,269.64,374.84Z" transform="translate(1.4 60.75)" style="fill:#caa64b"/><path d="M182.88,370.29a1.51,1.51,0,0,1,0-.22.16.16,0,0,1-.06.1v-.72a1.77,1.77,0,0,0-1.79-.07.77.77,0,0,0-.47.68.69.69,0,0,0,.14.4l-.16.45a1.33,1.33,0,0,0,1.14.63,1.54,1.54,0,0,1,.53.1l.43-.07a1,1,0,0,0,.34-.79A2.31,2.31,0,0,0,182.88,370.29Z" transform="translate(1.4 60.75)" style="fill:#caa64b"/><path d="M233.57,345.9s0,.08,0,.2a.91.91,0,0,1-.06.29l.18.55a1.47,1.47,0,0,0,1.48.24,1.71,1.71,0,0,0,.84-1.36l-.32-.53-.18-.06a3.36,3.36,0,0,0-1.46-.16l-.32.24A1.22,1.22,0,0,0,233.57,345.9Z" transform="translate(1.4 60.75)" style="fill:#caa64b"/></svg>