
<svg xmlns="http://www.w3.org/2000/svg" viewBox="0 0 318.92 7.51">
  <path
    d="M606.78,122.48H580.49c-3.41,0-3.41,5.29,0,5.29h26.29c3.41,0,3.41-5.29,0-5.29Z"
    transform="translate(-290.42 -120.81)"
    style="fill: #caa64b"
  />
  <path
    d="M319.26,122.48H293c-3.41,0-3.41,5.29,0,5.29h26.28c3.41,0,3.41-5.29,0-5.29Z"
    transform="translate(-290.42 -120.81)"
    style="fill: #caa64b"
  />
  <path
    d="M335.2,120.92h2.93a3.34,3.34,0,0,1,3.55,3.56,3.5,3.5,0,0,1-3.62,3.74H335.2Zm1.59,6H338c1.41,0,2.05-1,2.05-2.47a2,2,0,0,0-2-2.29h-1.21Z"
    transform="translate(-290.42 -120.81)"
    style="fill: #fff"
  />
  <path
    d="M347.83,128.22l-1.89-7.3h1.7c.7,3.35,1,4.84,1.1,5.65h0c.27-1.35,1-3.89,1.42-5.65h1.43c.39,1.4,1.13,4.23,1.37,5.57h0c.25-1.61,1-4.44,1.23-5.57h1.54l-2,7.3H352.1c-.38-1.62-1-4-1.29-5.23h0c-.27,1.3-.93,3.76-1.33,5.23Z"
    transform="translate(-290.42 -120.81)"
    style="fill: #fff"
  />
  <path
    d="M360.35,120.92h1.59v2.84h3v-2.84h1.6v7.3h-1.6v-3.16h-3v3.16h-1.59Z"
    transform="translate(-290.42 -120.81)"
    style="fill: #fff"
  />
  <path
    d="M379.51,126.53l-.57,1.69h-1.57l2.5-7.3h2l2.62,7.3h-1.68l-.61-1.69Zm2.35-1.29c-.52-1.55-.86-2.53-1-3.19h0c-.18.72-.54,1.87-1,3.19Z"
    transform="translate(-290.42 -120.81)"
    style="fill: #fff"
  />
  <path
    d="M389.07,128.22v-7.3h2c.92,1.63,2.62,4.6,3,5.39h0c-.09-.76-.09-2-.09-3.23v-2.16h1.45v7.3h-1.88c-.79-1.43-2.67-4.82-3-5.67h0c.06.64.08,2.14.08,3.44v2.23Z"
    transform="translate(-290.42 -120.81)"
    style="fill: #fff"
  />
  <path
    d="M400.79,120.92h2.93a3.34,3.34,0,0,1,3.55,3.56,3.5,3.5,0,0,1-3.62,3.74h-2.86Zm1.59,6h1.2c1.41,0,2-1,2-2.47a2,2,0,0,0-2-2.29h-1.21Z"
    transform="translate(-290.42 -120.81)"
    style="fill: #fff"
  />
  <path
    d="M425.32,124.54a3.5,3.5,0,0,1-3.63,3.78c-2.32,0-3.52-1.66-3.52-3.76a3.49,3.49,0,0,1,3.62-3.75A3.42,3.42,0,0,1,425.32,124.54Zm-5.51,0c0,1.43.63,2.51,1.94,2.51s1.92-1.17,1.92-2.48-.57-2.46-1.94-2.46S419.81,123.11,419.81,124.53Z"
    transform="translate(-290.42 -120.81)"
    style="fill: #fff"
  />
  <path
    d="M431.85,120.92v4.34c0,1.41.73,1.82,1.53,1.82s1.47-.48,1.47-1.82v-4.34h1.61v4.27c0,2.5-1.48,3.13-3.1,3.13s-3.1-.66-3.1-3.1v-4.3Z"
    transform="translate(-290.42 -120.81)"
    style="fill: #fff"
  />
  <path
    d="M443.39,122.21h-2.24v-1.29h6.07v1.29H445v6h-1.6Z"
    transform="translate(-290.42 -120.81)"
    style="fill: #fff"
  />
  <path
    d="M453.07,126.08c.17.73.69,1.06,1.55,1.06s1.22-.34,1.22-.87-.36-.86-1.62-1.15c-2-.46-2.5-1.19-2.5-2.18,0-1.27,1-2.13,2.7-2.13,2,0,2.74,1,2.85,2.11h-1.6c-.09-.45-.34-.94-1.29-.94-.65,0-1,.26-1,.78s.31.72,1.51,1c2.14.51,2.61,1.29,2.61,2.33,0,1.32-1,2.24-3,2.24s-2.87-.91-3-2.24Z"
    transform="translate(-290.42 -120.81)"
    style="fill: #fff"
  />
  <path d="M463.87,120.92v7.3h-1.59v-7.3Z" transform="translate(-290.42 -120.81)" style="fill: #fff" />
  <path
    d="M470.85,122.21H468.6v-1.29h6.08v1.29h-2.24v6h-1.59Z"
    transform="translate(-290.42 -120.81)"
    style="fill: #fff"
  />
  <path
    d="M484.38,125.07h-3.53v1.85h3.9l-.2,1.3H479.3v-7.3h5.23v1.29h-3.68v1.56h3.53Z"
    transform="translate(-290.42 -120.81)"
    style="fill: #fff"
  />
  <path
    d="M495.78,120.92h3.05c1.57,0,2.63.87,2.63,2.26,0,1.58-1.21,2.32-2.67,2.32h-1.42v2.72h-1.59Zm1.59,3.32h1.22c.74,0,1.26-.29,1.26-1s-.55-1-1.23-1h-1.25Z"
    transform="translate(-290.42 -120.81)"
    style="fill: #fff"
  />
  <path
    d="M507.86,125.29v2.93H506.3v-7.3h3.24c1.6,0,2.47.87,2.47,2a1.76,1.76,0,0,1-1.07,1.73c.36.14.92.51.92,1.82v.36a5.84,5.84,0,0,0,.1,1.39h-1.51a5.13,5.13,0,0,1-.15-1.64v-.11c0-.79-.21-1.18-1.39-1.18Zm0-1.26h1.33c.87,0,1.21-.32,1.21-.93s-.39-.93-1.17-.93h-1.37Z"
    transform="translate(-290.42 -120.81)"
    style="fill: #fff"
  />
  <path
    d="M522.15,125.07h-3.53v1.85h3.89l-.19,1.3h-5.25v-7.3h5.23v1.29h-3.68v1.56h3.53Z"
    transform="translate(-290.42 -120.81)"
    style="fill: #fff"
  />
  <path
    d="M528.5,126.08c.17.73.69,1.06,1.55,1.06s1.22-.34,1.22-.87-.36-.86-1.62-1.15c-2-.46-2.5-1.19-2.5-2.18,0-1.27,1-2.13,2.7-2.13,2,0,2.74,1,2.85,2.11h-1.6c-.09-.45-.34-.94-1.29-.94-.65,0-1,.26-1,.78s.31.72,1.51,1c2.14.51,2.61,1.29,2.61,2.33,0,1.32-1,2.24-3,2.24s-2.87-.91-3-2.24Z"
    transform="translate(-290.42 -120.81)"
    style="fill: #fff"
  />
  <path
    d="M542.79,125.07h-3.53v1.85h3.89l-.19,1.3h-5.25v-7.3h5.23v1.29h-3.68v1.56h3.53Z"
    transform="translate(-290.42 -120.81)"
    style="fill: #fff"
  />
  <path
    d="M547.93,128.22v-7.3h2c.92,1.63,2.62,4.6,3,5.39h0c-.08-.76-.08-2-.08-3.23v-2.16h1.44v7.3h-1.87c-.79-1.43-2.68-4.82-3-5.67h0c.05.64.07,2.14.07,3.44v2.23Z"
    transform="translate(-290.42 -120.81)"
    style="fill: #fff"
  />
  <path
    d="M561.23,122.21H559v-1.29h6.08v1.29h-2.24v6h-1.59Z"
    transform="translate(-290.42 -120.81)"
    style="fill: #fff"
  />
</svg>