<?xml version="1.0" encoding="utf-8"?>

<!DOCTYPE svg PUBLIC "-//W3C//DTD SVG 1.1//EN" "http://www.w3.org/Graphics/SVG/1.1/DTD/svg11.dtd">
<!-- Uploaded to: SVG Repo, www.svgrepo.com, Generator: SVG Repo Mixer Tools -->
<svg fill="#000000" version="1.1" id="Layer_1" xmlns="http://www.w3.org/2000/svg"
	 width="800px" height="200px" viewBox="-72 0 216 72" xml:space="preserve">
<g>
	<path d="M60.986,27.375L38.093,4.625C37.717,4.244,37.205,4,36.67,4H16.556C12.967,4,10,6.758,10,10.772v50.137
		C10,64.652,12.666,68,16.556,68h38.137C58.359,68,62,64.986,62,60.909V28.796C62,28.27,61.355,27.749,60.986,27.375z M38,10.112
		L56.342,28h-14.74C39.343,28,38,25.982,38,23.864V10.112z M54.693,64H16.556C14.856,64,14,62.471,14,60.908V10.772
		C14,9.221,14.936,8,16.556,8h19.278L36,8.162v15.702C36,27.05,38.271,30,41.602,30H58v30.909C58,62.475,56.29,64,54.693,64z"/>
	<path d="M20.124,39h8c0.553,0,1-0.447,1-1s-0.447-1-1-1h-8c-0.552,0-1,0.447-1,1S19.572,39,20.124,39z"/>
	<path d="M32.125,39h10c0.553,0,1-0.447,1-1s-0.447-1-1-1h-10c-0.553,0-1.001,0.447-1.001,1S31.572,39,32.125,39z"/>
	<path d="M50.125,37h-4c-0.553,0-1,0.447-1,1s0.447,1,1,1h4c0.553,0,1-0.447,1-1S50.678,37,50.125,37z"/>
	<path d="M20.124,44h4c0.553,0,1-0.447,1-1s-0.447-1-1-1h-4c-0.552,0-1,0.447-1,1S19.572,44,20.124,44z"/>
	<path d="M28.124,42c-0.552,0-1,0.447-1,1s0.448,1,1,1h8.001c0.553,0,1-0.447,1-1s-0.447-1-1-1H28.124z"/>
	<path d="M50.125,42h-10c-0.553,0-1,0.447-1,1s0.447,1,1,1h10c0.553,0,1-0.447,1-1S50.678,42,50.125,42z"/>
	<path d="M20.124,50h10c0.553,0,1-0.447,1-1s-0.447-1-1-1h-10c-0.552,0-1,0.447-1,1S19.572,50,20.124,50z"/>
	<path d="M44.125,48h-10c-0.553,0-1,0.447-1,1s0.447,1,1,1h10c0.553,0,1-0.447,1-1S44.678,48,44.125,48z"/>
	<path d="M50.125,48h-2c-0.553,0-1,0.447-1,1s0.447,1,1,1h2c0.553,0,1-0.447,1-1S50.678,48,50.125,48z"/>
	<path d="M24.124,53h-4c-0.552,0-1,0.447-1,1s0.448,1,1,1h4c0.553,0,1-0.447,1-1S24.677,53,24.124,53z"/>
	<path d="M35.125,53h-7.001c-0.552,0-1,0.447-1,1s0.448,1,1,1h7.001c0.552,0,1-0.447,1-1S35.677,53,35.125,53z"/>
</g>
</svg>