<svg xmlns="http://www.w3.org/2000/svg" viewBox="0 0 241 116.491"><path d="M230.204 77.044h-2.32V49.763c0-10.673-10.207-19.187-22.851-19.301-6.634.051-12.068.888-18.255 4.797v-21.28c.139-3.998-2.814-6.523-6.545-6.523l-11.371-.008c-3.674.058-6.635 2.852-6.635 6.306 0 3.453 3.166 6.262 6.844 6.32h4.706V77.09l-2.365.002c-3.688.046-6.64 2.918-6.64 6.456 0 3.537 3.09 6.409 6.777 6.454h17.527c3.73 0 6.752-2.888 6.752-6.454s-2.958-6.467-6.685-6.467l-2.419.009V52.402c5.021-5.343 10.614-9.185 15.789-9.185 6.073 0 12.055 1.502 12.138 9.593l.004 24.213-2.279.002c-3.687.046-6.662 2.92-6.662 6.451 0 3.539 3.023 6.415 6.708 6.463l17.597-.004c3.728 0 6.749-2.89 6.749-6.459.003-3.561-2.836-6.432-6.564-6.432zM77.682 77.371h-4.554l-.007-56.836h4.649c3.729 0 6.75-2.929 6.75-6.545 0-3.617-3.174-6.554-6.905-6.554L66.653 7.43c-3.676.06-6.548 2.709-6.548 6.285l-.007 23.253c-5.456-3.868-12.852-6.154-20.18-6.154-19.007 0-32.191 15.641-32.191 31.097 0 17.177 12.551 30.646 32.736 30.558 7.418-.034 14.258-1.528 19.747-5.478 1.061 2.013 3.152 3.144 5.607 3.276l11.851-.003c3.729 0 6.766-2.728 6.766-6.348 0-3.611-3.025-6.545-6.752-6.545zm-36.854 2.185c-13.46.088-20.188-7.187-20.007-18.006.168-9.944 9.186-17.55 19.461-18.006 10.738-.474 20.006 8.88 20.006 18.823 0 9.945-8.714 17.115-19.46 17.189zM89.478 32.261h-.003M89.478 32.261"/><path d="M154.602 32.37l-16.392.011c-3.677.059-6.806 2.968-6.635 6.545.177 3.818 2.556 6.434 6.602 6.521l2.765-.017-5.16 21.512-7.533-20.117c-1.087-3.218-3.39-5.443-6.498-5.443-3.24 0-5.181 1.544-6.585 5.851l-7.387 19.743-5.195-21.618h2.81c3.729 0 6.864-2.933 6.864-6.548 0-3.616-3.373-6.557-7.104-6.557l-15.675.011c-3.678.061-6.638 2.967-6.638 6.546 0 3.578 2.959 6.489 6.638 6.548l9.3 38.032c1.045 4.798 3.781 7.642 7.969 7.642 3.364 0 6.513-2.066 7.698-5.138l7.433-20.159 7.389 19.733c1.44 3.336 4.23 5.557 7.672 5.383 4.499-.227 7.032-2.73 8.208-7.648 0 0 9.079-37.73 9.092-37.73 3.725 0 6.752-2.934 6.752-6.545 0-3.622-2.66-6.558-6.39-6.558z"/><ellipse fill="#FFFFFFF" cx="206.422" cy="14.168" rx="6.82" ry="6.728"/><path fill="#FFFFFFF" d="M152.95 14.168c0 3.715-3.052 6.724-6.817 6.724-3.767 0-6.823-3.009-6.823-6.724 0-3.718 3.056-6.733 6.823-6.733 3.765 0 6.817 3.015 6.817 6.733z"/><ellipse fill="#FFFFFFF" cx="122.488" cy="14.168" rx="6.819" ry="6.728"/><path fill="#FFFFFFF" d="M106.209 14.168c0 3.715-3.052 6.728-6.818 6.728-3.767 0-6.822-3.012-6.822-6.728 0-3.718 3.055-6.733 6.822-6.733s6.818 3.015 6.818 6.733z"/><path fill="#FFFFFFF" d="M50.739 14.168c0 3.715-3.056 6.728-6.818 6.728-3.771 0-6.823-3.012-6.823-6.728 0-3.718 3.052-6.733 6.823-6.733 3.762 0 6.818 3.015 6.818 6.733z"/></svg>