<svg version="1.1" id="Laag_1" xmlns="http://www.w3.org/2000/svg" x="0" y="0" viewBox="0 0 472 564" xml:space="preserve"><style>.st0{fill:#e9d8fd}.st1{fill:#8978b5}.st2{fill:#fff}.st3,.st4{fill:#d5211c;stroke:#fff;stroke-width:.75;stroke-miterlimit:10}.st4{fill:#24365b}</style><path transform="rotate(90 235 124.5)" class="st0" d="M226.5 26.5h17v196h-17z"/><path transform="rotate(90 239.8 403)" class="st0" d="M231.2 220.8h17v364.5h-17z"/><path transform="rotate(-14.2 342 280)" class="st0" d="M333.5 7.5h17v545h-17z"/><path transform="rotate(11.9 136 281)" class="st0" d="M127.5 8.5h17v545h-17z"/><path class="st1" d="M71 268.6l-.6-.7-.3-.4-.3-.4-.9-1.3A108.2 108.2 0 0152.1 224a139.7 139.7 0 011.4-53.5c2.6-12.4 6.7-24.5 11.8-36.1.5-1.1-1.1-2-1.6-.9A175.1 175.1 0 0048.3 197c-.5 15.1 1.5 30.3 6.5 44.7a98.4 98.4 0 0014.9 28.1c.7 1 2-.3 1.3-1.2z"/><path class="st1" d="M77.4 249c4.2-7.2 3.5-17.4 3.5-17.4s-4 2-7.9 5.3l-.6.5a25 25 0 00-7.9 14.6l-.1.7c-.7 4.4-.4 8-.4 8s9.2-4.5 13.4-11.7zM67.4 223.9c2.2-2.7 3.4-5.8 5-8.9l.5-1.3c1.2-3.9 1.6-7.2 1.6-7.2s-3.1.9-6.8 2.9l-.6.3c-4 1.7-6.7 5-9.2 8.2l-.9 1.2c-3.5 6.1-4.2 13.3-4.2 13.3s7.6-2.2 13.1-7.1l1-.9.5-.5zM65.9 194.2c1-1.3 1.4-2.9 2.3-4.1l.3-.7c2.2-5 2.8-9.8 2.8-9.8s-10 2.7-15.5 8.9-6.9 16.4-6.9 16.4 3.2-.8 6.9-2.7l.6-.3c3.3-1.8 6.2-4.5 8.9-7.1l.6-.6zM70.9 162.8l1.9-1.7.6-.5c4.9-5 7.6-11.8 7.6-11.8s-2 .1-4.8.5l-1.3.2c-4.3.7-8.7 1.6-11.8 4.8l-.6.5c-6.1 5-9.3 13.4-9.3 13.4s3.3-.1 7.3-1l.7-.2c3.1-1.1 6.4-2.1 9.3-3.9l.4-.3zM78 129.7a55 55 0 005.7-8.8l.3-.7c1.7-4.1 2.3-7.7 2.3-7.7s-2.5.6-5.8 1.9l-.6.3a30.5 30.5 0 00-11.4 8.6l-.5.7c-3.8 5.9-5.1 13-5.1 13s7.2-1.7 12.9-5.8l.6-.5c.5-.4.7-.8 1.2-.9l.4-.1z"/><path class="st1" d="M62.5 119.4c-2-4.3-5.1-8.2-8.6-11.5l-.8-.7-2-1.6s-.4 1.9-.7 4.7l-.1 1.2c0 4.4-.3 9.1 2.1 13.2l.4.7c3.5 6.7 10.4 11.6 10.4 11.6s2-8.7-.2-16.2l-.2-.7-.3-.7zM51.6 150.2c-1-2.2-2-4.5-3.8-6.4l-.9-1.1c-3.2-3.6-6.5-6-6.5-6s-2.3 9.9.7 17.7c3 7.8 11.4 13.7 11.4 13.7s1.5-6.6.5-13.2l-.3-1.5-.4-1.6-.7-1.6zM44.7 189.5c-3.8-3.5-7.3-7.6-12.2-9.2l-.9-.4-2.4-1a40 40 0 002.2 10c2.2 3 4 5.9 6.3 9.1 1 1.4 2.7 2.6 4.3 3.7l.6.4c3.9 2.3 7.3 3.5 7.3 3.5s-.5-6.7-3.4-12.8l-.3-.7c-.3-.8-.9-1.4-1.2-2.2l-.3-.4zM42.2 217.7c-6.9-4.8-17.2-5.1-17.2-5.1s3.7 9.5 10.6 14.3c6.9 4.8 17.2 5.1 17.2 5.1s-3.7-9.5-10.6-14.3zM46.7 248.1c-2-1.1-4.5-.8-6.8-1h-.7c-4.2.1-7.4.8-7.4.8s6 8.3 13.8 11.3c7.8 3 17.9.8 17.9.8s-3.1-4.3-7.7-7.8l-.7-.5c-2.7-1.4-5.3-2.2-8-3.3l-.4-.3z"/><g><path class="st1" d="M233 404.5c-44.6 0-86.5-17.4-118-48.9s-48.9-73.4-48.9-118 17.4-86.5 48.9-118a165.8 165.8 0 01118-48.9c44.6 0 86.5 17.4 118 48.9s48.9 73.4 48.9 118-17.4 86.5-48.9 118a165.8 165.8 0 01-118 48.9zm0-331.6c-44 0-85.4 17.1-116.5 48.3a163.8 163.8 0 00-48.3 116.5c0 44 17.1 85.4 48.3 116.5A163.8 163.8 0 00233 402.5c44 0 85.4-17.1 116.5-48.3a163.8 163.8 0 0048.3-116.5c0-44-17.1-85.4-48.3-116.5A163.4 163.4 0 00233 72.9z"/></g><g><path class="st1" d="M83.7 167.5l-.1-.9v-.5-.5-1.6a109.9 109.9 0 0110.9-43.7 138 138 0 0132.6-42.5c9.4-8.5 19.8-15.9 30.8-22.3 1-.6.3-2.3-.8-1.7a173.4 173.4 0 00-49.8 42.4 123.2 123.2 0 00-21 39.9 99.4 99.4 0 00-4.4 31.5c.1 1.3 1.9 1 1.8-.1z"/><path class="st1" d="M100.4 155.4c7.6-3.4 13-12 13-12s-4.4-.8-9.5-.3l-.7.1c-5.5.3-10.9 3.4-15 7.1l-.5.5c-3.1 3.2-5.1 6.2-5.1 6.2s10.2 1.7 17.8-1.6zM107.1 129.2c3.4-.9 6.2-2.6 9.3-4.3l1.2-.8c3.3-2.5 5.5-4.9 5.5-4.9s-3.1-1.1-7.2-1.7l-.7-.1a24 24 0 00-12.2 1.2l-1.4.4c-6.4 2.9-11.2 8.3-11.2 8.3s7.5 2.6 14.7 1.9l1.4-.1.6.1zM123.3 104.3c1.6-.4 2.8-1.5 4.3-1.9l.7-.4c4.7-2.8 8-6.3 8-6.3s-9.6-3.7-17.8-1.9c-8.1 1.8-15.2 9.2-15.2 9.2s3 1.2 7.2 1.9l.7.1c3.8.5 7.7 0 11.3-.5l.8-.2zM145.9 81.8c.9 0 1.8-.2 2.6-.3l.8-.1c6.9-1.1 13.1-5.1 13.1-5.1s-1.6-1.1-4.2-2.4l-1.2-.6c-4-2-7.9-3.8-12.4-3h-.8c-7.8.5-15.4 5.3-15.4 5.3a47 47 0 007.3 3.8c3.1 1 6.4 2.1 9.8 2.3.1.2.2.1.4.1zM171.1 59.2a55 55 0 009.8-3.7l.7-.4c3.8-2.4 6.4-4.9 6.4-4.9s-2.4-1-5.8-1.8l-.6-.2a30 30 0 00-14.3.3l-.8.3c-6.6 2.5-11.7 7.6-11.7 7.6s6.8 2.9 13.8 2.9h.8c.6 0 1-.2 1.5 0 0-.2.1-.1.2-.1z"/><path class="st1" d="M164.6 41.7c.9-4.6.7-9.6-.2-14.3l-.2-1.1-.7-2.5s-1.5 1.3-3.3 3.4l-.8.9c-2.6 3.5-5.5 7.2-6.1 11.9l-.1.8c-1.1 7.5 1.6 15.5 1.6 15.5s6.8-5.9 9.4-13.2l.2-.7.2-.7zM137.7 60.3c.5-2.4 1-4.8.6-7.4l-.1-1.5c-.4-4.8-1.7-8.6-1.7-8.6s-7.7 6.7-9.9 14.7c-2.2 8 1.2 17.8 1.2 17.8s5.1-4.4 8.2-10.4l.7-1.4.6-1.5c0-.5.2-1.1.4-1.7zM108.9 88.1c-1-5.1-1.4-10.4-4.5-14.6l-.5-.9-1.4-2.2s-2.3 3.7-3.9 8.6l-.2.7-.3 11.1c0 1.8.6 3.7 1.3 5.5l.3.7c1.8 4.2 3.9 7.1 3.9 7.1s3.6-5.7 4.8-12.3l.1-.8c.3-.8.1-1.7.4-2.5.1-.2.1-.3 0-.4zM90.4 109.3c-2.7-7.9-10.9-14.2-10.9-14.2s-2.6 9.9.1 17.8 10.9 14.2 10.9 14.2 2.6-9.9-.1-17.8zM76.1 136.6c-1-2.1-3.2-3.3-4.9-4.8l-.6-.4c-3.4-2.4-6.4-3.7-6.4-3.7s-.1 10.2 4.5 17.3c4.6 7 14 11.2 14 11.2s0-5.3-1.6-10.9l-.3-.8c-1.3-2.7-3-4.9-4.5-7.4l-.2-.5z"/></g><g><path class="st1" d="M153.5 93.1l.5-.8.3-.4.3-.4.9-1.3A111.2 111.2 0 01190 61.3a139.7 139.7 0 0151.3-15.2c12.6-1.3 25.4-1.2 38 .1 1.2.1 1.6-1.7.4-1.8a174.7 174.7 0 00-65.2 5A125.4 125.4 0 00174 69.3a97.7 97.7 0 00-22.1 22.9c-.7 1.1 1 1.9 1.6.9z"/><path class="st1" d="M174.1 93.2c8.1 1.8 17.6-2 17.6-2s-3.1-3.2-7.5-5.9l-.6-.4c-4.6-3-10.8-3.6-16.3-3l-.7.1c-4.4.7-7.8 2.1-7.8 2.1s7.2 7.3 15.3 9.1zM194.9 75.9c3.3 1.3 6.6 1.5 10 2h1.4c4.1 0 7.3-.7 7.3-.7s-1.9-2.7-4.8-5.6l-.5-.5a24.4 24.4 0 00-10.6-6.2l-1.4-.5c-6.9-1.4-14 .1-14 .1s4.5 6.5 10.8 10.2l1.2.7.6.5zM222.7 65.3c1.5.6 3.2.4 4.6 1l.7.1c5.4.5 10.2-.3 10.2-.3s-5.6-8.7-13.3-12c-7.6-3.3-17.7-1.5-17.7-1.5s1.8 2.7 4.7 5.7l.5.5a42 42 0 0010.3 6.5zM254.1 60.4l2.2 1.3.7.4c6.3 3.2 13.5 3.6 13.5 3.6s-.7-1.9-2-4.4l-.6-1.1c-2.1-3.9-4.2-7.8-8.2-9.7l-.7-.4c-6.6-4.2-15.6-4.7-15.6-4.7s1.1 3.1 3.3 6.7l.4.6c2 2.6 3.9 5.5 6.6 7.7.2-.2.3-.1.4 0zM287.8 56.8a60.3 60.3 0 0010.9 2.8c4.5.3 8-.2 8-.2s-1.3-2.2-3.6-4.9l-.4-.5a31.5 31.5 0 00-11.7-8.2l-.8-.2c-6.8-1.8-14-.8-14-.8s3.8 6.3 9.5 10.4l.6.4c.5.3.9.4 1.2.9l.3.3z"/><path class="st1" d="M292.8 38.9a37.7 37.7 0 008.7-12.7l.9-2.4s-1.9.2-4.7.8l-1.2.3c-4.2 1.3-8.7 2.6-11.9 6l-.6.6c-5.3 5.4-7.8 13.5-7.8 13.5s8.9-.8 15.4-5.2l.6-.4.6-.5zM260.1 38.1c1.8-1.6 3.6-3.3 4.9-5.6l.8-1.2c2.5-4.2 3.7-8 3.7-8s-10.2.9-16.6 6.1c-6.5 5.2-9.5 15-9.5 15s6.7-.6 12.7-3.6l1.4-.7 1.4-.9 1.2-1.1zM220.6 43.7c2.2-4.7 5-9.3 5-14.4l.1-1 .2-2.6s-4.1 1.6-8.2 4.7l-.6.5-6.7 8.8c-1 1.4-1.7 3.4-2.2 5.2l-.2.7c-1 4.4-1 8-1 8s6.2-2.5 11.1-7.2l.6-.5c.7-.5 1.1-1.3 1.8-1.8-.1-.2 0-.3.1-.4zM193 50c2.4-8-.5-17.9-.5-17.9s-7.9 6.5-10.4 14.5c-2.4 8 .5 17.9.5 17.9s8-6.5 10.4-14.5zM165.5 63.7c.4-2.3-.6-4.6-1.1-6.7l-.2-.7c-1.4-4-3-6.8-3-6.8s-6.1 8.2-6.5 16.6c-.4 8.4 4.8 17.3 4.8 17.3s3.1-4.3 5.1-9.8l.2-.8c.5-3 .4-5.8.7-8.6v-.5z"/></g><g><path class="st1" d="M253.6 74l.9-.3.5-.2.4-.2 1.5-.5a111.8 111.8 0 0144.9-3.1c17.8 2.4 34.9 8.9 50.4 17.9a187 187 0 0130.7 22.4c.9.8 2.3-.5 1.4-1.2a173.1 173.1 0 00-55.7-34.2 127 127 0 00-44.5-7.7 100 100 0 00-31.3 5.6c-1.1.3-.3 1.9.8 1.5z"/><path class="st1" d="M270.3 86.1a35 35 0 0015.4 8.7s-.6-4.4-2.6-9.2l-.3-.7a25 25 0 00-11.4-12l-.6-.3c-4-2-7.5-2.9-7.5-2.9s1.4 10.2 7 16.4zM297.2 84.4c1.9 2.9 4.4 5.1 6.9 7.5l1.1.8c3.4 2.4 6.3 3.7 6.3 3.7s.1-3.3-.6-7.4l-.1-.7c-.4-4.3-2.7-7.9-4.9-11.2l-.9-1.2c-4.7-5.2-11.4-8.1-11.4-8.1s-.2 7.9 2.7 14.6l.6 1.3.3.7zM325.9 92.1c.9 1.3 2.3 2.2 3.2 3.5l.6.5c4.1 3.6 8.4 5.7 8.4 5.7s.5-10.3-3.7-17.5c-4.2-7.2-13.4-11.6-13.4-11.6s-.2 3.3.4 7.4l.1.7a40 40 0 004.4 11.3zM354.3 106.6l1 2.4.3.7c3.2 6.2 8.9 10.8 8.9 10.8s.6-1.9 1-4.7l.2-1.3c.6-4.4 1.2-8.7-.9-12.7l-.3-.7c-2.9-7.3-9.8-13-9.8-13s-.9 3.1-1.3 7.3l-.1.7c0 3.3 0 6.7.8 10.1l.2.4zM383.6 123.6c2 2.9 4.1 5.7 6.6 8.2l.6.5c3.4 2.9 6.6 4.6 6.6 4.6s.2-2.6 0-6.1l-.1-.7c-.3-4.9-2.3-9.5-4.6-13.5l-.5-.7c-4.4-5.5-10.8-8.8-10.8-8.8s-.6 7.3 1.5 14l.3.7c.2.6.5.9.5 1.4l-.1.4z"/><path class="st1" d="M398.2 112c4.7-.5 9.3-2.3 13.6-4.6l.9-.6 2.2-1.4s-1.7-1-4.2-2.1l-1.2-.5c-4.2-1.4-8.5-3-13.2-2.1l-.8.1c-7.4 1.3-14.2 6.3-14.2 6.3s7.7 4.6 15.5 4.9h1.4zM372.2 92.2c2.4-.3 4.9-.6 7.3-1.7l1.4-.6c4.4-1.9 7.7-4.3 7.7-4.3s-8.7-5.3-17-4.8c-8.3.4-16.5 6.6-16.5 6.6a40 40 0 0013.9 4.8l1.6.1 1.6-.1zM336.9 73.4c4.5-2.5 9.5-4.6 12.5-8.8l.7-.8 1.7-2s-4.3-1.1-9.4-1h-.7L331.1 64a15 15 0 00-4.8 2.9l-.6.5c-3.4 3-5.6 5.9-5.6 5.9s6.5 1.6 13.2.7l.8-.1c.8 0 1.6-.4 2.5-.4l.3-.1zM311 62.4c6.7-5 10.2-14.8 10.2-14.8s-10.2.6-16.9 5.6c-6.7 5-10.2 14.8-10.2 14.8s10.2-.6 16.9-5.6zM280.6 57.2c1.6-1.6 2.2-4 3-6.1l.2-.7c1.2-4 1.5-7.3 1.5-7.3s-9.8 3.1-15 9.6c-5.3 6.5-6.3 16.8-6.3 16.8s5-1.6 9.8-4.9l.7-.5c2.1-2.1 3.7-4.4 5.6-6.5l.5-.4z"/></g><g><path class="st1" d="M345.9 117.3l.9.2.5.1.4.1 1.5.5a110.5 110.5 0 0138.1 23.9c13 12.4 23 27.7 30.3 44.1 5.1 11.6 8.9 23.8 11.7 36.1.2 1.1 2.1 1 1.8-.2a174 174 0 00-24.9-60.4 126 126 0 00-31.5-32.4c-7.3-5.1-15.3-9.5-23.8-12.5-1.6-.5-3.2-1.1-4.8-1.4-1.1-.1-1.4 1.7-.2 1.9z"/><path class="st1" d="M352.2 137c.8 8.3 7.4 16.1 7.4 16.1s2.1-3.9 3.3-9l.2-.7c1.5-5.3.1-11.4-2.2-16.4l-.3-.7c-2-4-4.4-6.7-4.4-6.7s-4.8 9.1-4 17.4zM375.1 151.4c-.2 3.5.6 6.7 1.2 10.2l.4 1.3c1.3 3.9 2.9 6.7 2.9 6.7s2-2.6 3.8-6.3l.3-.6a24 24 0 002.6-12v-1.5c-.8-7-4.4-13.3-4.4-13.3s-4.8 6.3-6.4 13.4l-.3 1.4-.1.7zM393.7 174.6c-.1 1.6.6 3.2.5 4.7l.2.7c1.2 5.3 3.5 9.6 3.5 9.6s6.5-8 7.3-16.3c.8-8.3-4.1-17.3-4.1-17.3s-2.1 2.5-4 6.2l-.3.6a41.7 41.7 0 00-3 11l-.1.8zM408.1 202.9l-.5 2.5-.1.8c-1.1 6.9.8 14 .8 14s1.6-1.2 3.6-3.2l.9-.9c3.1-3.2 6.1-6.4 6.7-10.8l.2-.8c2-7.6-.3-16.3-.3-16.3s-2.6 2-5.3 5.2l-.5.6c-1.9 2.7-4 5.4-5.2 8.6l-.3.3zM421.9 233.9c-.1 3.5-.1 7 .5 10.5l.2.7c1.1 4.4 2.7 7.6 2.7 7.6s1.7-1.9 3.5-4.9l.3-.6c2.6-4.2 3.7-9 4.2-13.6v-.8c-.3-7-3.6-13.5-3.6-13.5s-4.8 5.5-7 12.2l-.2.8c-.2.6-.1 1-.5 1.4l-.1.2z"/><path class="st1" d="M440.5 233.1c4.1 2.3 8.9 3.6 13.7 4.2l1.1.1 2.6.1s-.8-1.8-2.2-4.2l-.7-1.1c-2.5-3.6-5.1-7.5-9.4-9.5l-.7-.4c-6.8-3.3-15.2-3.2-15.2-3.2s3.5 8.3 9.7 13l.6.5c.1.3.3.4.5.5zM431.1 201.8c2.1 1.2 4.3 2.4 6.9 2.9l1.4.4c4.7 1.1 8.7 1 8.7 1s-4-9.4-10.9-13.9c-7-4.5-17.2-4.4-17.2-4.4s2.6 6.2 7.3 11l1.1 1.1 1.3 1 1.4.9zM413.6 165.9c5.1.6 10.3 1.9 15.3.3l1-.2 2.5-.6s-2.8-3.4-7-6.3l-.6-.4-10.4-3.7a17.2 17.2 0 00-6.3-.4c-4.5.4-8 1.5-8 1.5s4.3 5.2 10.2 8.3l.7.4c.7.5 1.5.6 2.3 1.1h.3zM399.1 141.7c8.4-.1 16.9-6 16.9-6s-8.6-5.5-17-5.4c-8.4.1-16.9 6-16.9 6s8.6 5.5 17 5.4zM377.6 119.7c2.3-.4 4.2-2 6.1-3.2l.6-.4c3.3-2.5 5.5-5 5.5-5s-9.7-3.2-17.8-1c-8.1 2.2-15 9.9-15 9.9s5 1.7 10.8 1.8l.8-.1c3-.4 5.6-1.4 8.4-2h.6z"/></g><g><path class="st1" d="M395.1 206.7l.6.7.3.4.3.4.9 1.3a108.2 108.2 0 0116.8 41.7c3.2 17.7 2.3 36-1.4 53.5a183.7 183.7 0 01-11.8 36.1c-.5 1.1 1.1 2 1.6.9a175.1 175.1 0 0015.4-63.5c.5-15.1-1.5-30.3-6.4-44.7a98.4 98.4 0 00-14.9-28.1c-.9-.9-2.2.4-1.4 1.3z"/><path class="st1" d="M388.6 226.3c-4.2 7.2-3.5 17.4-3.5 17.4s4-2 7.9-5.3l.6-.5a25 25 0 007.9-14.6l.1-.7c.7-4.4.4-8 .4-8s-9.2 4.5-13.4 11.7zM398.6 251.4c-2.2 2.7-3.4 5.8-5 8.9l-.5 1.3c-1.3 3.9-1.6 7.2-1.6 7.2s3.1-.9 6.8-2.9l.6-.3c4-1.7 6.7-5 9.2-8.2l.9-1.2c3.5-6.1 4.2-13.3 4.2-13.3s-7.6 2.2-13.1 7.1l-1 .9-.5.5zM400.1 281.1c-1 1.3-1.4 2.9-2.3 4.1l-.3.7c-2.2 5-2.8 9.8-2.8 9.8s10-2.7 15.5-8.9 6.9-16.4 6.9-16.4-3.2.8-6.9 2.7l-.6.3a43.4 43.4 0 00-8.9 7.1l-.6.6zM395.1 312.5l-1.9 1.7-.6.5c-4.9 5-7.6 11.8-7.6 11.8s2-.1 4.8-.5l1.3-.2c4.3-.7 8.7-1.6 11.8-4.8l.6-.5c6.1-5 9.3-13.4 9.3-13.4s-3.3.1-7.3 1l-.7.2c-3.1 1.1-6.4 2.1-9.3 3.9l-.4.3zM388 345.6a55 55 0 00-5.7 8.8l-.3.7c-1.7 4.1-2.3 7.7-2.3 7.7s2.5-.6 5.8-1.9l.6-.3c4.6-1.8 8.3-5.1 11.4-8.6l.5-.7c3.8-5.9 5.1-13 5.1-13s-7.2 1.7-12.9 5.8l-.6.5c-.5.4-.7.8-1.2.9l-.4.1z"/><path class="st1" d="M403.5 355.9c2 4.3 5.1 8.2 8.6 11.5l.8.7 2 1.6s.4-1.9.7-4.7l.1-1.2c0-4.4.3-9.1-2.1-13.2l-.4-.7c-3.5-6.7-10.4-11.6-10.4-11.6s-2 8.7.2 16.2l.2.7.3.7zM414.4 325.1c1 2.2 2 4.5 3.8 6.4l.9 1.1c3.2 3.6 6.5 6 6.5 6s2.3-9.9-.7-17.7c-3-7.8-11.4-13.7-11.4-13.7s-1.5 6.6-.5 13.2l.3 1.5.4 1.6.7 1.6zM421.3 285.7c3.8 3.5 7.3 7.6 12.2 9.2l.9.4 2.4 1s-.3-4.4-2-9.3l-.2-.7c-2.2-3-4-5.9-6.3-9.1-1-1.4-2.7-2.6-4.3-3.7l-.6-.4c-3.9-2.3-7.3-3.5-7.3-3.5s.5 6.7 3.4 12.8l.3.7c.3.8.9 1.4 1.2 2.2l.3.4zM423.8 257.6c6.9 4.8 17.2 5.1 17.2 5.1s-3.7-9.5-10.6-14.3c-6.9-4.8-17.2-5.1-17.2-5.1s3.7 9.5 10.6 14.3zM419.3 227.2c2 1.1 4.5.9 6.8 1h.7c4.2-.1 7.4-.8 7.4-.8s-6-8.3-13.8-11.3c-7.8-3-17.9-.8-17.9-.8s3.1 4.3 7.7 7.8l.7.5c2.7 1.4 5.3 2.2 8 3.3l.4.3z"/></g><g><path class="st1" d="M382.3 307.8l.1.9v2.6a109.9 109.9 0 01-10.9 43.7 138 138 0 01-32.6 42.5 183.1 183.1 0 01-30.8 22.3c-1 .6-.3 2.3.8 1.7 18.9-11.1 36.3-25 49.8-42.4a124.2 124.2 0 0021-39.9 98.8 98.8 0 004.5-26.5l-.1-5c-.1-1.3-1.9-1-1.8.1z"/><path class="st1" d="M365.6 319.9c-7.6 3.4-13 12-13 12s4.4.8 9.5.3l.7-.1c5.5-.3 10.9-3.4 15-7.1l.5-.5c3.1-3.2 5.1-6.2 5.1-6.2s-10.2-1.8-17.8 1.6zM358.9 346.1c-3.4.9-6.2 2.6-9.3 4.3l-1.2.8c-3.3 2.5-5.5 4.9-5.5 4.9s3.1 1.1 7.2 1.7l.7.1a24 24 0 0012.2-1.2l1.4-.4c6.4-2.9 11.2-8.3 11.2-8.3s-7.5-2.6-14.7-1.9l-1.4.1-.6-.1zM342.7 371c-1.6.4-2.8 1.5-4.3 1.9l-.7.4c-4.7 2.8-8 6.3-8 6.3s9.6 3.7 17.8 1.9c8.1-1.8 15.2-9.2 15.2-9.2s-3.1-1.2-7.2-1.9l-.7-.1c-3.8-.5-7.7 0-11.3.5l-.8.2zM320.1 393.5c-.9 0-1.7.2-2.6.3l-.8.1c-6.9 1.1-13 5.1-13 5.1s1.6 1.1 4.2 2.4l1.2.6c4 2 7.9 3.8 12.4 3h.8c7.8-.5 15.4-5.3 15.4-5.3s-2.7-1.8-6.6-3.5l-.7-.3c-3.1-1-6.4-2.1-9.8-2.3-.2-.2-.3-.2-.5-.1zM294.9 416.1a55 55 0 00-9.8 3.7l-.6.4c-3.8 2.4-6.4 4.9-6.4 4.9s2.4 1 5.8 1.8l.6.2a30 30 0 0014.3-.3l.8-.3c6.6-2.5 11.7-7.6 11.7-7.6s-6.8-2.9-13.8-2.9h-.8c-.6 0-1 .2-1.5 0l-.3.1z"/><path class="st1" d="M301.4 433.6c-.9 4.6-.7 9.6.2 14.3l.2 1.1.7 2.5s1.5-1.3 3.3-3.4l.8-.9c2.6-3.5 5.5-7.2 6.1-11.9l.1-.8c1.1-7.5-1.6-15.5-1.6-15.5s-6.8 5.9-9.4 13.2l-.2.7-.2.7zM328.3 415c-.5 2.4-1 4.8-.6 7.4l.1 1.5c.4 4.8 1.7 8.6 1.7 8.6s7.7-6.7 9.9-14.7c2.2-8-1.2-17.8-1.2-17.8s-5.1 4.4-8.2 10.4l-.7 1.4-.6 1.5c0 .5-.2 1.1-.4 1.7zM357.1 387.2c1 5.1 1.4 10.4 4.5 14.6l.5.9 1.4 2.2s2.3-3.7 3.9-8.6l.2-.7.3-11.1c0-1.8-.6-3.7-1.3-5.5l-.3-.7c-1.8-4.2-3.9-7.1-3.9-7.1s-3.6 5.7-4.8 12.3l-.1.8c-.3.8-.1 1.7-.4 2.5-.1.2 0 .3 0 .4zM375.6 366c2.7 7.9 10.9 14.2 10.9 14.2s2.6-9.9-.1-17.8-10.9-14.2-10.9-14.2-2.6 9.9.1 17.8zM389.9 338.7c1 2.1 3.2 3.3 4.9 4.8l.6.4c3.4 2.4 6.4 3.7 6.4 3.7s.1-10.2-4.5-17.3c-4.6-7-14-11.2-14-11.2s0 5.3 1.6 10.9l.3.8c1.3 2.7 3 4.9 4.5 7.4l.2.5z"/></g><g><path class="st1" d="M312.5 382.2l-.5.8-.3.4-.3.4-.9 1.3A111.2 111.2 0 01276 414a139.7 139.7 0 01-51.3 15.2 185.6 185.6 0 01-38-.1c-1.2-.1-1.6 1.7-.4 1.8 21.8 2.1 44.1 1.1 65.2-5A125.4 125.4 0 00292 406a97.7 97.7 0 0022-22.9c.8-1.1-.9-1.9-1.5-.9z"/><path class="st1" d="M291.9 382.1c-8.1-1.8-17.6 2-17.6 2s3.1 3.2 7.5 5.9l.6.4c4.6 3 10.8 3.6 16.3 3l.7-.1c4.4-.7 7.8-2.1 7.8-2.1s-7.2-7.3-15.3-9.1zM271.1 399.4c-3.3-1.3-6.6-1.5-10-2h-1.4c-4.1 0-7.3.7-7.3.7s1.9 2.7 4.8 5.6l.5.5c2.9 3.3 6.8 4.8 10.6 6.2l1.4.5c6.9 1.4 14-.1 14-.1s-4.5-6.5-10.8-10.2l-1.2-.7-.6-.5zM243.3 410c-1.5-.6-3.2-.4-4.6-1l-.7-.1c-5.4-.5-10.2.3-10.2.3s5.6 8.7 13.3 12c7.6 3.3 17.7 1.5 17.7 1.5s-1.8-2.7-4.7-5.7l-.5-.5a42 42 0 00-9.5-6.2l-.8-.3zM211.9 414.9l-2.2-1.3-.7-.4c-6.3-3.2-13.5-3.6-13.5-3.6s.7 1.9 2 4.4l.6 1.1c2.1 3.9 4.2 7.8 8.2 9.7l.7.4c6.6 4.2 15.6 4.7 15.6 4.7s-1.1-3.1-3.3-6.7l-.4-.6c-2-2.6-3.9-5.5-6.6-7.7-.2.2-.3.1-.4 0zM178.2 418.5a60.3 60.3 0 00-10.1-2.7l-.8-.1c-4.5-.3-8 .2-8 .2s1.3 2.2 3.6 4.9l.4.5c3.2 3.8 7.4 6.3 11.7 8.2l.8.2c6.8 1.8 14 .8 14 .8s-3.8-6.3-9.5-10.4l-.6-.5c-.5-.3-.9-.4-1.2-.9l-.3-.2z"/><path class="st1" d="M173.2 436.4a37.7 37.7 0 00-8.7 12.7l-.9 2.4s1.9-.2 4.7-.8l1.2-.3c4.2-1.3 8.7-2.6 11.9-6l.6-.6c5.3-5.4 7.8-13.5 7.8-13.5s-8.9.8-15.4 5.2l-.6.4-.6.5zM205.9 437.2a22.2 22.2 0 00-4.9 5.6l-.8 1.3c-2.5 4.2-3.7 8-3.7 8s10.2-.9 16.6-6.1c6.5-5.2 9.5-15.1 9.5-15.1s-6.7.6-12.7 3.6l-1.4.7-1.4.9-1.2 1.1zM245.4 431.6c-2.2 4.7-5 9.3-5 14.4l-.1 1-.2 2.6s4.1-1.6 8.2-4.7l.6-.5 6.7-8.8c1-1.4 1.7-3.4 2.2-5.2l.2-.7c1-4.4 1-8 1-8s-6.2 2.5-11.1 7.2l-.5.5c-.7.5-1.1 1.3-1.8 1.8l-.2.4zM273 425.3c-2.4 8 .5 17.9.5 17.9s7.9-6.5 10.4-14.5-.5-17.9-.5-17.9-8 6.5-10.4 14.5zM300.5 411.6c-.4 2.3.6 4.6 1.1 6.7l.2.7c1.4 4 3 6.8 3 6.8s6.1-8.2 6.5-16.6c.4-8.4-4.8-17.3-4.8-17.3s-3.1 4.3-5.1 9.8l-.2.8c-.5 3-.4 5.8-.7 8.6v.5z"/></g><g><path class="st1" d="M212.4 401.3l-.9.3-.5.2-.4.2-1.5.5a111.8 111.8 0 01-44.9 3.1 137.7 137.7 0 01-50.4-17.9 187 187 0 01-30.7-22.4c-.9-.8-2.3.5-1.4 1.2 16.4 14.5 35 26.8 55.7 34.2a127 127 0 0044.5 7.7 100 100 0 0031.3-5.6c1.1-.3.3-1.9-.8-1.5z"/><path class="st1" d="M195.7 389.1c-5.5-6.2-15.4-8.7-15.4-8.7s.6 4.4 2.6 9.2l.3.7a25 25 0 0011.4 12l.6.3c4 2 7.5 2.9 7.5 2.9s-1.4-10.2-7-16.4zM168.8 390.9c-1.9-2.9-4.4-5.1-6.9-7.5l-1.1-.8c-3.4-2.4-6.3-3.7-6.3-3.7s-.1 3.3.6 7.4l.1.7c.4 4.3 2.7 7.9 4.9 11.2l.9 1.2c4.7 5.2 11.4 8.1 11.4 8.1s.2-7.9-2.7-14.6l-.6-1.3-.3-.7zM140.1 383.1c-.9-1.3-2.3-2.2-3.2-3.5l-.6-.5c-4.1-3.6-8.4-5.7-8.4-5.7s-.5 10.3 3.7 17.5c4.2 7.2 13.4 11.6 13.4 11.6s.2-3.3-.4-7.4l-.1-.7a40 40 0 00-4-10.6l-.4-.7zM111.7 368.6l-1-2.4-.3-.7c-3.2-6.2-8.9-10.8-8.9-10.8s-.6 1.9-1 4.7l-.2 1.3c-.6 4.4-1.2 8.7.9 12.7l.3.7c2.9 7.3 9.8 13 9.8 13s.9-3.1 1.3-7.3l.1-.7c0-3.3 0-6.7-.8-10.1l-.2-.4zM82.4 351.7c-2-2.9-4.1-5.7-6.6-8.2l-.6-.5c-3.4-2.9-6.6-4.6-6.6-4.6s-.2 2.6 0 6.1l.1.7c.3 4.9 2.3 9.5 4.7 13.5l.5.7a38 38 0 0010.8 8.8s.6-7.3-1.5-14l-.3-.7c-.2-.6-.5-.9-.5-1.4v-.4z"/><path class="st1" d="M67.8 363.3c-4.7.5-9.3 2.3-13.6 4.6l-.9.6-2.2 1.4s1.7 1 4.2 2.1l1.2.5c4.2 1.4 8.5 3 13.2 2.1l.8-.1c7.4-1.3 14.2-6.3 14.2-6.3s-7.7-4.6-15.5-4.9h-1.4zM93.8 383.1c-2.4.3-4.9.6-7.3 1.7l-1.4.6c-4.4 1.9-7.7 4.3-7.7 4.3s8.7 5.3 17 4.8c8.3-.4 16.5-6.6 16.5-6.6s-5.8-3.5-12.4-4.5l-1.5-.2-1.6-.1h-1.6zM129.1 401.9c-4.5 2.5-9.5 4.6-12.5 8.8l-.7.8-1.7 2s4.3 1.1 9.4 1h.7l10.6-3.2a15 15 0 004.8-2.9l.6-.5c3.4-3 5.6-5.9 5.6-5.9s-6.5-1.6-13.2-.7l-.8.1c-.8 0-1.6.4-2.5.4l-.3.1zM155 412.9c-6.7 5-10.2 14.8-10.2 14.8s10.2-.6 16.9-5.6c6.7-5 10.2-14.8 10.2-14.8s-10.2.6-16.9 5.6zM185.4 418.1c-1.6 1.6-2.2 4-3 6.1l-.2.7c-1.2 4-1.5 7.3-1.5 7.3s9.8-3.1 15-9.6c5.3-6.5 6.3-16.8 6.3-16.8s-5 1.6-9.8 4.9l-.7.5c-2.1 2.1-3.7 4.4-5.6 6.5-.3.1-.4.3-.5.4z"/></g><g><path class="st1" d="M120.1 358l-.9-.2-.5-.1-.4-.1-1.5-.5a110.5 110.5 0 01-38.1-23.9c-13-12.4-23-27.7-30.3-44.1A200.2 200.2 0 0136.7 253c-.3-1.1-2.1-1-1.8.2a174 174 0 0024.9 60.4A126 126 0 0091.3 346c7.3 5.1 15.3 9.5 23.8 12.5 1.6.5 3.2 1.1 4.8 1.4 1.1.1 1.4-1.7.2-1.9z"/><path class="st1" d="M113.8 338.3c-.8-8.3-7.4-16.1-7.4-16.1s-2.1 3.9-3.3 9l-.2.7a24.7 24.7 0 002.2 16.4l.3.6c2 4 4.4 6.7 4.4 6.7s4.9-9 4-17.3zM90.9 323.9c.2-3.5-.6-6.7-1.2-10.2l-.4-1.3c-1.3-3.9-2.9-6.7-2.9-6.7s-2 2.6-3.8 6.3l-.3.6a24 24 0 00-2.6 12v1.5c.8 7 4.4 13.3 4.4 13.3s4.8-6.3 6.4-13.4l.3-1.4.1-.7zM72.3 300.7c.1-1.6-.6-3.2-.5-4.7l-.2-.7c-1.2-5.3-3.5-9.6-3.5-9.6s-6.5 8-7.3 16.3c-.8 8.3 4.1 17.3 4.1 17.3s2.1-2.5 4-6.2l.3-.6c1.6-3.4 2.4-7.3 3-11l.1-.8zM57.9 272.3l.5-2.5.1-.8c1.1-6.9-.8-14-.8-14s-1.6 1.2-3.6 3.2l-.9.9c-3.1 3.2-6.1 6.4-6.7 10.8l-.2.8c-2 7.6.3 16.3.3 16.3s2.6-2 5.3-5.2l.5-.6c1.9-2.7 4-5.4 5.2-8.6.2 0 .3-.1.3-.3zM44.1 241.4c.1-3.5 0-7-.5-10.5l-.2-.7c-1.1-4.3-2.7-7.6-2.7-7.6s-1.7 1.9-3.5 4.9l-.3.6c-2.6 4.2-3.7 9-4.2 13.6v.8c.3 7 3.6 13.5 3.6 13.5s4.8-5.5 7-12.2l.2-.8c.2-.6.1-1 .5-1.4l.1-.2z"/><path class="st1" d="M25.5 242.2a37.7 37.7 0 00-13.7-4.2l-1.1-.1-2.6-.1s.8 1.8 2.2 4.2l.7 1.1c2.5 3.6 5.1 7.5 9.4 9.5l.7.4c6.8 3.3 15.2 3.2 15.2 3.2s-3.5-8.3-9.7-13l-.6-.5c-.1-.3-.3-.4-.5-.5zM34.9 273.5a22.4 22.4 0 00-6.9-2.9l-1.4-.4c-4.7-1.1-8.7-1-8.7-1s4 9.4 10.9 13.9c7 4.5 17.3 4.4 17.3 4.4s-2.6-6.2-7.3-11l-1.1-1.1-1.3-1-1.5-.9zM52.4 309.4c-5.1-.6-10.3-1.9-15.3-.3l-1 .2-2.5.6s2.8 3.4 7 6.3l.6.4 10.4 3.7c1.7.5 3.7.6 5.6.5l.7-.1c4.5-.4 8-1.5 8-1.5s-4.3-5.2-10.2-8.3l-.7-.4c-.7-.5-1.5-.6-2.3-1.1h-.3zM66.9 333.6c-8.4.1-16.9 6-16.9 6s8.6 5.5 17 5.4c8.4-.1 16.9-6 16.9-6s-8.6-5.5-17-5.4zM88.4 355.6c-2.3.4-4.2 2-6.1 3.2l-.6.4c-3.3 2.5-5.5 5-5.5 5s9.7 3.2 17.8 1.1c8.1-2.2 15-9.9 15-9.9s-5-1.7-10.9-1.8l-.8.1c-3 .4-5.6 1.4-8.4 2l-.5-.1z"/></g><path transform="rotate(20.9 227.8 270.3)" class="st2" d="M203.7 32.5h48.2v475.4h-48.2z"/><path transform="rotate(20.9 212.1 264.3)" class="st3" d="M204.8 26.6h14.7V502h-14.7z"/><path transform="rotate(20.9 243.3 276.2)" class="st4" d="M235.9 38.4h14.7v475.4h-14.7z"/><path transform="rotate(-24.1 237 280.6)" class="st2" d="M213.8 42.9h46.3v475.4h-46.3z"/><path transform="rotate(-24.1 222.5 287)" class="st4" d="M215.1 49.4h14.7v475.4h-14.7z"/><path transform="rotate(-24.1 253 273.5)" class="st3" d="M245.6 35.8h14.7v475.4h-14.7z"/><text transform="rotate(-68.8 428 130.9)" letter-spacing="1" font-size="12" font-family="Poppins-Medium">DWH</text></svg>