<?xml version="1.0" encoding="UTF-8" standalone="no"?>
<!-- Created with Inkscape (http://www.inkscape.org/) -->

<svg
   xmlns:dc="http://purl.org/dc/elements/1.1/"
   xmlns:cc="http://creativecommons.org/ns#"
   xmlns:rdf="http://www.w3.org/1999/02/22-rdf-syntax-ns#"
   xmlns:svg="http://www.w3.org/2000/svg"
   xmlns="http://www.w3.org/2000/svg"
   xmlns:sodipodi="http://sodipodi.sourceforge.net/DTD/sodipodi-0.dtd"
   xmlns:inkscape="http://www.inkscape.org/namespaces/inkscape"
   width="206.97183mm"
   height="193.73264mm"
   viewBox="0 0 733.36476 686.45422"
   id="svg5346"
   version="1.1"
   inkscape:version="0.91 r13725"
   sodipodi:docname="outsite_panda_cropped.svg">
  <defs
     id="defs5348" />
  <sodipodi:namedview
     id="base"
     pagecolor="#ffffff"
     bordercolor="#666666"
     borderopacity="1.0"
     inkscape:pageopacity="0.0"
     inkscape:pageshadow="2"
     inkscape:zoom="0.35"
     inkscape:cx="-119.74619"
     inkscape:cy="286.08425"
     inkscape:document-units="px"
     inkscape:current-layer="layer1"
     showgrid="false"
     fit-margin-top="0"
     fit-margin-left="0"
     fit-margin-right="0"
     fit-margin-bottom="0"
     inkscape:window-width="1536"
     inkscape:window-height="801"
     inkscape:window-x="-8"
     inkscape:window-y="-8"
     inkscape:window-maximized="1" />
  <metadata
     id="metadata5351">
    <rdf:RDF>
      <cc:Work
         rdf:about="">
        <dc:format>image/svg+xml</dc:format>
        <dc:type
           rdf:resource="http://purl.org/dc/dcmitype/StillImage" />
        <dc:title></dc:title>
      </cc:Work>
    </rdf:RDF>
  </metadata>
  <g
     inkscape:label="Layer 1"
     inkscape:groupmode="layer"
     id="layer1"
     transform="translate(-7.6033339,-131.99224)">
    <path
       style="fill:#1f1f1f;fill-opacity:1;fill-rule:evenodd;stroke:none;stroke-width:1px;stroke-linecap:butt;stroke-linejoin:miter;stroke-opacity:1"
       d="m 573.80658,372.01745 c 58.279,52.278 168.8133,154.739 167.1428,281.429 l -454.2857,148.571 c 2.3695,6.158 -175.5898,-277.227 -238.571291,-381.428 -41.9880004,-78.905 -68.5892,-221.062 9.5939,-246.061 65.485791,-20.939 78.199291,126.041 126.120291,163.204 l 47.1428,-22.858 z"
       id="path4950-9-8-2-1-4-8-6-6-3-6-2-5-2-8-0-1-1-7-4-3-1-1-8-3-1-3-6-0-3-6-8-42-0-2-1-8-9-6-4"
       inkscape:connector-curvature="0"
       sodipodi:nodetypes="ccccaccc" />
    <path
       inkscape:connector-curvature="0"
       style="fill:#0f0f0f;fill-opacity:1;fill-rule:evenodd;stroke:none;stroke-width:1px;stroke-linecap:butt;stroke-linejoin:miter;stroke-opacity:1"
       d="m 541.42478,366.62145 -156.5332,145.975 c 0,0 82.1037,-29.853 120.7149,-50.004 26.5807,-13.872 59.0081,-23.62 75.7597,-48.487 4.407,-6.541 6.7812,-17.669 8.0703,-27.919 -5.5023,-5.053 -10.762,-9.801 -15.6308,-14.168 l -32.3809,-5.397 z"
       id="path7031-4-1-8-2-8-7-8-0-2-7-0-9-4-7-1-7-0" />
    <path
       style="fill:#f2f2f2;fill-rule:evenodd;stroke:none;stroke-width:1px;stroke-linecap:butt;stroke-linejoin:miter;stroke-opacity:1"
       d="m 230.94938,327.73245 c -0.8573,-28.989 13.2475,-54.867 42.8572,-75.715 -1.936,2.904 41.3875,-58.032 82.8572,-75.714 48.8897,-20.845 124.8131,-8.108 155.7142,34.286 33.0522,45.345 35.2381,63.686 52.8571,100 3.835,27.143 16.1766,56.987 4.2858,81.428 -24.6354,50.638 -89.0127,69.751 -138.2142,97.143 -17.7552,9.885 -35.9394,26.695 -56.0715,23.929 -21.4766,-2.951 -36.1887,-24.622 -50.7143,-40.715 -38.4765,-42.626 -91.8741,-87.244 -93.5715,-144.642 z"
       id="path4948-3-7-5-6-9-9-5-3-4-6-1-4-9-6-5-8-9-0-3-8-9-7-3-2-0-7-1-6-3-5-4-2-2-8-4-9-3-4-8"
       inkscape:connector-curvature="0"
       sodipodi:nodetypes="acsscaaaaa" />
    <path
       style="fill:#f2f2f2;fill-rule:evenodd;stroke:none;stroke-width:1px;stroke-linecap:butt;stroke-linejoin:miter;stroke-opacity:1"
       d="m 236.66378,663.44645 c 45.0244,-76.079 167.1783,-101.779 252.8571,-80 51.8971,13.192 111.4285,115.714 111.4285,115.714 l -333.5713,119.286 c 0,0 -57.5401,-109.672 -30.7143,-155 z"
       id="path4952-5-6-5-3-0-5-2-2-2-5-2-1-6-7-5-7-3-5-1-0-5-0-0-0-0-3-9-3-9-2-6-0-8-2-22-0-2-8-4"
       inkscape:connector-curvature="0"
       sodipodi:nodetypes="aacca" />
    <path
       style="fill:#373737;fill-opacity:1;fill-rule:evenodd;stroke:none;stroke-width:1px;stroke-linecap:butt;stroke-linejoin:miter;stroke-opacity:1"
       d="m 370.94948,269.16045 c 12.3241,9.738 -1.3604,33.659 -11.4285,45.714 -10.3825,12.433 -32.4639,31.073 -44.2858,20 -11.8778,-11.125 6.3434,-33.539 17.1429,-45.714 9.6106,-10.834 27.2079,-28.979 38.5714,-20 z"
       id="path4954-6-3-1-5-2-2-6-3-9-5-9-0-1-8-8-1-6-4-4-5-5-0-2-3-5-4-9-2-5-3-5-3-2-4-2-7-0-5-2"
       inkscape:connector-curvature="0"
       sodipodi:nodetypes="aaaaa" />
    <path
       sodipodi:nodetypes="aaaaa"
       inkscape:connector-curvature="0"
       id="path4956-7-1-7-2-5-6-2-5-7-7-3-8-0-7-3-1-6-1-9-8-6-1-5-5-1-3-0-0-0-4-2-6-4-6-7-5-8-3-4"
       d="m 471.88328,368.92545 c 16.6055,3.604 17.4877,-21.983 15.0534,-37.363 -2.5103,-15.86 -12.1885,-44.744 -29.0804,-47.124 -16.9719,-2.392 -12.8976,25.813 -9.8654,41.84 2.6984,14.262 8.5813,39.325 23.8924,42.647 z"
       style="fill:#373737;fill-opacity:1;fill-rule:evenodd;stroke:none;stroke-width:1px;stroke-linecap:butt;stroke-linejoin:miter;stroke-opacity:1" />
    <path
       style="fill:#333333;fill-rule:evenodd;stroke:none;stroke-width:1px;stroke-linecap:butt;stroke-linejoin:miter;stroke-opacity:1"
       d="m 363.37468,394.94245 c -25.1701,-30.374 11.4482,-13.464 19.1929,-13.132 9.5625,0.41 64.1356,0.74 22.2234,18.183 -16.7075,8.914 -30.0893,7.556 -41.4163,-5.051 z"
       id="path4960-4-1-3-6-1-0-5-5-2-0-5-1-5-0-3-3-7-3-7-4-0-3-9-4-8-4-2-5-5-7-6-3-1-9-8-2-8-7-5"
       inkscape:connector-curvature="0"
       sodipodi:nodetypes="cacc" />
    <path
       style="fill:#1f1f1f;fill-opacity:1;fill-rule:evenodd;stroke:none;stroke-width:1px;stroke-linecap:butt;stroke-linejoin:miter;stroke-opacity:1"
       d="m 507.82638,205.03345 c 10.2385,-16.539 85.6915,-50.531 112.1269,19.193 25.4369,67.091 -43.2339,90.485 -55.5584,85.863 z"
       id="path4962-6-5-9-0-6-1-7-1-3-9-8-3-5-1-3-0-4-9-5-4-2-8-3-8-1-6-1-5-8-7-3-8-3-4-7-5-3-5-3"
       inkscape:connector-curvature="0"
       sodipodi:nodetypes="cscc" />
    <path
       style="fill:#1f1f1f;fill-opacity:1;fill-rule:evenodd;stroke:none;stroke-width:1px;stroke-linecap:butt;stroke-linejoin:miter;stroke-opacity:1"
       d="m 267.41008,258.57145 c 0,0 -80.9385,-29.633 -8.0812,-110.106 47.2666,-52.207001 85.8631,36.365 85.8631,36.365 z"
       id="path4966-0-4-6-8-0-0-1-1-4-1-3-6-2-3-3-4-4-09-6-3-5-7-3-8-2-8-7-4-7-8-8-4-6-7-7-1-8-5-8"
       inkscape:connector-curvature="0"
       sodipodi:nodetypes="cscc" />
    <path
       inkscape:connector-curvature="0"
       style="fill:#e1e1e1;fill-opacity:1;fill-rule:evenodd;stroke:none;stroke-width:1px;stroke-linecap:butt;stroke-linejoin:miter;stroke-opacity:1"
       d="m 572.32948,346.65345 c -7.0617,19.97 -18.5023,46.793 -32.3301,58.564 -51.0096,43.426 -114.1691,79.842 -183.3828,100.174 5.6655,3.933 11.8005,6.76 18.6192,7.697 20.1321,2.766 38.3151,-14.042 56.0703,-23.927 49.2015,-27.392 113.5794,-46.505 138.2148,-97.143 6.75,-13.874 5.6872,-29.491 2.8086,-45.365 z"
       id="path6823-4-8-2-6-81-0-4-6-0-4-1-5-2-1-8-3-0-0-4-0" />
    <path
       style="fill:#1a1a1a;fill-rule:evenodd;stroke:none;stroke-width:1px;stroke-linecap:butt;stroke-linejoin:miter;stroke-opacity:1"
       d="m 383.10418,419.41145 c 17.4692,3.536 53.2298,5.07 53.2298,5.07 0,0 -12.2128,47.961 -30.417,62.101 -8.1794,6.352 -20.1838,7.931 -30.4171,6.336 -11.0282,-1.717 -23.0186,-7.148 -29.1497,-16.475 -13.0697,-19.882 -7.6042,-70.973 -7.6042,-70.973 14.7861,7.297 29.1672,10.866 44.3582,13.941 z"
       id="path5004-3-7-0-0-0-8-0-8-1-7-7-4-6-6-1-5-3-8-3-7-0-8-5-2-9-5-7-6-5-0-8-4-6-3-5-5-5-4-2"
       inkscape:connector-curvature="0"
       sodipodi:nodetypes="acaaaca" />
    <path
       inkscape:connector-curvature="0"
       style="fill:#ffaacc;fill-opacity:1;fill-rule:evenodd;stroke:none;stroke-width:1px;stroke-linecap:butt;stroke-linejoin:miter;stroke-opacity:1"
       d="m 350.67808,410.62845 0.3084,68.152 c 18.926,15.338 38.2939,13.867 48.1598,8.935 l 20.9628,-64.18 c -11.7726,-0.807 -27.1988,-2.139 -37.0044,-4.124 -11.0826,-2.244 -21.7344,-4.758 -32.4266,-8.783 z"
       id="path6525-3-2-7-9-6-9-0-6-6-5-1-3-5-0-6-8-6-8-9-1-2-4-4-9" />
    <ellipse
       style="opacity:1;fill:#131313;fill-opacity:1;stroke:none;stroke-width:2;stroke-linecap:round;stroke-linejoin:round;stroke-miterlimit:4;stroke-dasharray:none;stroke-dashoffset:22.99999809;stroke-opacity:1"
       id="path5335-1-5-89-0-1-1-1-3-8-9-1-8-6-5-8-7-6-9-3-2-5-8-5-4-6-7-7-9-2-9-9-5-4-7-2"
       cx="434.52551"
       cy="144.66237"
       rx="14.700914"
       ry="21.894978"
       transform="matrix(0.92030178,0.39120919,-0.39120919,0.92030178,0,0)" />
    <ellipse
       style="opacity:1;fill:#131313;fill-opacity:1;stroke:none;stroke-width:2;stroke-linecap:round;stroke-linejoin:round;stroke-miterlimit:4;stroke-dasharray:none;stroke-dashoffset:22.99999809;stroke-opacity:1"
       id="path5335-1-5-8-4-4-2-5-8-3-7-1-4-1-1-9-2-6-4-4-1-5-1-8-4-0-2-9-1-3-3-4-5-1-7-7-6"
       cx="482.98798"
       cy="302.90689"
       rx="15.075224"
       ry="22.452459"
       transform="matrix(0.99853037,0.05419507,-0.05419507,0.99853037,0,0)" />
    <circle
       style="opacity:1;fill:#ffffff;fill-opacity:1;stroke:none;stroke-width:2;stroke-linecap:round;stroke-linejoin:round;stroke-miterlimit:4;stroke-dasharray:none;stroke-dashoffset:22.99999809;stroke-opacity:1"
       id="path5436-7-4-1-0-6-5-2-8-9-2-8-3-0-2-4-5-9-0-3-9-0-5-5-2-28-6-2-35-7-5-7-4"
       cx="349.72897"
       cy="292.12964"
       r="5.7142859" />
    <circle
       style="opacity:1;fill:#ffffff;fill-opacity:1;stroke:none;stroke-width:2;stroke-linecap:round;stroke-linejoin:round;stroke-miterlimit:4;stroke-dasharray:none;stroke-dashoffset:22.99999809;stroke-opacity:1"
       id="path5436-9-9-1-7-5-7-0-2-9-6-0-9-9-5-2-8-3-9-7-9-8-2-9-8-8-8-9-8-4-5-2-2-9"
       cx="469.01462"
       cy="316.41479"
       r="5.7142859" />
    <path
       style="fill:#333333;fill-rule:evenodd;stroke:none;stroke-width:1px;stroke-linecap:butt;stroke-linejoin:miter;stroke-opacity:1"
       d="m 378.84258,403.27245 -2.0203,13.132 8.6169,1.931 1.4846,-16.073 z"
       id="path5782-8-2-4-9-4-0-1-3-4-9-9-2-9-1-0-0-3-8-9-3-0-8-7-2-3-0-7-6-5-7"
       inkscape:connector-curvature="0"
       sodipodi:nodetypes="ccccc" />
    <path
       inkscape:connector-curvature="0"
       style="fill:#0f0f0f;fill-opacity:1;fill-rule:evenodd;stroke:none;stroke-width:1px;stroke-linecap:butt;stroke-linejoin:miter;stroke-opacity:1"
       d="m 195.42658,332.09845 -11.5352,5.592 33.5117,32.551 c -7.9964,-12.714 -18.714,-25.429 -21.9765,-38.143 z"
       id="path7324-5-4-4-8-7-5-1-2-8-6-6-5-0-6" />
    <path
       inkscape:connector-curvature="0"
       style="fill:#0f0f0f;fill-opacity:1;fill-rule:evenodd;stroke:none;stroke-width:1px;stroke-linecap:butt;stroke-linejoin:miter;stroke-opacity:1"
       d="m 335.87068,167.59345 c -0.4215,4.894 -1.1525,10.025 -2.4805,13.496 -4.4704,11.682 -15.873,27.203 -25.4355,39.045 l 37.2383,-35.303 c 0,0 -3.3779,-7.717 -9.3223,-17.238 z"
       id="path7476-1-5-5-1-6-6-8-8-5-1-2-5" />
    <path
       inkscape:connector-curvature="0"
       style="fill:#0f0f0f;fill-opacity:1;fill-rule:evenodd;stroke:none;stroke-width:1px;stroke-linecap:butt;stroke-linejoin:miter;stroke-opacity:1"
       d="m 624.10378,238.40345 c -4.2519,13.414 -11.9011,35.145 -20.0976,46.328 -6.5701,8.963 -22.5209,20.369 -29.7637,25.308 20.36,-3.742 59.2767,-25.289 49.8613,-71.636 z"
       id="path7634-7-1-55-5-2-35-9-9-3-0" />
    <path
       inkscape:connector-curvature="0"
       style="opacity:1;fill:#ff80b2;fill-rule:evenodd;stroke:none;stroke-width:1px;stroke-linecap:butt;stroke-linejoin:miter;stroke-opacity:1"
       d="m 418.69618,423.42845 c -6.0499,11.328 -17.2777,32.533 -27.3047,52.609 -5.1884,10.389 -33.6121,2.606 -40.4141,0.571 l 0.01,2.172 c 18.926,15.338 38.2923,13.867 48.1582,8.935 l 20.9629,-64.18 c -0.4436,-0.03 -0.9586,-0.08 -1.4121,-0.107 z"
       id="path5517-9-8-9-8-8" />
  </g>
</svg>
