<svg xmlns="http://www.w3.org/2000/svg" xmlns:xlink="http://www.w3.org/1999/xlink" viewBox="0 0 885.827 885.827"><defs><linearGradient id="a"><stop offset="0" stop-color="#ef247a"/><stop offset="1" stop-color="#f4c811"/></linearGradient><linearGradient id="b"><stop offset="0" stop-color="#03f1fa"/><stop offset="1" stop-color="#fe94ff"/></linearGradient><linearGradient xlink:href="#a" id="c" x1="1280" y1="792.362" x2="1280" y2="252.362" gradientUnits="userSpaceOnUse" gradientTransform="translate(-731.657 -69.842)"/><linearGradient xlink:href="#b" id="d" gradientUnits="userSpaceOnUse" x1="387.73" y1="471.11" x2="387.73" y2="531.11" gradientTransform="translate(40.74 250.928)"/><linearGradient xlink:href="#b" id="e" gradientUnits="userSpaceOnUse" gradientTransform="translate(40.74 250.928)" x1="387.73" y1="471.11" x2="387.73" y2="531.11"/><linearGradient xlink:href="#b" id="f" gradientUnits="userSpaceOnUse" gradientTransform="translate(40.74 250.928)" x1="387.73" y1="471.11" x2="387.73" y2="531.11"/><linearGradient xlink:href="#b" id="g" gradientUnits="userSpaceOnUse" gradientTransform="translate(40.74 250.928)" x1="387.73" y1="471.11" x2="387.73" y2="531.11"/><linearGradient xlink:href="#b" id="h" gradientUnits="userSpaceOnUse" gradientTransform="translate(40.74 250.928)" x1="387.73" y1="471.11" x2="387.73" y2="531.11"/><linearGradient xlink:href="#b" id="i" gradientUnits="userSpaceOnUse" gradientTransform="translate(40.74 250.928)" x1="387.73" y1="471.11" x2="387.73" y2="531.11"/><linearGradient xlink:href="#b" id="k" gradientUnits="userSpaceOnUse" gradientTransform="translate(40.74 250.928)" x1="387.73" y1="471.11" x2="387.73" y2="531.11"/><linearGradient xlink:href="#b" id="j" gradientUnits="userSpaceOnUse" gradientTransform="translate(40.74 250.928)" x1="387.73" y1="471.11" x2="387.73" y2="531.11"/></defs><path style="isolation:auto;mix-blend-mode:normal" color="#000" overflow="visible" opacity="0"  fill-rule="evenodd" d="M0 0h885.827v885.827H0z"/><path d="M557.241 176.34a280 280 0 0 0-278.808 256.179h557.621a280 280 0 0 0-278.813-256.18zM277.933 442.518a280 280 0 0 0-.692 13.82 280 280 0 0 0 .809 16.18h558.62a280 280 0 0 0 .571-16.18 280 280 0 0 0-.488-13.82h-558.82zm.619 40a280 280 0 0 0 2.893 20h551.671a280 280 0 0 0 2.65-20H278.553zm7.064 40a280 280 0 0 0 5.94 20h531.176a280 280 0 0 0 6.021-20H285.616zm13.358 40a280 280 0 0 0 13.195 27.512h489.955a280 280 0 0 0 13.403-27.512H298.974zm25.156 47.512a280 280 0 0 0 21.43 28.082h423.219a280 280 0 0 0 21.515-28.082H324.13zm44 51.468a280 280 0 0 0 33.404 26.163h311.803a280 280 0 0 0 32.953-26.163H368.13zm74.84 49.551a280 280 0 0 0 114.271 25.29 280 280 0 0 0 114.225-25.29H442.97z" style="isolation:auto;mix-blend-mode:normal" color="#000" overflow="visible" fill="url(#c)" fill-rule="evenodd" stroke="#03f1fa" stroke-width=".1" stroke-linecap="round" stroke-linejoin="round" transform="translate(-130.466 -46.772)"/><path d="M545.895 413.48c3.326-2.956 33.303-69.514 18.534-94.986-10.174-17.547-11.914-28.976-41.238-42.628-15.072-7.017-31.166 64.908-20.388 53.285 15.638-16.863 47.82 64.4 43.092 84.33zm85.2 186.18c.203-1.189.494-2.544.68-3.699 1.04-6.45 1.817-12.343 2.215-17.316.2-2.487.304-4.744.3-6.725-.006-1.98-.12-3.686-.358-5.07-.516-3.001-1.138-5.965-1.862-8.89a127.87 127.87 0 0 0-2.468-8.663 130.98 130.98 0 0 0-3.051-8.426c-1.11-2.769-2.312-5.5-3.602-8.187a140.79 140.79 0 0 0-4.125-7.938c-1.46-2.604-3-5.165-4.62-7.683a154.58 154.58 0 0 0-5.093-7.422 162.612 162.612 0 0 0-5.529-7.157A175.74 175.74 0 0 0 591.309 489c-4.341-4.306-8.92-8.42-13.7-12.334a211.648 211.648 0 0 0-14.902-11.137 226.707 226.707 0 0 0-15.885-9.882c-14.558-8.253-29.397-16.035-44.123-24.002-7.363-3.984-14.697-8.014-21.955-12.172-7.258-4.159-14.44-8.444-21.496-12.942-5.282-3.367-10.64-6.872-15.912-10.52-5.273-3.646-10.46-7.434-15.404-11.366a200.076 200.076 0 0 1-7.213-6.008 157.531 157.531 0 0 1-6.723-6.225 124.143 124.143 0 0 1-6.119-6.447 97.703 97.703 0 0 1-5.39-6.67 77.34 77.34 0 0 1-4.544-6.895 62.313 62.313 0 0 1-3.576-7.123 51.976 51.976 0 0 1-2.488-7.351 46.007 46.007 0 0 1-1.283-7.584 44.2 44.2 0 0 1 .045-7.818c.25-2.646.74-5.33 1.492-8.055a54.194 54.194 0 0 1 3.06-8.293c1.295-2.804 2.87-5.649 4.746-8.533.524-.804 1.318-1.402 2.346-1.817 1.029-.415 2.291-.647 3.754-.718 1.463-.072 3.125.018 4.951.244 1.826.225 3.816.587 5.934 1.064 4.236.954 8.984 2.366 13.96 4.049 4.977 1.683 10.183 3.638 15.33 5.682 10.297 4.087 20.366 8.526 27.93 11.847 3.783 1.66 6.94 3.042 9.186 3.96 2.246.916 3.58 1.368 3.719 1.173-.025-.021-.24-4.578-.1-11.244.07-3.333.23-7.194.547-11.277.316-4.084.79-8.39 1.488-12.616.699-4.226 1.623-8.371 2.84-12.132a47.59 47.59 0 0 1 2.053-5.317c.764-1.65 1.61-3.167 2.545-4.512.936-1.344 1.963-2.517 3.088-3.48 1.125-.963 2.348-1.716 3.68-2.22a11.479 11.479 0 0 1 4.324-.735c1.554.028 3.224.342 5.02.98 1.631.58 2.89.772 3.81.62.46-.077.834-.238 1.127-.48.293-.24.506-.562.64-.956.27-.788.228-1.87-.09-3.197-.317-1.328-.914-2.9-1.755-4.67-.842-1.77-1.929-3.74-3.23-5.856a114.748 114.748 0 0 0-4.52-6.746 164.964 164.964 0 0 0-5.616-7.351 198.645 198.645 0 0 0-6.523-7.666 207.785 207.785 0 0 0-7.244-7.688 193.473 193.473 0 0 0-7.772-7.424 163.017 163.017 0 0 0-8.111-6.867 125.472 125.472 0 0 0-8.262-6.021c-2.758-1.834-5.51-3.478-8.222-4.885-2.714-1.407-5.39-2.577-7.995-3.461-2.605-.884-5.141-1.482-7.576-1.746a24.958 24.958 0 0 0-3.572-.139 20.42 20.42 0 0 0-3.396.399 103.16 103.16 0 0 0-7.38 1.8 99.752 99.752 0 0 0-7.025 2.278 98 98 0 0 0-13.023 5.873 99.74 99.74 0 0 0-11.703 7.447 106.785 106.785 0 0 0-10.442 8.809 118.396 118.396 0 0 0-9.246 9.953 133.946 133.946 0 0 0-8.11 10.883 152.676 152.676 0 0 0-7.034 11.593 173.595 173.595 0 0 0-6.024 12.09 195.247 195.247 0 0 0-5.074 12.371 215.551 215.551 0 0 0-4.186 12.436 231.94 231.94 0 0 0-3.357 12.283 241.348 241.348 0 0 0-4.482 23.246c-.52 3.656-.934 7.178-1.25 10.531-.633 6.707-.879 12.736-.82 17.8.032 2.83.402 5.885 1.116 9.12.714 3.235 1.772 6.647 3.174 10.19 1.403 3.542 3.152 7.215 5.25 10.968 2.098 3.754 4.546 7.59 7.346 11.457 2.8 3.869 5.953 7.77 9.463 11.657a159.335 159.335 0 0 0 11.601 11.562 176.978 176.978 0 0 0 13.76 11.182 193.153 193.153 0 0 0 15.938 10.51c4.263 2.521 8.682 4.906 13.193 7.213 4.51 2.306 9.113 4.535 13.744 6.748 9.262 4.424 18.64 8.779 27.62 13.544 4.49 2.383 8.88 4.868 13.109 7.516 4.228 2.648 8.294 5.459 12.134 8.492a105.628 105.628 0 0 1 5.584 4.725 92.426 92.426 0 0 1 5.196 5.105 83.368 83.368 0 0 1 4.761 5.528 77.877 77.877 0 0 1 4.28 5.998 146.874 146.874 0 0 1 4.64 7.722 141.063 141.063 0 0 1 4.463 8.645 117.305 117.305 0 0 1 3.893 9.201c1.159 3.12 2.156 6.27 2.93 9.393.773 3.123 1.321 6.217 1.578 9.222.128 1.503.183 2.984.158 4.434-.026 1.45-.131 2.87-.326 4.254a28.412 28.412 0 0 1-.862 4.03 24.167 24.167 0 0 1-1.445 3.759 21.974 21.974 0 0 1-2.076 3.443 21.933 21.933 0 0 1-2.76 3.082 47.081 47.081 0 0 1-4.045 3.356 42.885 42.885 0 0 1-4.193 2.736 40.882 40.882 0 0 1-4.336 2.149 40.867 40.867 0 0 1-4.47 1.591 42.796 42.796 0 0 1-4.598 1.073 46.723 46.723 0 0 1-4.721.58c-3.186.231-6.447.157-9.776-.178-3.328-.335-6.723-.931-10.175-1.746-3.453-.815-6.962-1.848-10.52-3.057-3.558-1.208-7.162-2.592-10.806-4.107a280.32 280.32 0 0 1-11.041-4.897c-7.426-3.47-14.97-7.294-22.555-11.125-7.586-3.83-15.215-7.667-22.813-11.164a276.061 276.061 0 0 0-11.363-4.947 180.827 180.827 0 0 0-11.26-4.178c-3.73-1.235-7.434-2.3-11.101-3.148-3.668-.85-7.299-1.484-10.885-1.86a97.073 97.073 0 0 0-10.04-.537 88.838 88.838 0 0 0-9.542.498 84.08 84.08 0 0 0-9.057 1.471c-2.939.644-5.8 1.439-8.582 2.373a83.186 83.186 0 0 0-8.117 3.21 86.68 86.68 0 0 0-7.664 3.982 92.537 92.537 0 0 0-7.22 4.685 100.72 100.72 0 0 0-6.79 5.322 111.138 111.138 0 0 0-6.367 5.895 123.665 123.665 0 0 0-5.955 6.4 138.16 138.16 0 0 0-5.557 6.838 154.375 154.375 0 0 0-5.166 7.21c-3.316 4.915-6.38 10.033-9.205 15.267a219.889 219.889 0 0 0-7.773 15.957c-1.272 2.892-2.316 5.778-3.46 8.672 30.283 29.875 67.603 52.648 110.643 64.209 102.645 35.975 214.979-2.08 287.073-77.403z" fill="#ff00c1" fill-rule="evenodd"/><g transform="translate(16.259 -116.29)" style="isolation:auto;mix-blend-mode:normal" color="#000" overflow="visible" fill="url(#d)" stroke="#03f1fa" stroke-width=".2"><path style="line-height:125%;-inkscape-font-specification:'Roboto Condensed, Bold Italic';isolation:auto;mix-blend-mode:normal" d="M161.655 713.082l18.985 80.244-2.854 16.309h25.52l2.383-13.76 48.164-82.793h-28.389L196.9 770.3l-8.702-57.217h-26.543zm15.676 99.158l-.683 3.909h25.53l.677-3.909H177.33zm-1.138 6.512l-.684 3.908h25.543l.676-3.908h-25.535zm-1.141 6.514l-.684 3.906h25.557l.676-3.906h-25.55zm-1.139 6.511l-.683 3.909h25.566l.676-3.909h-25.559zm-1.14 6.512l-.483 2.762h25.576l.479-2.762h-25.572z" font-style="italic" font-weight="700" font-size="180" font-family="Roboto Condensed" letter-spacing="6" word-spacing="0" overflow="visible" fill="url(#e)"/><path style="line-height:125%;-inkscape-font-specification:'Roboto Condensed, Bold Italic';isolation:auto;mix-blend-mode:normal" d="M288.68 713.082l-46.02 96.553h81.802l-12.666-96.553h-23.115zm6.241 34.893l3.604 45.351h-23.028l19.424-45.351zm-53.504 64.265l-1.863 3.909h26.166l.549-1.29h34.013l.108 1.29h24.926l-.512-3.909h-83.387zm-3.103 6.512l-1.864 3.908h26.495l1.666-3.908h-26.297zm62.295 0l.328 3.908h25.234l-.514-3.908H300.61zm-65.4 6.514l-1.862 3.906h26.822l1.666-3.906h-26.627zm65.946 0l.329 3.906h25.54l-.511-3.906h-25.358zm-69.05 6.511l-1.864 3.909h27.153l1.666-3.909h-26.955zm69.597 0l.328 3.909h25.85l-.514-3.909h-25.664zm-72.7 6.512l-1.317 2.762h27.422l1.177-2.762h-27.283zm73.245 0l.233 2.762h26.103l-.363-2.762h-25.973z" font-style="italic" font-weight="700" font-size="180" font-family="Roboto Condensed" letter-spacing="6" word-spacing="0" overflow="visible" fill="url(#f)"/><path style="line-height:125%;-inkscape-font-specification:'Roboto Condensed, Bold Italic';isolation:auto;mix-blend-mode:normal" d="M399.798 713.082l-46.021 96.553h81.802l-12.666-96.553h-23.115zm6.24 34.893l3.604 45.351h-23.028l19.424-45.351zm-53.504 64.265l-1.863 3.909h26.166l.549-1.29H411.4l.107 1.29h24.926l-.512-3.909h-83.387zm-3.103 6.512l-1.863 3.908h26.494l1.666-3.908H349.43zm62.295 0l.328 3.908h25.234l-.513-3.908h-25.05zm-65.4 6.514l-1.862 3.906h26.822l1.666-3.906h-26.627zm65.947 0l.328 3.906h25.54l-.51-3.906h-25.358zm-69.051 6.511l-1.863 3.909h27.152l1.666-3.909h-26.955zm69.598 0l.328 3.909h25.85l-.514-3.909H412.82zm-72.702 6.512l-1.316 2.762h27.422l1.178-2.762h-27.284zm73.246 0l.233 2.762H439.7l-.363-2.762h-25.973z" font-style="italic" font-weight="700" font-size="180" font-family="Roboto Condensed" letter-spacing="6" word-spacing="0" overflow="visible" fill="url(#g)"/><path style="line-height:125%;-inkscape-font-specification:'Roboto Condensed, Bold Italic';isolation:auto;mix-blend-mode:normal" d="M510.915 713.082l-46.021 96.553h81.802l-12.666-96.553h-23.115zm6.24 34.893l3.604 45.351h-23.027l19.423-45.351zm-53.503 64.265l-1.864 3.909h26.166l.55-1.29h34.013l.107 1.29h24.926l-.512-3.909h-83.386zm-3.104 6.512l-1.863 3.908h26.494l1.666-3.908h-26.297zm62.295 0l.328 3.908h25.234l-.513-3.908h-25.049zm-65.4 6.514l-1.862 3.906h26.822l1.667-3.906h-26.627zm65.947 0l.328 3.906h25.541l-.512-3.906H523.39zm-69.051 6.511l-1.863 3.909h27.152l1.666-3.909H454.34zm69.598 0l.328 3.909h25.85l-.514-3.909h-25.664zm-72.701 6.512l-1.317 2.762h27.422l1.178-2.762h-27.283zm73.246 0l.232 2.762h26.104l-.364-2.762h-25.972z" font-style="italic" font-weight="700" font-size="180" font-family="Roboto Condensed" letter-spacing="6" word-spacing="0" overflow="visible" fill="url(#h)"/><path style="line-height:125%;-inkscape-font-specification:'Roboto Condensed, Bold Italic';isolation:auto;mix-blend-mode:normal" d="M625.183 711.324c-7.559-.175-14.648 1.29-21.27 4.395-6.62 3.105-11.923 7.47-15.908 13.096-3.925 5.566-6.152 11.923-6.68 19.072-.878 12.422 4.044 22.705 14.766 30.85 3.926 2.988 8.79 5.888 14.59 8.7 5.86 2.755 9.697 5.596 11.514 8.526 1.875 2.871 2.52 6.475 1.933 10.81a24.374 24.374 0 0 1-.6 2.862h25.303c.143-.996.265-2.003.346-3.037.762-9.668-1.377-17.871-6.416-24.61-4.512-6.093-11.953-11.572-22.324-16.435-10.371-4.863-15.117-10.723-14.238-17.578.644-4.57 2.49-8.291 5.537-11.162 3.105-2.93 6.797-4.336 11.074-4.22 8.32.177 12.158 6.27 11.514 18.282l25.136.088c.47-11.484-2.402-20.889-8.613-28.213-6.152-7.383-14.707-11.191-25.664-11.426zm-56.514 89.297c-.15 3.152-.049 6.154.297 9.014h25.278c-.377-2.545-.474-5.504-.262-8.926l-25.313-.088zm.696 11.62c.241 1.34.56 2.635.918 3.908h26.068c-.664-1.106-1.199-2.406-1.596-3.909h-25.39zm53.267 0a18.299 18.299 0 0 1-2.234 3.908h26.982c.392-1.267.73-2.567 1.004-3.909h-25.752zm-51.521 6.511a38.086 38.086 0 0 0 1.654 3.908h71.908a36.285 36.285 0 0 0 1.801-3.908h-28.566c-2.482 1.976-5.648 3.001-9.512 3.05-4.132 0-7.384-1.027-9.787-3.05H571.11zm3.053 6.514a36.436 36.436 0 0 0 2.68 3.906h63.33a35.98 35.98 0 0 0 2.952-3.906h-68.962zm4.935 6.511a34.759 34.759 0 0 0 4.397 3.909h49.367a40.16 40.16 0 0 0 3.13-2.37 38.256 38.256 0 0 0 1.698-1.539h-58.592zm8.447 6.512c5.368 2.926 11.64 4.466 18.828 4.608 8.331.165 15.685-1.377 22.07-4.608h-40.898z" font-style="italic" font-weight="700" font-size="180" font-family="Roboto Condensed" letter-spacing="6" word-spacing="0" overflow="visible" fill="url(#i)"/><g style="isolation:auto;mix-blend-mode:normal"><path style="line-height:125%;-inkscape-font-specification:'Roboto Condensed, Bold Italic';isolation:auto;mix-blend-mode:normal" d="M695.744 800.079h-20.127l12.569-88.594h25.752l-18.194 88.594zm-22.38 16.07a14.408 14.408 0 0 0-1.966 1.683c-.284.297-.546.606-.797.92h20.8c-.34-.438-.701-.865-1.107-1.271a13.374 13.374 0 0 0-1.572-1.332h-15.358zm-4.906 6.511a14.612 14.612 0 0 0-.642 2.606h26.166a13.485 13.485 0 0 0-.54-2.606h-24.984zm-.775 6.512c.08.903.234 1.773.476 2.606h25.194a15.5 15.5 0 0 0 .566-2.606h-26.236zm2.408 6.514c.37.51.766 1.008 1.219 1.482.392.41.81.776 1.24 1.121h16.305c.533-.418 1.047-.87 1.527-1.384.363-.39.692-.799 1.002-1.22H670.09z" font-style="italic" font-weight="700" font-size="180" font-family="Roboto Condensed" letter-spacing="0" word-spacing="0" overflow="visible" fill="url(#k)"/></g></g><g style="line-height:125%" font-weight="400" font-size="80" font-family="Permanent Marker" letter-spacing="0" word-spacing="0" fill="#fb5cd1"><path style="-inkscape-font-specification:'Permanent Marker'" d="M438.09 815.167q-3.238 1.246-6.155 1.133-2.916-.114-5.499-1.19-2.506-1.094-4.623-2.921-2.042-1.846-3.623-4.122-1.906-5.008-1.829-9.441.059-4.51 1.267-8.568 1.209-4.059 3.058-7.787 1.924-3.746 3.675-7.21.586.103.836-.197.327-.318.465-.752l.428-.904q.29-.47.711-.73.143-.756.491-1.32.424-.582.867-1.088.5-.6.849-1.164.424-.582.643-1.356.724-.331 1.167-.837.518-.524.866-1.088.425-.582.867-1.088.443-.506 1.15-.914l-.234-.988q1.493-1.155 2.038-2.247.544-1.092 1.268-2.789.818-.273 1.274-.38.532-.127 1.56-.53.38-1.454.844-2.206.465-.752 1.426-1.782 1.284.339 2.612.186 1.31-.23 2.627.583.291.895.873 1.32.564.348 1.204.678.622.254 1.262.585.64.33.99 1.13.38-.089.42-.259.116-.188.515-.202.295.573.537.917.242.344.466.612.3.25.542.595.318.326.595.822-.164 1.003-.217 2.139-.07 1.06-.893 1.656.144.608.618.576.456-.107.658.407.237.666.041 1.194 2.973 3.07 5.656 6.611 2.665 3.465 5.714 6.517.1 1.1.579 2.111.537.917 1.151 1.816.69.88 1.303 1.779.614.898 1 1.851.457 1.257.664 2.813.19 1.48.056 2.957-.132 1.476-.605 2.873-.491 1.32-1.336 2.161-.857 1.808-2.449 3.228-1.609 1.343-2.824 2.995-.92.86-2.065 1.451-1.163.516-2.384 1.125-.845.842-2.07 1.774-1.242.855-2.58 1.653-1.336.797-2.709 1.443-1.39.569-2.567.686-2.504 1.635-4.999 2.626-2.495.99-6.172 1.057zm-5.55-27.91q-.347 1.929-1.07 3.625-.665 1.602-1.312 3.28-.648 1.678-1.013 3.53-.307 1.759.138 3.982 1.826.933 3.95.752 2.184-.274 4.353-.947 2.15-.75 4.266-1.65 2.115-.901 3.864-1.315-.162-.684.446-.828 3.122-1.058 5.518-3.15 2.377-2.167 4.984-4.388.164-1.002.61-1.83.447-.828.218-2.138-.542-.595-.802-1.015-.183-.438-.399-1.35-2.623-2.27-4.822-5.123-2.217-2.928-4.8-5.368-.063.416-.43.904-.366.488-1.024.081-.048.814-.432 1.226-.403.336-1.011.48-.532.126-1.194.041-.587-.102-1.133-.375-2.158 2.758-4.352 5.363-2.118 2.588-3.618 5.752-.326.318-.42.26-.094-.058-.515.202zM472.693 766.935q-.385-.953-.667-1.127.209-1.494.132-2.84-.02-1.441-.155-2.693-.1-1.1-.163-2.05.013-.965.12-1.874 1.22-.61 1.649-1.513.486-.998.723-1.696 1.35-.4 1.838-.033.564.348 1.348 1.287.578.747 1.496 1.573.9.751 2.394.96.425.782.91 1.47.483.69 1.06 1.436 1.062 1.435 2.084 3.04 1.003 1.529 1.438 3.032-.5 1.964-.492 4.37.082 2.39.487 4.782.463 2.3 1.194 4.374.73 2.075 1.604 3.394l.744 1.109 1.637-.547q2.575-1.331 4.582-2.688 1.99-1.434 3.603-3.1 1.614-1.665 3.003-3.599 1.372-2.01 2.77-4.587 1.322-2.56 2.137-5.563.798-3.078 1.028-6.183.306-3.123.156-6.138-.15-3.015-.591-5.56 1.283-1.025 1.076-2.582l-.462-.934q-.318-.326-.39-.63-.013-.399.067-.739.195-1.892 1.974-3.196 1.584.59 2.976 1.385 1.468.777 2.708 1.608.637 2.017 1.453 3.43.797 1.336 1.653 2.58.837 1.166 1.505 2.293.743 1.108 1.308 2.821-.221 2.46-.116 4.603.163 2.05.38 4.326l.045.872q-.812 2.68-1.588 5.513-.717 2.738-1.123 4.76-.348.565-.585 1.263l-.32 1.36q-.099.264-.277.868-.102.586-.277.868l-1.986-.253.1 2.465-1.144.591-.661 1.28q-1.03 3.454-2.522 5.974-1.416 2.502-3.472 4.674-1.98 2.153-4.68 4.316-2.642 2.07-6.142 4.582-1.575.131-2.715.4l-2.165.351q-1.064.252-2.07.41-1.007.157-2.336.31-.465-.612-1.07-.79-.604-.179-1.06-.071-1.7-.401-2.784-1.59-1.083-1.19-2.315-2.664-.596-.823-1.267-1.628-.596-.822-1.402-1.515l1.413-.815-2.516-1.814q-.282-.174-.64-.33-.282-.175-.582-.425l-.34-1.445q-1.778-6.163-3.017-11.409-1.181-5.34-.765-9.693l.063-.416z"/><path style="-inkscape-font-specification:'Permanent Marker'" d="M521.787 749.798q-.22-.59-.555-.993-.278-.496-.65-1.05-.595-.823-1.151-1.815-.556-.993-.897-2.438-.027-.796.129-1.154.138-.434.312-.716l-.019-1.44 1.14-.27q.627-.067 1.235-.211l1.293-.305q2.889-.683 5.876-1.63 2.988-.946 6.11-2.005 3.389-1.282 7.365-2.462.182-.926.205-1.172.098-.264.178-.604l.728-.654q1.731-.49 2.541-.119.792.295 1.28.661 1.941-.619 3.94-1.332 1.981-.789 4.114-1.614 2.952-1.099 5.98-2.215 3.027-1.117 5.992-1.817 1.293-.306 2.451-.5 1.158-.192 2.259-.292l1.074.469q.43.46.994.809.564.348 1.28.66 1.356.644 2.743 1.76 1.464 1.1 1.789 3.833l-.2.85q-.233.376-.617.788l-.527 1.168-.837.197q-.76.18-1.104.422-.362.166-.84.52-.269.224-.613.465-.362.166-.783.426-.854.122-1.31.23l-1.065.25q-2.28.54-4.87 1.472-2.589.933-5.008 1.906-1.771.66-3.39 1.283-1.637.547-2.97 1.022-.293 2.157-.542 3.821-.249 1.664-.574 3.347-.325 1.682-.556 3.422-.25 1.665-.332 3.691-.59 1.584-.892 3.02-.321 1.36-.324 3.047-.835 1.562-1.008 3.209-.097 1.628-.226 2.782l-.035 1.213q-.406.657-.486.998-.004.322-.219.774.006 1.042-.159 2.044-.062.416-.107.908-.062.416.068.627.046.872-.15 1.4.107.456.139.93l.063.949q-.026.568.006 1.042.013.398.255.742l.6.5q.3.25.56.671.188.116.434.138.246.023.434.139.734.388 1.284.339l.976.732q1.103 2.63.17 4.456-.956 2.072-4.15 2.826l-1.082.176q-.658-.407-.77-.54-.756-.143-1.266-.264-.492-.044-.998-.486-.188-.117-.416-.063-.246-.022-.434-.138-.814-.048-1.342-.245l-.944-.258q-.104-.779-.176-1.083-.806-.692-1.42-1.591-.537-.917-1.016-1.927-.426-.783-.816-1.413-.314-.648-.82-1.09-1.409-5.287-1.113-9.13.279-3.92.84-7.664.328-2.004.564-4.067.235-2.062.3-4.165l.639-1.034q.424-.582.558-.694-.233-.988-.068-1.99.146-1.078.369-2.175.16-.68.245-1.342.16-.68.128-1.154-.532.126-.97.31-.38.09-.818.273-.935.462-1.847.677-.685.162-1.007.158-.536.447-1.05.65l-1.065.25-.912.216-.913.216q-.912.215-1.39.57l-1.369.322-.684.162-.913.216-.912.215q-.608.144-1.386.247-.797.028-1.74-.23l-.677-.483q-.654-.729-1.052-.715l-.89-.03-.197-.837z"/><path style="-inkscape-font-specification:'Permanent Marker'" d="M570.425 747.38q-.041-1.195-.127-1.897-.104-.779-.91-1.471.017-1.289.008-2.009.066-.738-.373-1.919.217-2.138 1.262-3.83 1.122-1.71 2.579-3.017 1.439-1.384 3.12-2.423 1.663-1.116 3.152-1.949-.072-.304-.376-.232-.304.072-.242-.345 3.926-1.73 7.69-4.144 3.841-2.433 7.906-4.597 4.064-2.164 8.572-3.47 4.49-1.382 9.85-1.123.52.84 1.25 1.551l1.459 1.422q.788.616 1.423 1.269.636.652.91 1.47 1.11.622 1.875 1.484.824.769.821 2.455-.692.806-1.461 1.63-.769.824-1.631 1.59-3.62-.029-6.987 1.008-3.368 1.036-6.033 1.987-1.052-.715-2.174-.37-1.14.27-2.344.956-1.144.591-2.27 1.259-1.146.591-2.246.69-.657.958-1.953 1.586-1.315.551-2.8 1.063.014.398.278.496.264.098.22.59.694.559 1.678.647l1.932.025q1.043-.005 1.91.272.85.2 1.294 1.059 1.387-.248 2.537.203 1.132.375 2.032 1.126.9.75 1.455 1.743.538.917.66 1.77.483.69.752.465.344-.241.926.183.573 1.069 1.943 2.11 1.428.947 2.377 2.248.691 2.245 1.198 4.052.584 1.788.236 3.717-.502 3.65-2.306 6.886-1.805 3.236-4.437 6.026-2.574 2.695-5.636 5.024-3.08 2.253-6.193 4.031-.322-.004-.76.18-.362.166-.26-.42-.54.77-1.417 1.137-.8.35-1.883.525-.988.234-2.07.41-1.007.157-1.96.542-.751-.464-1.427-.947-.6-.5-1.102-1.265-.398.014-.488-.366-.032-.474-.412-.385-.071-.304-.031-.474l.08-.34q.25-.3.156-.358-.036-.152-.282-.174-.188-.116-.452-.214-.188-.116-.166-.363.219-.774-.149-1.65l-.619-1.941q-.31-.97-.279-1.86.013-.967.933-1.827 3.19-.432 5.783-1.687 2.67-1.273 4.851-2.912 2.258-1.657 4.175-3.394 1.976-1.832 3.853-3.4.049-.813.38-1.453.406-.658.83-1.24.407-.658.737-1.298.313-.716.343-1.607.004-.322-.108-.456-.111-.134-.282-.174l-.376-.232q-.187-.116-.26-.42l-.491-.045q-.17-.04-.323-.004-2.21-.521-4.576-.685-2.367-.163-4.085-.64-.769.823-1.753.735-.984-.089-2.349-.087-3.23.602-6.226.828-2.921.209-5.852-.303-.26-.42-.56-.67-.317-.327-1.118.023-.712-.635-1.464-1.1-.693-.558-1.347-1.287z"/><path style="-inkscape-font-specification:'Permanent Marker'" d="M623.904 771.913q-1.226-.433-2.086-1.354-.935-.902-1.603-2.029-.743-1.109-1.277-2.347-.627-1.297-1.219-2.442-.251-1.064.097-1.628.33-.64.755-1.222 1.807-.507 3.198-1.077 1.39-.569 2.705-1.12 1.315-.552 2.647-1.027 1.315-.552 2.912-.929.583-2.626 1.069-4.989.467-2.438.913-4.63.007-2.009.314-3.767.365-1.853.708-3.459.325-1.682.516-3.253.173-1.646-.07-3.355.284-2.876.447-5.243.222-2.46-.134-5.667-2.782 1.138-4.423 2.008-1.659.793-2.33 1.353-1.538.283-2.576-.034-.962-.335-1.674-.97-.712-.634-1.326-1.532-.613-.899-1.397-1.838.143-.756-.315-2.012-.475-1.333-1.38-1.762.573-.295.68-1.204.088-.984-.248-1.386 1.203-.686 2.63-1.103 1.409-.493 2.76-.893 1.408-.493 2.664-.95 1.24-.534 2.008-1.358 3.918-1.086 8.14-2.244 4.297-1.176 7.893-2.266 1.476.133 3.225-.28 1.825-.431 3.627-.616 1.88-.203 3.427.234 1.625.419 2.606 2.194 1.176-.117 1.816.213.716.313 1.03.961.296.572.417 1.427l.36 1.52q-1.001 1.2-2.759 2.257-1.699.964-3.814 1.865-2.133.825-4.53 1.552-2.339.632-4.602 1.247.213 2.6.032 6.254-.122 3.561-.338 7.064-.234 3.427-.383 6.192-.092 2.67.164 3.413-.348 1.928-.592 3.27-.17 1.325-.374 2.497-.129 1.154-.333 2.326-.147 1.078-.45 2.515l5.17-1.222q.35.8.954.98.604.178 1.266.262.662.084 1.208.357.604.178.784.938 1.534.04 2.094.71.56.67.547 1.637.046.872-.347 1.928-.316 1.038-.687 1.848-.72.01-1.203.686-.5.6-.889 1.333-2.277.217-4.352.948t-3.863 1.315q-.363.165-.197.528.148.286-.044.492-2.537-.204-5.01.54-2.397.728-4.838 1.947-2.384 1.125-4.901 2.362-2.5 1.313-5.219 2.035z"/><path style="-inkscape-font-specification:'Permanent Marker'" d="M654.084 718.545q-.22-.59-.556-.993-.278-.496-.65-1.05-.595-.823-1.15-1.815-.556-.993-.898-2.438-.027-.796.129-1.154.138-.434.312-.716l-.019-1.44 1.14-.27q.627-.067 1.235-.211l1.293-.305q2.889-.683 5.876-1.63 2.988-.946 6.11-2.005 3.389-1.282 7.365-2.462.182-.926.205-1.172.098-.264.178-.604l.729-.654q1.73-.49 2.54-.119.792.295 1.28.661 1.941-.619 3.94-1.332 1.981-.789 4.114-1.614 2.952-1.099 5.98-2.215 3.027-1.117 5.992-1.817 1.293-.306 2.451-.5 1.159-.192 2.259-.292l1.074.469q.43.46.994.809.564.348 1.28.66 1.356.644 2.744 1.76 1.463 1.1 1.788 3.833l-.2.85q-.233.376-.617.788l-.527 1.168-.836.197q-.76.18-1.105.422-.362.166-.84.52-.269.224-.613.465-.362.166-.782.426-.855.122-1.311.23l-1.064.25q-2.281.54-4.87 1.472-2.59.933-5.01 1.906-1.77.66-3.389 1.283-1.637.547-2.97 1.022-.293 2.157-.542 3.821-.249 1.664-.574 3.347-.325 1.682-.556 3.422-.249 1.665-.332 3.691-.59 1.584-.892 3.02-.321 1.36-.324 3.047-.835 1.562-1.008 3.209-.097 1.628-.226 2.782l-.034 1.213q-.407.657-.487.998-.004.322-.219.774.006 1.042-.159 2.044-.062.416-.106.908-.063.416.067.627.046.872-.15 1.4.107.456.139.93l.063.949q-.026.568.006 1.042.014.398.255.742l.6.5q.3.25.56.671.188.116.434.138.246.023.434.139.734.388 1.284.339l.976.732q1.103 2.63.17 4.456-.956 2.072-4.15 2.826l-1.082.176q-.658-.407-.77-.54-.756-.143-1.266-.264-.492-.044-.998-.486-.188-.117-.416-.063-.246-.022-.434-.138-.814-.048-1.342-.245l-.944-.258q-.104-.779-.176-1.083-.805-.692-1.42-1.591-.537-.917-1.016-1.927-.426-.783-.816-1.413-.313-.648-.82-1.09-1.409-5.287-1.112-9.13.278-3.92.838-7.664.33-2.004.565-4.067.235-2.062.3-4.165l.639-1.034q.424-.582.559-.694-.234-.988-.07-1.99.147-1.078.37-2.175.16-.68.245-1.342.16-.68.129-1.154-.533.126-.97.31-.381.09-.82.273-.934.462-1.846.677-.685.162-1.007.158-.536.447-1.05.65l-1.065.25-.912.216-.913.216q-.912.215-1.39.57l-1.369.322-.684.162-.912.216-.913.215q-.608.144-1.386.247-.797.028-1.74-.23l-.677-.483q-.653-.729-1.052-.715l-.89-.03-.197-.837z"/><path style="-inkscape-font-specification:'Permanent Marker'" d="M713.48 747.06q-.752-.465-1.253-1.23-.426-.782-1.54-1.08-.422-1.105-1.067-2.478-.587-1.467-1.25-2.916-.606-1.543-1.117-3.027-.454-1.579-.53-2.925-.01-.72.15-1.4.237-.699.415-1.303.236-.698.245-1.342.084-.662-.212-1.235.439-.183.425-.581.044-.493.688-.484.137-1.799.404-3.387t.628-3.119l.722-3.06q.42-1.624.615-3.517-1.58-.91-2.512-2.136-.873-1.319-1.519-2.691-.645-1.373-1.139-2.782-.51-1.485-1.326-2.897.589-1.585 1.684-2.726 1.077-1.218 2.472-2.11 1.453-.985 3.206-1.72 1.735-.811 3.68-1.752 3.38-2.003 6.125-3.294 2.728-1.367 5.375-2.393 2.63-1.103 5.523-2.108 2.875-1.08 6.591-2.68.13.21.282.173l.533-.125q.354.478.962.334-.054-.228-.166-.362l-.09-.38q.152-.036.398-.014.322.004.492.044.246.022.38-.09.117-.187-.05-.55 1.29 1.381 2.986 2.105 1.679.647 3.607.994.238.666.233.988.072.305.068.627-.022.246.068.626.072.304.367.876-.731 2.34-2.058 3.858-1.252 1.5-2.857 2.521-1.605 1.022-3.51 1.793-1.829.753-3.792 1.618-1.905.771-3.814 1.864-1.91 1.094-3.599 2.777-.662-.084-1.176.118-.456.107-.952.385-.497.278-1.145.592-.572.295-1.52.359-.483.676-1.266 1.101-.706.408-1.489.834.578.746.7 1.6.197.837.569 1.391 3.265-.45 7.071-1.67 3.788-1.296 7.477-2.328.166.362.05.55-.116.188-.026.568.792.295 1.562.835l1.54 1.081q.828.447 1.62.741.774.219 1.668-.073.56.67.91 1.471.35.8.185 1.803-1.287 1.348-2.48 2.753-1.212 1.33-2.61 2.544-1.324 1.195-3.023 2.158-1.699.964-3.846 1.39l-.684.162q-.228.054-.68-.16-.67.56-1.981.789-1.253.135-2 .713-1.154-.129-2.598.213-1.369.323-2.523.194-.902 2.3-1.597 4.793-.714 2.416-1.051 5.065 3.225-.28 5.26-.842 2.034-.56 3.805-1.22 1.771-.659 3.618-1.336 1.923-.695 4.754-1.284 1.686-1.361 4.047-2.24 2.419-.973 4.386-2.16.814.048 1.508.607.676.482 1.294 1.059.676.482 1.316.813.64.33 1.44-.02.47.291.672.805.278.497.462.935.26.42.56.67.282.175.872-.045-.744 3.306-2.192 5.334-1.371 2.01-3.437 3.461-2.007 1.357-4.713 2.478-2.647 1.027-5.925 2.443-.8.35-1.444.342-.586-.103-1.195.041-2.039.883-4.914 1.964-2.8 1.062-5.783 1.687-2.983.625-5.882.587-2.899-.038-5.137-1.356z"/></g><g stroke="#03f1fa"><path d="M342.294 240.154c-3.048-.304-5.06-3.241-5.06-7.388 0-5.057 5.083-14.538 10.429-19.453 4.373-4.02 8.436-6.562 12.993-8.13 2.07-.712 3.838-.76 28.155-.765l25.946-.005 1.678-.96c3.487-1.993 15.723-5.416 22.61-6.323 8.589-1.131 17.237-.913 23.682.6 9.531 2.235 20.49 5.58 23.835 7.275 1.878.952 3.73 3.104 4.287 4.984.26.878.443.911 5.06.911h4.79l.49-2.04c.286-1.194 1.211-3.02 2.233-4.408 1.693-2.3 1.853-2.404 5.522-3.603 4.559-1.49 12.046-3.094 17.5-3.75 6.731-.81 18.205-.27 25.71 1.21 7.472 1.472 21.43 5.498 22.358 6.448.504.516.728 1.857.933 5.6.262 4.753.24 4.952-.637 5.77-.5.465-1.207.845-1.571.845-1.782 0-3.72 3.711-4.018 7.692l-.227 3.036-3.746.058c-2.06.032-4.012.161-4.339.286-.776.298-.905.048-1.82-3.53-1.886-7.377-4.857-10.209-12.765-12.17-2.854-.707-21.193-1.635-24.439-1.236-3.98.49-6.664 2.25-9.249 6.067-1.155 1.706-2.796 6.466-3.14 9.108-.373 2.865-1.05 3.901-2.707 4.144-3.154.463-5.239-1.051-5.586-4.06l-.218-1.889-1.971-.33c-1.084-.18-3.179-.275-4.656-.21l-2.684.119-.233 2.429c-.355 3.69-.42 3.761-3.653 3.915-1.546.073-2.974.077-3.171.01-.198-.068-1.213-2.638-2.256-5.711-2.808-8.276-5.391-11.092-11.188-12.192-4.304-.817-14.781-1.608-21.302-1.608h-6.657l-2.795 1.469c-2.49 1.308-2.991 1.785-4.578 4.352-2.048 3.313-2.655 5.213-2.667 8.348-.01 1.224-.153 2.453-.33 2.731-.24.378-1.728.461-5.917.331-3.078-.096-5.744-.323-5.924-.505-.18-.182-.507-1.451-.727-2.82-.704-4.393-2.473-6.89-5.68-8.022-1.499-.529-5.007-.621-23.583-.621h-21.822l-3.125 1.22c-3.91 1.526-6.221 3.217-9.319 6.816-3.827 4.447-5.588 7.745-6.407 12.002-.386 2.004-.896 3.777-1.134 3.94-.438.302-3.95.308-6.91.013zm160.51-18.72c0-.652-2.024-1.022-5.465-.999-3.529.024-5.465.378-5.465.998 0 .24 2.163.397 5.465.397 3.303 0 5.465-.157 5.465-.397zm17.626 40.285c-2.633-1.027-3.78-1.78-6.179-4.056-1.62-1.538-3.582-3.662-4.36-4.722-3.208-4.37-5.346-12.185-4.88-17.84.272-3.303.076-4.399-.79-4.399-.297 0-1.04-.43-1.651-.955-.833-.717-1.168-1.45-1.339-2.927l-.227-1.97-1.97-.33c-1.085-.181-3.18-.276-4.656-.211l-2.685.118-.233 2.43c-.354 3.69-.484 3.845-3.218 3.845-3.76 0-3.633-.183-3.633 5.241 0 7.764-1.907 13.612-6.118 18.766-2.796 3.423-6.534 6.104-10.002 7.175-2.273.702-3.774.799-12.361.799-8.87 0-9.976-.077-11.956-.83-3.18-1.209-6.8-3.969-9.465-7.215-4.637-5.651-6.605-12.102-6.279-20.577.137-3.551.054-5.096-.287-5.38-.264-.219-1.866-.354-3.561-.302-1.695.053-3.263-.086-3.484-.308-.22-.223-.58-1.525-.8-2.894-.705-4.393-2.474-6.89-5.681-8.023-1.499-.528-5.006-.62-23.583-.62H369.21l-3.124 1.22c-3.91 1.526-6.222 3.217-9.32 6.815-3.827 4.447-5.588 7.746-6.407 12.003-.385 2.004-.895 3.791-1.133 3.972-.238.181-2.248.223-4.467.094-3.636-.212-4.144-.34-5.143-1.298-2.939-2.816-3.174-6.758-.75-12.56 4.22-10.1 12.286-17.949 21.812-21.226 2.07-.712 3.838-.76 28.154-.765l25.946-.005 1.678-.96c3.487-1.994 15.723-5.416 22.611-6.323 8.588-1.132 17.237-.913 23.682.599 9.53 2.235 20.489 5.58 23.834 7.276 1.879.952 3.73 3.103 4.287 4.984.261.878.443.91 5.06.91h4.791l.49-2.039c.286-1.194 1.21-3.02 2.232-4.408 1.694-2.3 1.854-2.405 5.523-3.603 4.558-1.49 12.045-3.094 17.5-3.75 6.73-.81 18.204-.27 25.71 1.21 7.472 1.472 21.429 5.498 22.358 6.448.504.516.727 1.857.933 5.6.261 4.753.239 4.952-.638 5.769-.5.465-1.206.846-1.57.846-1.783 0-3.72 3.71-4.019 7.692l-.227 3.036-3.976.062c-2.186.035-4.09.178-4.231.319-.292.291-.163 6.54.156 7.613.266.891-.818 6.374-2.111 10.678-1.627 5.416-6.079 10.974-10.641 13.286-4.93 2.498-5.28 2.562-15.247 2.763l-9.3.188-3.233-1.26zm-17.604-39.915c0-.652-2.024-1.021-5.465-.998-3.53.024-5.465.377-5.465.998 0 .24 2.162.397 5.465.397 3.302 0 5.465-.157 5.465-.397z" fill="#00407a" stroke-width=".957"/><path d="M523.78 262.751c-2.576-.134-7.131-3.37-9.052-4.985-2.474-2.463-4.946-5.014-6.395-8.246-.727-1.437-2.327-3.29.21-3.788 10.217-2.824 17.558-3.912 25.014-12.24 3.855-4.307-2.482-10.004 1.468-16.806 1.453-1.912 3.035-4.272 5.443-4.935 3.212.86 6.694.513 9.812 1.688-11.023 12.384-3.634 12.643-2.08 22.674 1.91 14.915-15.534 21.653-24.42 26.638zm-78.777-1.135c-2.576-.135-4.819-2.058-6.74-3.673-2.474-2.463-4.945-5.014-6.394-8.246-.727-1.437-2.328-3.291.21-3.788 10.216-2.824 19.807-2.662 27.264-10.991 3.854-4.306-4.733-11.253-.783-18.055 1.454-1.912 3.036-4.272 5.443-4.935 3.212.86 6.695.513 9.813 1.688-11.023 12.384-2.134 11.143-.58 21.174 1.909 14.915-19.347 21.84-28.233 26.826z" fill="none"/></g></svg>