<?xml version="1.0" encoding="utf-8"?>
<!-- Generator: Adobe Illustrator 21.0.2, SVG Export Plug-In . SVG Version: 6.00 Build 0)  -->
<svg version="1.1" id="Laag_1" xmlns="http://www.w3.org/2000/svg" xmlns:xlink="http://www.w3.org/1999/xlink" x="0px" y="0px"
	 viewBox="0 0 1920 1920" style="enable-background:new 0 0 1920 1920;" xml:space="preserve">
<style type="text/css">
	.st0{fill:none;}
	.st1{fill:#66328F;}
	.st2{fill:#2AAAE2;}
	.st3{fill:#3BB34A;}
	.st4{fill:#F6EC27;}
	.st5{fill:#F04E28;}
</style>
<path d="M1356.5,1504.1h-86l-0.1-1072.8h87.8c70.4,0,127.4-55.3,127.4-123.5c0-68.3-59.9-123.7-130.3-123.7l-206.9-0.1
	c-69.4,1.1-123.6,51.1-123.6,118.6l-0.1,438.9c-103-73-242.6-116.2-380.9-116.2c-358.8,0-607.6,295.2-607.6,587
	c0,324.2,236.9,578.4,617.9,576.8c140-0.6,269.1-28.8,372.7-103.4c20,38,59.5,59.3,105.8,61.8l223.7-0.1
	c70.4,0,127.7-51.5,127.7-119.8C1484,1559.5,1426.9,1504.1,1356.5,1504.1z M660.9,1545.3c-254.1,1.7-381-135.7-377.6-339.9
	c3.2-187.7,173.4-331.3,367.3-339.9c202.7-8.9,377.6,167.6,377.6,355.3C1028.2,1408.6,863.7,1543.9,660.9,1545.3z"/>
<line class="st0" x1="1616.2" y1="486" x2="1616.1" y2="486"/>
<line class="st0" x1="1616.2" y1="533.9" x2="1616.2" y2="533.9"/>
<ellipse class="st1" cx="1676.2" cy="1626.5" rx="127" ry="128.7"/>
<path class="st2" d="M1676.2,1426.5c-70.1,0-126.9-57.6-126.9-128.7c0-71.1,56.8-128.8,126.9-128.8c70.2,0,127.1,57.7,127.1,128.8
	C1803.3,1368.9,1746.4,1426.5,1676.2,1426.5z"/>
<ellipse class="st3" cx="1676.2" cy="969" rx="127" ry="128.7"/>
<path class="st4" d="M1676.4,769c-70.1,0-127-57.6-127-128.7c0-71.1,56.9-128.8,127-128.8c70.2,0,127.1,57.7,127.1,128.8
	S1746.6,769,1676.4,769z"/>
<path class="st5" d="M1676.4,440.2c-70.1,0-127-57.6-127-128.7c0-71.1,56.9-128.8,127-128.8c70.2,0,127.1,57.7,127.1,128.8
	S1746.6,440.2,1676.4,440.2z"/>
</svg>
