<?xml version="1.0" encoding="utf-8"?>
<!-- Generator: Adobe Illustrator 23.0.1, SVG Export Plug-In . SVG Version: 6.00 Build 0)  -->
<svg version="1.1" id="Laag_1" xmlns="http://www.w3.org/2000/svg" xmlns:xlink="http://www.w3.org/1999/xlink" x="0px" y="0px"
	 viewBox="0 0 240 60" style="enable-background:new 0 0 240 60;" xml:space="preserve">
<style type="text/css">
	.st0{fill:#FFFFFF;}
	.st1{fill:#E71D73;}
</style>
<g>
	<path class="st0" d="M45.23,58.02V25.08l-10.8,21.43h-7.46L16.09,25.08v32.95H5.06V1.5h10.88L30.7,32.06L45.39,1.5h10.88v56.52
		H45.23z"/>
	<path class="st0" d="M69.44,58.02V1.5h11.03v56.52H69.44z"/>
	<path class="st0" d="M167,58.5c-11.59,0-20.8-7.86-20.8-19.85V1.5h11.03v36.76c0,6.51,3.81,10.4,9.76,10.4
		c5.95,0,9.84-3.89,9.84-10.4V1.5h10.96v37.15C187.8,50.64,178.59,58.5,167,58.5z"/>
	<path class="st0" d="M209.74,42.33v15.71h-10.4V1.5h10.4h1.86c6.47,0,11.97,2,16.52,5.99c4.55,3.99,6.82,8.81,6.82,14.44
		c0,5.66-2.27,10.48-6.82,14.48c-4.55,3.99-10.06,5.99-16.52,5.99C210.98,42.4,210.36,42.38,209.74,42.33z M209.74,9.91v23.97
		c0.59,0.08,1.21,0.12,1.86,0.12c3.81,0,7.05-1.18,9.72-3.53c2.68-2.36,4.01-5.2,4.01-8.53c0-3.33-1.34-6.16-4.01-8.51
		c-2.68-2.34-5.92-3.51-9.72-3.51H209.74z"/>
	<polygon class="st0" points="127.39,1.5 114.34,20.06 108.11,28.92 87.66,58.02 100.75,58.02 114.65,38.22 120.87,29.36 
		140.43,1.5 	"/>
	<polygon class="st1" points="140.99,57.99 123.99,33.79 117.76,42.66 128.55,58.02 	"/>
	<polygon class="st1" points="101.3,1.5 88.86,1.5 105,24.49 111.23,15.63 	"/>
</g>
</svg>
