<svg id="svg4443" xmlns="http://www.w3.org/2000/svg" viewBox="0 0 422.5 153.2"><style>.outsite-logo-0{fill:#fff}</style><g id="layer1" transform="translate(-95.932 -439.46)"><path id="rect4153-7-5-2-7-8" class="outsite-logo-0" d="M172.4 439.5c-1.9 0-3.7.8-5 2.1L98 511c-2.8 2.8-2.8 7.4 0 10.2l69.4 69.4c2.8 2.8 7.4 2.8 10.2 0l23.5-23.5c2.8-2.8 2.9-7.3.1-10.2-2.8-2.8-7.3-2.9-10.2-.1l-.1.1-18.4 18.4-59.2-59.2 59.2-59.2 18.4 18.4c2.8 2.8 7.3 2.9 10.2.1s2.9-7.3.1-10.2l-.1-.1-23.5-23.5c-1.3-1.4-3.2-2.2-5.2-2.1z"/><path id="path4202-8-7-9-0" class="outsite-logo-0" d="M178.2 477.6c10.4 0 19.3 3.8 26.7 11.3 7.4 7.6 11.2 16.6 11.2 27.1 0 10.7-3.7 19.8-11.2 27.3s-16.6 11.2-27.3 11.2c-10.6 0-19.7-3.8-27.2-11.3s-11.3-16.6-11.3-27.2c0-10.7 3.8-19.8 11.3-27.3 7.5-7.4 16.8-11.1 27.8-11.1zm-.7 21.6c-4.5 0-8.3 1.6-11.4 4.9s-4.7 7.3-4.7 11.9c0 4.7 1.6 8.6 4.7 11.9 3.2 3.3 7 4.9 11.4 4.9 4.5 0 8.3-1.6 11.4-4.9 3.2-3.3 4.7-7.3 4.7-12s-1.6-8.7-4.7-11.9c-3.1-3.2-6.9-4.8-11.4-4.8z"/><path id="path4204-9-2-4-1" class="outsite-logo-0" d="M276.4 479.4v47.5c0 8.4-2.5 15.1-7.5 20.1s-11.6 7.5-19.9 7.5c-8.3 0-14.6-2.4-19-7.3s-6.6-11.9-6.6-21v-46.8h21.8v46.8c0 4.5 1.6 6.7 4.8 6.7 3.1 0 4.6-2.2 4.6-6.7v-46.8h21.8z"/><path id="path4206-5-3-5-5" class="outsite-logo-0" d="M320.2 500.5v52.3h-21.8v-52.3h-16.7v-21.1h55.2v21.1h-16.7z"/><path id="path4208-4-5-5-5" class="outsite-logo-0" d="M378 479.1V500c-1.6-.5-2.8-.8-3.7-.8-1.6 0-3.1.6-4.2 1.8-1.2 1.2-1.8 2.7-1.8 4.4 0 1.5.6 3.3 1.9 5.6l1.7 2.9c3 5.2 4.5 10.3 4.5 15.1 0 7.1-2.5 13.2-7.6 18.1-5 4.9-11.2 7.4-18.5 7.4-3.5 0-7-.8-10.4-2.4v-21.2c2.1 1.3 3.9 2 5.5 2 1.9 0 3.5-.5 4.7-1.6 1.3-1.1 1.9-2.5 1.9-4.1 0-1.1-1-3.4-3.1-7-3.3-5.7-4.9-11.5-4.9-17.2 0-6.9 2.5-12.9 7.4-17.8 4.9-5 10.8-7.5 17.7-7.5 3-.1 6 .4 8.9 1.4z"/><path id="path4210-3-8-7-3" class="outsite-logo-0" d="M409.4 479.4v73.3h-21.8v-73.3h21.8z"/><path id="path4212-7-2-7-5" class="outsite-logo-0" d="M454.6 500.5v52.3h-21.8v-52.3h-16.7v-21.1h55.2v21.1h-16.7z"/><path id="path4214-6-8-5-4" class="outsite-logo-0" d="M517 507.9v16.3h-14.2c-1.9 0-3.3.3-4.1.9-.8.6-1.2 1.5-1.2 2.9 0 1.5.4 2.6 1.2 3.1.8.5 2.5.7 5 .7h14.7v20.9h-17.1c-8.1 0-14.2-1.9-18.5-5.7-4.3-3.9-6.4-9.4-6.4-16.7v-28.7c0-7 2-12.5 6-16.3 4-3.9 9.7-5.8 17-5.8h19v21.1h-13.9c-3.8 0-5.6 1.2-5.6 3.7 0 1.4.4 2.4 1.3 3 .9.5 2.5.8 4.8.8l12-.2z"/></g></svg>