<svg version="1.0" xmlns="http://www.w3.org/2000/svg" width="400" height="400" viewBox="0 0 260 245"><path d="M101.5 4.9c-12.6 5.7-16.4 22.3-7.8 33.7l2.3 3.1-3.1 5.8a56.4 56.4 0 0 0-6.4 34.6c.5 11.5.3 13.8-1 14.9-.8.7-3 4.2-4.8 7.9a350.3 350.3 0 0 1-12.9 23.8c-.7.9-.7 1.3 0 1.3.6 0 1.3-.4 1.7-.9.3-.5 3-1.5 6.1-2.2 6.9-1.5 17.7-.1 31.1 4.2 21.6 6.9 28.6 11.5 40.5 26.5a96.3 96.3 0 0 0 12 13.3c2.3 1.4 2.8 2.1 1.8 2.4-12.1 3.7-18.3 8.6-23.4 18.7-4.3 8.7-6 18.6-5.3 31.1l.5 9.6-12.3.6A103 103 0 0 1 68.4 223c-11.6-5.6-18.9-11.7-22.4-18.6-2-4.1-2.4-6.3-2.3-13.4.1-10.1 2.1-16.5 10-32.3 12.1-24.2 12.2-29.7.1-6.9-5 9.5-11.3 26.1-12.8 34a45 45 0 0 0 2.2 25.9 49.1 49.1 0 0 0 14.9 17.4c1.6.6 2.9 1.5 2.9 1.9 0 .4-7.8 1-17.2 1.4-16.7.7-33.7 2.1-38.7 3.2-7.1 1.6 6.2 3.7 34.4 5.4 20.9 1.3 159.4 1.3 180 0a304 304 0 0 0 35.5-3.6c5.1-1.8-10.7-3.8-39.2-5-8.7-.4-15.8-1-15.8-1.5 0-.4 1.6-2.2 3.6-4.1 12.3-11.4 13.3-34.6 2-44.6a27.4 27.4 0 0 0-12.3-6.7c-1.8-.3-3.3-.8-3.3-.9l2-4.1c1.1-2.2 2-5.3 2-7a42.8 42.8 0 0 0-7.9-18.3 27.3 27.3 0 0 1-3.1-4.5c0-.3 1.4-.8 3-1.2 3.4-.7 14-11 14-13.5 0-.8-.5-3.2-1-5.2-1.2-4.2 0-7.4 7.6-19.8a51.7 51.7 0 0 0 9.1-28c.4-8.2.2-10.4-1.7-15.5a42.4 42.4 0 0 1-2.4-15c-.2-10.8-1.4-13.5-7.5-17.5-4-2.7-5.3-3-11.4-2.9-5.6.2-7.1-.2-9-1.9a39.6 39.6 0 0 0-7.7-4.6 64.1 64.1 0 0 0-39.7-4.5l-7.7 1.2-2.5-3c-1.4-1.7-4-3.8-5.8-4.7a26.5 26.5 0 0 0-18.8.3zm66.4 11.6a59.8 59.8 0 0 1 44.2 44.3c2.1 11.2-.3 34.6-3.2 30.2-.8-1.3-1.2-1.1-2.9 1-4 5-7.8 14-9.6 22.8-1.5 7.7-2 8.9-3.6 8.4-2.2-.5-2.4 2-.3 3.8.8.7 1.5 1.9 1.5 2.6 0 1.5-5.2 4.4-11.2 6.3-3.5 1.2-4 1-8.5-2-6.2-4.2-13.1-10-25.6-21.7a123.6 123.6 0 0 0-30.6-22.4c-5.7-2.7-7.4-3-14-2.6l-7.6.3-1.8-5a38.3 38.3 0 0 1-1.4-15.1c.3-8.8.8-10.9 3.5-16.9 2.9-6.1 3.4-6.7 5.5-6 1.2.4 4.8 1 7.9 1.2 4.9.4 6.5.1 10.9-2.3 7.3-4 10.9-10.4 10.9-19.6v-6.7l4.3-.9a108 108 0 0 1 31.6.3z"/><path d="M174.5 85.5a71.3 71.3 0 0 1-13.3 6.6c-11.2 3.7-14.6 8.6-10.1 14.3 3.9 4.9 16.7 9.6 26.7 9.6 4 0 4.4-.2 5.9-3.8 3.4-8.1 2.6-31.3-1-31.2-.7 0-4.3 2.1-8.2 4.5z"/></svg>