<?xml version="1.0" standalone="no"?>
<!DOCTYPE svg PUBLIC "-//W3C//DTD SVG 20010904//EN"
 "http://www.w3.org/TR/2001/REC-SVG-20010904/DTD/svg10.dtd">
<svg version="1.0" xmlns="http://www.w3.org/2000/svg"
 width="700.000000pt" height="700.000000pt" viewBox="0 0 700.000000 700.000000"
 preserveAspectRatio="xMidYMid meet">
<metadata>
Created by potrace 1.11, written by Peter Selinger 2001-2013
</metadata>
<g transform="translate(0.000000,700.000000) scale(0.100000,-0.100000)"
fill="#000000" stroke="none">
<path d="M6050 6328 c-40 -5 -93 -22 -139 -44 -202 -99 -303 -326 -243 -545
99 -355 542 -460 787 -186 134 149 156 386 52 557 -69 112 -195 198 -317 216
-19 2 -44 6 -55 8 -11 2 -49 -1 -85 -6z"/>
<path d="M4090 6319 c-25 -5 -77 -25 -117 -44 -121 -60 -202 -166 -230 -302
-3 -16 -6 -398 -7 -850 0 -453 -2 -823 -3 -823 -1 0 -40 24 -85 54 -215 139
-552 271 -818 319 -32 6 -87 16 -125 22 -83 14 -197 20 -360 20 -224 0 -312
-9 -495 -51 -58 -14 -115 -27 -127 -29 -29 -7 -188 -62 -233 -82 -96 -42 -231
-110 -278 -139 -29 -19 -57 -34 -62 -34 -6 0 -10 -4 -10 -8 0 -5 -10 -14 -22
-19 -13 -6 -55 -35 -94 -64 -405 -303 -680 -702 -819 -1184 -14 -49 -28 -105
-31 -124 -3 -18 -7 -43 -10 -54 -4 -25 -11 -67 -22 -154 -14 -101 -6 -417 13
-523 1 -8 6 -35 10 -60 4 -25 13 -70 21 -101 7 -30 15 -64 17 -75 17 -95 120
-355 189 -476 207 -365 492 -633 872 -819 209 -103 493 -188 715 -214 30 -4
62 -8 71 -10 107 -21 511 -21 670 0 226 29 374 60 530 112 139 45 359 153 464
227 27 19 27 19 44 -5 40 -58 100 -113 152 -139 118 -59 120 -60 629 -59 266
0 485 4 511 9 120 27 221 94 288 192 89 133 93 317 9 460 -32 55 -121 139
-177 168 -89 46 -136 53 -330 56 -102 1 -191 3 -197 3 -10 1 -12 403 -10 1954
l2 1952 65 2 c36 1 127 2 204 3 118 2 148 6 204 26 271 98 387 400 246 642
-34 57 -112 134 -171 167 -26 14 -79 35 -116 45 -63 18 -106 19 -500 19 -238
-1 -452 -5 -477 -10z m-1453 -2493 c466 -80 883 -435 1040 -886 50 -142 63
-213 68 -370 17 -563 -404 -1044 -1022 -1169 -328 -67 -712 -35 -1006 84 -152
61 -279 147 -383 257 -162 172 -263 399 -291 652 -8 78 -9 264 -1 337 45 392
329 764 733 959 175 84 341 132 508 146 39 4 73 8 75 9 8 7 206 -6 279 -19z"/>
<path d="M6021 5124 c-136 -28 -260 -123 -320 -245 -37 -75 -41 -91 -48 -185
-20 -264 192 -494 457 -496 255 -2 463 208 463 468 -1 296 -266 516 -552 458z"/>
<path d="M6020 3927 c-77 -15 -170 -66 -231 -126 -184 -185 -185 -479 -2 -665
133 -136 341 -174 514 -94 93 44 175 121 217 205 52 103 69 236 42 333 -43
163 -180 304 -327 339 -66 16 -156 20 -213 8z"/>
<path d="M5995 2721 c-156 -44 -265 -146 -317 -296 -125 -359 204 -713 563
-605 164 50 303 207 324 365 4 28 8 59 10 70 12 85 -52 256 -126 333 -120 125
-299 178 -454 133z"/>
<path d="M6014 1529 c-152 -27 -309 -179 -352 -339 -5 -19 -10 -69 -11 -110
-4 -202 111 -373 304 -451 81 -32 221 -33 308 -1 183 67 308 243 308 434 0 75
-1 84 -20 153 -29 105 -133 225 -238 276 -96 46 -189 58 -299 38z"/>
</g>
</svg>
