<svg version="1" xmlns="http://www.w3.org/2000/svg" width="933.333" height="933.333" viewBox="0 0 700.000000 700.000000"><path d="M343.6 4.1c-11.3 1.8-5.1-4.1-176.3 167.2C11.4 327.3 6.2 332.7 4.1 338.4c-3.8 10.4-2.7 21.1 3.2 30.2 2.8 4.4 318.4 319.9 323.4 323.3 8.2 5.6 19.7 6.8 29.8 3.1 5.7-2.2 8.6-4.8 63.3-59.4 65.2-64.9 63.7-63.2 63.7-77.7 0-6.5-.5-8.5-3.3-14.1-5.4-11-16.3-17.9-28.2-18-14.5-.2-14.1-.4-63.7 49.1l-43.7 43.7-133.8-133.8C141.2 411.2 81 350.8 81 350.4 81 349.6 347.8 83 348.7 83c.4 0 20.2 19.4 43.8 43.2 37.6 37.7 43.8 43.4 49.1 46 12 5.6 25.8 3.6 35.5-5.4 7.6-6.9 10.9-15.2 10.4-25.6-.3-7.4-2.3-12.9-6.5-18.2-4.8-5.9-111.3-111.8-115.1-114.4-5.8-4-14.4-5.7-22.3-4.5z"/><path d="M361.8 176.5c-.2.2-4 .6-8.4.9-8.1.7-12.5 1.3-15.4 2.1-.8.2-3.1.7-5 1-18.3 3-47.5 16.1-64.3 28.7-17.4 13-33.7 30.3-44.3 46.8-4.7 7.4-5.1 8.1-9.7 17.5-8.8 17.8-12.9 31.9-16.3 55.5-2.2 15.5-.4 46.2 3.7 62.5 1.1 4.4 2.2 8.9 2.4 10 2.4 10.9 17.7 41.5 24.2 48.3.7.7 1.3 1.7 1.3 2 0 .4 1 1.8 2.3 3.2 1.2 1.4 3.5 4.1 5.1 6 5.7 7.1 15 16.3 25.2 25 8 6.9 33.7 23 36.7 23 .7 0 1.7.4 2.3.9 2 1.9 24.3 9.3 31.9 10.5 1.7.3 5.4 1 8.2 1.5 20.6 4 52.4 2.9 73.8-2.5 42.6-10.7 80.3-38.5 105.7-78 10-15.6 20.6-44.2 22.5-60.9.2-2.2.8-6.2 1.2-8.9 1-5.5.7-39.7-.4-46.6-1.8-12.6-7.3-32.6-11.1-41-16.2-35.3-37.4-60.8-67.5-80.9-11.3-7.5-34.1-18.4-41.4-19.7-.5-.1-3.5-.9-6.5-1.8-3-.8-8.6-2-12.5-2.6-3.8-.6-8.3-1.3-10-1.6-2.9-.6-33.2-1.3-33.7-.9zm31.7 100.9c40.1 13.6 60 56.8 46 99.8-4.7 14.1-21 33.7-34 40.5-22.5 11.8-49.5 11.2-70.3-1.5-22.3-13.7-35.8-36.6-36.6-62.5-.8-23.7 6.3-42.3 22.4-58.6 15.3-15.5 29.8-21.2 52.5-20.7 10 .3 13.4.8 20 3z"/></svg>